M48
; DRILL file KiCad 10.0.6 date 2026-09-30T18:30:04
; FORMAT={-:-/ absolute / metric / decimal}
; #@! TF.CreationDate,2026-09-30T18:30:04+02:00
; #@! TF.GenerationSoftware,Kicad,Pcbnew,10.0.6
; #@! TF.FileFunction,Plated,1,4,PTH
FMAT,2
METRIC
; #@! TA.AperFunction,Plated,PTH,ViaDrill
T1C0.250
; #@! TA.AperFunction,Plated,PTH,ComponentDrill
T2C0.250
; #@! TA.AperFunction,Plated,PTH,ComponentDrill
T3C0.650
; #@! TA.AperFunction,Plated,PTH,ComponentDrill
T4C0.800
; #@! TA.AperFunction,Plated,PTH,ComponentDrill
T5C0.900
; #@! TA.AperFunction,Plated,PTH,ComponentDrill
T6C1.000
; #@! TA.AperFunction,Plated,PTH,ComponentDrill
T7C1.020
; #@! TA.AperFunction,Plated,PTH,ComponentDrill
T8C1.200
; #@! TA.AperFunction,Plated,PTH,ComponentDrill
T9C1.500
; #@! TA.AperFunction,Plated,PTH,ComponentDrill
T10C1.600
; #@! TA.AperFunction,Plated,PTH,ComponentDrill
T11C2.500
%
G90
G05
T1
X73.8Y-94.3
X75.0Y-85.0
X76.7Y-94.8
X78.4Y-124.2
X78.5Y-129.0
X78.5Y-131.0
X78.6Y-97.5
X79.0Y-107.2
X79.0Y-133.0
X79.2Y-116.45
X79.5Y-123.0
X79.5Y-125.5
X80.0Y-90.0
X80.1Y-111.9
X81.0Y-104.85
X81.0Y-129.0
X81.0Y-131.0
X81.0Y-133.0
X81.0Y-135.5
X81.75Y-101.5
X81.9Y-123.0
X81.9Y-125.5
X82.1Y-95.2
X82.1Y-97.1
X82.1Y-99.0
X82.4Y-111.9
X82.4Y-117.85
X82.5Y-80.0
X83.0Y-71.0
X83.1Y-124.2
X83.5Y-133.0
X83.5Y-135.5
X83.8Y-90.3
X83.8Y-104.85
X84.3Y-123.0
X84.3Y-125.5
X84.7Y-111.9
X84.8Y-80.4
X85.0Y-74.2
X85.0Y-76.0
X85.0Y-77.9
X85.0Y-85.0
X85.7Y-68.4
X85.7Y-116.45
X85.9Y-101.5
X86.0Y-133.0
X86.0Y-135.5
X86.1Y-107.2
X86.6Y-82.65
X87.2Y-66.1
X87.4Y-124.7
X87.5Y-117.5
X88.35Y-80.4
X89.7Y-124.7
X90.0Y-90.0
X90.0Y-105.0
X91.0Y-71.0
X91.2Y-127.0
X92.5Y-45.0
X92.5Y-47.5
X92.5Y-117.5
X92.5Y-132.5
X94.8Y-61.4
X95.0Y-45.0
X95.0Y-47.5
X95.0Y-67.5
X95.0Y-71.0
X95.0Y-85.0
X95.0Y-90.3
X95.0Y-120.0
X95.0Y-135.0
X95.8Y-62.3
X96.197Y-58.304
X96.7Y-57.682
X97.0Y-116.55
X97.5Y-45.0
X97.5Y-47.5
X97.5Y-67.5
X97.5Y-132.5
X97.6Y-51.6
X98.237Y-57.262
X99.0Y-64.6
X99.6Y-50.7
X99.6Y-52.3
X99.7Y-62.925
X100.0Y-90.0
X100.0Y-105.0
X100.0Y-117.5
X100.0Y-135.0
X100.7Y-53.7
X101.0Y-71.0
X101.2Y-50.7
X101.2Y-52.3
X101.275Y-55.6
X101.7Y-62.6
X102.1Y-54.5
X102.5Y-120.0
X102.5Y-132.5
X102.925Y-55.863
X103.9Y-54.8
X105.0Y-117.5
X105.4Y-56.175
X105.6Y-54.5
X105.8Y-50.7
X105.8Y-52.3
X105.8Y-111.5
X105.975Y-59.05
X106.0Y-98.7
X106.0Y-101.8
X106.0Y-105.3
X106.6Y-56.9
X106.8Y-58.3
X107.319Y-59.3
X107.4Y-50.7
X107.5Y-65.0
X107.5Y-67.5
X108.6Y-56.4
X108.8Y-54.7
X108.8Y-57.7
X108.9Y-59.2
X110.0Y-45.0
X110.0Y-47.5
X110.0Y-65.0
X110.0Y-67.5
X110.2Y-98.7
X110.2Y-101.8
X110.2Y-105.3
X110.2Y-111.5
X110.2Y-114.6
X110.2Y-118.3
X110.7Y-55.4
X111.35Y-60.8
X111.7Y-59.6
X112.1Y-54.7
X112.5Y-45.0
X112.5Y-47.5
X114.0Y-71.5
X114.0Y-73.5
X114.0Y-75.0
X114.0Y-76.5
X114.0Y-78.0
X114.7Y-65.4
X114.762Y-67.5
X114.85Y-55.366
X115.0Y-45.0
X115.0Y-47.5
X115.0Y-85.0
X115.0Y-90.0
X115.1Y-61.3
X115.4Y-53.2
X115.5Y-76.5
X115.5Y-78.0
X117.1Y-46.0
X118.0Y-71.5
X118.0Y-73.5
X118.0Y-75.0
X118.4Y-55.9
X119.0Y-61.0
X119.0Y-63.4
X119.0Y-65.1
X119.3Y-70.9
X119.6Y-57.8
X119.7Y-75.6
X120.0Y-85.0
X120.0Y-90.0
X120.45Y-65.5
X120.5Y-64.0
X121.2Y-95.6
X121.2Y-104.2
X121.4Y-53.9
X121.9Y-50.7
X122.0Y-134.3
X122.1Y-92.9
X122.1Y-118.1
X122.1Y-122.9
X122.2Y-86.5
X122.5Y-79.7
X122.5Y-81.1
X123.0Y-59.0
X123.1Y-128.5
X123.3Y-50.4
X123.7Y-56.8
X123.8Y-55.0
X123.8Y-112.65
X123.8Y-119.4
X123.8Y-135.7
X124.1Y-82.4
X124.8Y-46.0
X125.0Y-62.0
X125.5Y-93.7
X125.5Y-95.6
X125.5Y-104.2
X125.5Y-111.35
X125.5Y-112.65
X125.5Y-118.1
X125.5Y-122.9
X125.5Y-134.3
X125.737Y-49.537
X125.75Y-82.4
X125.9Y-53.95
X126.0Y-65.0
X126.0Y-128.5
X126.9Y-71.8
X127.1Y-119.4
X127.1Y-135.7
X127.15Y-112.65
X127.3Y-60.5
X128.0Y-89.8
X128.0Y-91.4
X128.1Y-128.5
X128.3Y-74.6
X128.6Y-62.8
X128.6Y-90.6
X128.8Y-82.3
X128.8Y-118.1
X128.8Y-122.9
X128.9Y-134.3
X129.137Y-49.537
X129.15Y-65.9
X129.2Y-89.8
X129.2Y-91.4
X129.575Y-57.675
X129.6Y-56.3
X129.7Y-53.6
X129.9Y-59.2
X130.1Y-48.1
X130.1Y-84.9
X130.4Y-55.325
X130.4Y-60.5
X130.5Y-65.5
X130.6Y-63.0
X131.2Y-53.2
X131.7Y-81.4
X131.838Y-67.237
X132.25Y-104.65
X132.4Y-52.7
X132.5Y-45.0
X132.75Y-88.65
X132.8Y-92.85
X133.0Y-124.4
X133.5Y-70.7
X133.6Y-108.2
X133.6Y-122.1
X134.0Y-88.65
X134.3Y-81.4
X134.5Y-69.0
X134.85Y-115.0
X135.0Y-45.0
X135.25Y-88.65
X135.4Y-106.9
X135.5Y-56.7
X136.0Y-48.4
X136.1Y-50.5
X136.1Y-118.7
X136.1Y-130.9
X136.1Y-132.5
X136.1Y-134.3
X136.15Y-53.1
X136.2Y-120.6
X136.2Y-122.2
X136.3Y-63.5
X136.3Y-93.4
X136.4Y-68.6
X136.5Y-60.2
X136.5Y-105.9
X136.5Y-108.0
X136.6Y-123.6
X136.7Y-58.9
X136.7Y-66.453
X136.75Y-82.4
X136.8Y-117.4
X137.137Y-52.062
X137.137Y-61.962
X137.35Y-111.55
X137.475Y-126.75
X137.5Y-45.0
X137.7Y-75.3
X138.1Y-49.1
X138.1Y-58.9
X138.25Y-82.4
X138.9Y-93.4
X139.75Y-82.4
X140.1Y-100.2
X140.1Y-102.0
X140.9Y-120.0
X141.7Y-113.3
X141.8Y-89.8
X141.9Y-91.4
X141.9Y-102.0
X142.4Y-90.6
X142.5Y-115.8
X142.5Y-120.6
X142.5Y-122.9
X142.7Y-105.3
X142.7Y-106.5
X142.7Y-109.1
X142.7Y-130.0
X142.7Y-132.3
X142.7Y-134.8
X143.0Y-89.8
X143.0Y-91.4
X143.2Y-44.0
X143.2Y-48.0
X143.3Y-59.0
X143.3Y-69.7
X143.3Y-73.0
X143.3Y-76.8
X143.7Y-100.2
X143.7Y-102.0
X143.8Y-110.5
X144.0Y-83.9
X144.062Y-52.062
X144.237Y-61.962
X144.7Y-67.712
X144.8Y-58.5
X145.0Y-46.0
X145.0Y-81.0
X145.0Y-110.2
X145.9Y-111.5
X146.3Y-114.1
X146.5Y-88.65
X146.8Y-92.85
X146.9Y-61.4
X146.9Y-109.1
X147.0Y-44.0
X147.2Y-115.4
X147.75Y-88.65
X148.2Y-81.5
X148.35Y-116.1
X148.8Y-92.9
X148.9Y-126.0
X149.0Y-106.7
X149.1Y-72.6
X149.2Y-59.8
X149.9Y-114.7
X149.9Y-116.2
X150.0Y-135.0
X150.1Y-105.7
X150.4Y-51.7
X150.9Y-111.6
X151.37Y-68.47
X151.8Y-70.2
X151.8Y-80.7
X152.6Y-50.8
X152.9Y-53.1
X152.9Y-55.6
X153.425Y-60.625
X153.525Y-67.225
X153.8Y-62.2
X155.8Y-126.0
X156.4Y-75.6
X156.6Y-117.1
X156.6Y-119.8
X156.875Y-68.125
X157.0Y-44.0
X157.0Y-69.4
X157.0Y-71.0
X157.0Y-107.4
X157.0Y-110.3
X157.1Y-72.3
X157.1Y-74.1
X157.237Y-56.402
X157.737Y-63.337
X159.5Y-58.2
X160.0Y-110.0
X160.0Y-120.0
X160.0Y-135.0
X160.3Y-72.6
X160.5Y-89.0
X160.5Y-91.0
X160.5Y-93.0
X160.5Y-95.0
X160.5Y-97.0
X160.5Y-99.0
X160.9Y-63.9
X161.338Y-74.638
X161.6Y-50.3
X161.6Y-51.7
X161.7Y-60.9
X161.75Y-52.95
X163.25Y-50.35
X163.3Y-57.7
X163.5Y-47.2
X164.0Y-126.0
X164.2Y-76.5
X164.3Y-69.1
X164.6Y-75.0
X164.8Y-65.4
X164.95Y-50.45
X165.1Y-91.3
X165.4Y-49.0
X166.0Y-94.8
X166.3Y-98.3
X166.5Y-54.8
X167.0Y-44.0
X167.562Y-75.862
X168.1Y-70.8
X168.2Y-61.7
X168.3Y-63.9
X168.463Y-48.162
X169.0Y-54.925
X169.2Y-69.6
X170.0Y-110.0
X170.0Y-120.0
X170.0Y-135.0
X170.137Y-47.9
X170.3Y-59.1
X170.5Y-89.0
X170.5Y-91.0
X170.5Y-93.0
X170.5Y-95.0
X170.5Y-97.0
X170.5Y-99.0
X171.5Y-61.1
X171.5Y-126.0
X171.575Y-55.225
X171.9Y-47.7
X172.9Y-71.0
X172.9Y-72.7
X173.1Y-46.5
X173.2Y-65.6
X173.8Y-48.7
X173.9Y-50.4
X174.4Y-54.1
X175.3Y-58.3
X175.6Y-69.9
X176.475Y-54.625
X176.5Y-92.0
X176.5Y-96.1
X176.6Y-53.0
X176.8Y-49.7
X176.8Y-121.0
X177.0Y-44.0
X177.862Y-64.162
X178.0Y-69.9
X178.0Y-72.4
X178.5Y-52.8
X179.3Y-57.4
X179.3Y-59.0
X179.4Y-78.3
X179.4Y-84.5
X179.4Y-91.4
X179.4Y-103.6
X179.4Y-113.6
X179.5Y-70.3
X179.7Y-66.7
X179.8Y-64.1
X179.963Y-47.662
X180.0Y-72.0
X181.463Y-57.837
X181.8Y-62.4
X182.0Y-47.6
X182.3Y-68.5
X182.4Y-61.3
X182.5Y-86.5
X182.5Y-88.8
X182.5Y-100.0
X182.5Y-110.0
X184.0Y-75.2
X184.0Y-77.3
X184.5Y-49.4
X184.537Y-79.062
X184.9Y-81.9
X185.0Y-120.0
X185.0Y-130.0
X186.262Y-87.462
X186.9Y-78.2
X186.9Y-80.4
X187.0Y-44.0
X188.8Y-81.6
X189.0Y-64.6
X189.1Y-59.6
X189.1Y-61.8
X189.2Y-55.1
X189.6Y-52.4
X189.9Y-75.9
X190.3Y-65.4
X190.5Y-86.6
X191.5Y-69.0
X191.8Y-47.0
X192.3Y-84.2
X192.3Y-86.6
X193.55Y-77.25
X193.95Y-52.4
X194.65Y-75.65
X194.7Y-67.6
X195.0Y-90.0
X195.0Y-100.0
X195.0Y-110.0
X195.0Y-120.0
X195.0Y-130.0
X197.0Y-44.0
X197.8Y-70.4
X198.1Y-64.4
X198.4Y-56.4
X201.0Y-57.2
X201.0Y-63.1
X201.5Y-61.5
X202.3Y-58.7
X203.5Y-70.7
X204.7Y-71.9
X205.0Y-57.2
X205.0Y-110.0
X205.0Y-120.0
X205.0Y-130.0
X205.8Y-70.7
X206.8Y-67.0
X207.2Y-64.6
X215.0Y-50.0
X215.0Y-60.0
X215.0Y-70.0
X215.0Y-110.0
X215.0Y-120.0
X215.0Y-130.0
X221.7Y-120.6
X225.0Y-50.0
X225.0Y-60.0
X225.0Y-70.0
X225.0Y-80.0
X225.0Y-90.0
X225.0Y-100.0
X225.0Y-110.0
T2
X101.6Y-57.8
X101.6Y-58.8
X101.6Y-59.8
X102.6Y-57.8
X102.6Y-58.8
X102.6Y-59.8
X103.6Y-57.8
X103.6Y-58.8
X103.6Y-59.8
X134.3Y-111.65
X134.3Y-113.15
X134.3Y-126.85
X134.3Y-128.35
X134.8Y-112.4
X134.8Y-127.6
X135.3Y-111.65
X135.3Y-113.15
X135.3Y-126.85
X135.3Y-128.35
X147.9Y-111.65
X147.9Y-113.15
X148.4Y-112.4
X148.9Y-111.65
X148.9Y-113.15
T3
X130.2Y-72.53
X130.2Y-73.8
X131.47Y-72.53
X131.47Y-73.8
X132.74Y-72.53
X132.74Y-73.8
X134.01Y-72.53
X134.01Y-73.8
X135.28Y-72.53
X135.28Y-73.8
T4
X102.7Y-123.7
X105.24Y-123.7
X112.86Y-123.7
X115.4Y-123.7
X117.94Y-123.7
T5
X85.66Y-54.21
X85.66Y-56.75
X85.66Y-59.29
X85.66Y-61.83
X88.2Y-55.48
X88.2Y-58.02
X88.2Y-60.56
X88.2Y-63.1
T6
X100.2Y-96.1
X100.7Y-109.6
X102.74Y-96.1
X103.24Y-109.6
X105.28Y-96.1
X105.78Y-109.6
X110.36Y-96.1
X110.86Y-109.6
X112.9Y-96.1
X113.4Y-109.6
X115.44Y-96.1
X115.94Y-109.6
X117.98Y-96.1
X118.48Y-109.6
X146.9Y-72.56
X146.9Y-75.1
X164.5Y-81.1
X167.04Y-81.1
T7
X93.03Y-53.19
X93.03Y-55.73
X93.03Y-61.58
X93.03Y-64.12
T8
X76.5Y-118.49
X76.5Y-122.3
X104.4Y-76.4
X106.94Y-76.4
X109.48Y-76.4
X130.8Y-100.2
X133.34Y-100.2
X135.88Y-100.2
T9
X200.7Y-75.395
X200.7Y-85.555
X200.7Y-94.445
X200.7Y-104.605
X210.86Y-75.395
X210.86Y-85.555
X210.86Y-94.445
X210.86Y-104.605
T10
X82.36Y-50.755
X82.36Y-66.555
T11
X204.5Y-80.475
X204.5Y-99.525
M30
