G04 #@! TF.GenerationSoftware,KiCad,Pcbnew,10.0.6*
G04 #@! TF.CreationDate,2026-09-30T18:29:54+02:00*
G04 #@! TF.ProjectId,ETH1CVOLT,45544831-4356-44f4-9c54-2e6b69636164,rev?*
G04 #@! TF.SameCoordinates,Original*
G04 #@! TF.FileFunction,Soldermask,Bot*
G04 #@! TF.FilePolarity,Negative*
%FSLAX46Y46*%
G04 Gerber Fmt 4.6, Leading zero omitted, Abs format (unit mm)*
G04 Created by KiCad (PCBNEW 10.0.6) date 2026-09-30 18:29:54*
%MOMM*%
%LPD*%
G01*
G04 APERTURE LIST*
G04 Aperture macros list*
%AMRoundRect*
0 Rectangle with rounded corners*
0 $1 Rounding radius*
0 $2 $3 $4 $5 $6 $7 $8 $9 X,Y pos of 4 corners*
0 Add a 4 corners polygon primitive as box body*
4,1,4,$2,$3,$4,$5,$6,$7,$8,$9,$2,$3,0*
0 Add four circle primitives for the rounded corners*
1,1,$1+$1,$2,$3*
1,1,$1+$1,$4,$5*
1,1,$1+$1,$6,$7*
1,1,$1+$1,$8,$9*
0 Add four rect primitives between the rounded corners*
20,1,$1+$1,$2,$3,$4,$5,0*
20,1,$1+$1,$4,$5,$6,$7,0*
20,1,$1+$1,$6,$7,$8,$9,0*
20,1,$1+$1,$8,$9,$2,$3,0*%
G04 Aperture macros list end*
%ADD10C,2.500000*%
%ADD11C,3.500000*%
%ADD12RoundRect,0.250000X0.650000X-0.650000X0.650000X0.650000X-0.650000X0.650000X-0.650000X-0.650000X0*%
%ADD13C,1.800000*%
%ADD14C,3.250000*%
%ADD15RoundRect,0.248000X-0.552000X0.552000X-0.552000X-0.552000X0.552000X-0.552000X0.552000X0.552000X0*%
%ADD16C,1.600000*%
%ADD17C,1.720000*%
%ADD18C,2.200000*%
%ADD19R,1.700000X1.700000*%
%ADD20C,1.700000*%
%ADD21RoundRect,0.210000X-0.490000X-0.490000X0.490000X-0.490000X0.490000X0.490000X-0.490000X0.490000X0*%
%ADD22C,1.400000*%
%ADD23C,0.600000*%
%ADD24RoundRect,0.250000X0.700000X-0.700000X0.700000X0.700000X-0.700000X0.700000X-0.700000X-0.700000X0*%
%ADD25C,1.900000*%
%ADD26C,2.400000*%
%ADD27RoundRect,0.250000X-1.550000X0.650000X-1.550000X-0.650000X1.550000X-0.650000X1.550000X0.650000X0*%
%ADD28O,3.600000X1.800000*%
%ADD29C,3.200000*%
%ADD30RoundRect,0.250001X-0.499999X-0.499999X0.499999X-0.499999X0.499999X0.499999X-0.499999X0.499999X0*%
%ADD31C,1.500000*%
%ADD32R,1.000000X1.000000*%
%ADD33C,1.000000*%
%ADD34R,0.800000X0.500000*%
%ADD35R,0.800000X0.400000*%
%ADD36RoundRect,0.237500X-0.237500X0.250000X-0.237500X-0.250000X0.237500X-0.250000X0.237500X0.250000X0*%
%ADD37RoundRect,0.237500X0.250000X0.237500X-0.250000X0.237500X-0.250000X-0.237500X0.250000X-0.237500X0*%
%ADD38C,3.000000*%
%ADD39RoundRect,0.237500X0.237500X-0.300000X0.237500X0.300000X-0.237500X0.300000X-0.237500X-0.300000X0*%
%ADD40RoundRect,0.237500X-0.237500X0.300000X-0.237500X-0.300000X0.237500X-0.300000X0.237500X0.300000X0*%
G04 APERTURE END LIST*
D10*
G04 #@! TO.C,J8*
X200700000Y-94445000D03*
X200700000Y-104605000D03*
X210860000Y-94445000D03*
X210860000Y-104605000D03*
D11*
X204500000Y-99525000D03*
G04 #@! TD*
D12*
G04 #@! TO.C,U18*
X130800000Y-100200000D03*
D13*
X133340000Y-100200000D03*
X135880000Y-100200000D03*
G04 #@! TD*
D14*
G04 #@! TO.C,J2*
X79310000Y-64370000D03*
X79310000Y-52940000D03*
D15*
X88200000Y-63100000D03*
D16*
X85660000Y-61830000D03*
X88200000Y-60560000D03*
X85660000Y-59290000D03*
X88200000Y-58020000D03*
X85660000Y-56750000D03*
X88200000Y-55480000D03*
X85660000Y-54210000D03*
D17*
X93030000Y-64120000D03*
X93030000Y-61580000D03*
X93030000Y-55730000D03*
X93030000Y-53190000D03*
D18*
X82360000Y-66555000D03*
X82360000Y-50755000D03*
G04 #@! TD*
D19*
G04 #@! TO.C,J3*
X164500000Y-81100000D03*
D20*
X167040000Y-81100000D03*
G04 #@! TD*
D21*
G04 #@! TO.C,U15*
X102700000Y-123700000D03*
D22*
X105240000Y-123700000D03*
X112860000Y-123700000D03*
X115400000Y-123700000D03*
X117940000Y-123700000D03*
G04 #@! TD*
D23*
G04 #@! TO.C,U20*
X134300000Y-126850000D03*
X134300000Y-128350000D03*
X134800000Y-127600000D03*
X135300000Y-126850000D03*
X135300000Y-128350000D03*
G04 #@! TD*
D10*
G04 #@! TO.C,J7*
X200700000Y-75395000D03*
X200700000Y-85555000D03*
X210860000Y-75395000D03*
X210860000Y-85555000D03*
D11*
X204500000Y-80475000D03*
G04 #@! TD*
D24*
G04 #@! TO.C,U17*
X100200000Y-96100000D03*
D25*
X102740000Y-96100000D03*
X105280000Y-96100000D03*
X110360000Y-96100000D03*
X112900000Y-96100000D03*
X115440000Y-96100000D03*
X117980000Y-96100000D03*
G04 #@! TD*
D12*
G04 #@! TO.C,U24*
X104400000Y-76400000D03*
D13*
X106940000Y-76400000D03*
X109480000Y-76400000D03*
G04 #@! TD*
D23*
G04 #@! TO.C,U21*
X147900000Y-111650000D03*
X147900000Y-113150000D03*
X148400000Y-112400000D03*
X148900000Y-111650000D03*
X148900000Y-113150000D03*
G04 #@! TD*
D26*
G04 #@! TO.C,J6*
X75600000Y-113990000D03*
X75600000Y-126800000D03*
D27*
X76500000Y-118490000D03*
D28*
X76500000Y-122300000D03*
G04 #@! TD*
D19*
G04 #@! TO.C,J4*
X146900000Y-75100000D03*
D20*
X146900000Y-72560000D03*
G04 #@! TD*
D23*
G04 #@! TO.C,U19*
X134300000Y-111650000D03*
X134300000Y-113150000D03*
X134800000Y-112400000D03*
X135300000Y-111650000D03*
X135300000Y-113150000D03*
G04 #@! TD*
D29*
G04 #@! TO.C,H2*
X226000000Y-45000000D03*
G04 #@! TD*
D30*
G04 #@! TO.C,U16*
X100700000Y-109600000D03*
D31*
X103240000Y-109600000D03*
X105780000Y-109600000D03*
X110860000Y-109600000D03*
X113400000Y-109600000D03*
X115940000Y-109600000D03*
X118480000Y-109600000D03*
G04 #@! TD*
D32*
G04 #@! TO.C,J1*
X130200000Y-73800000D03*
D33*
X130200000Y-72530000D03*
X131470000Y-73800000D03*
X131470000Y-72530000D03*
X132740000Y-73800000D03*
X132740000Y-72530000D03*
X134010000Y-73800000D03*
X134010000Y-72530000D03*
X135280000Y-73800000D03*
X135280000Y-72530000D03*
G04 #@! TD*
D29*
G04 #@! TO.C,H1*
X74000000Y-45000000D03*
G04 #@! TD*
G04 #@! TO.C,H3*
X74000000Y-135000000D03*
G04 #@! TD*
G04 #@! TO.C,H4*
X226000000Y-135000000D03*
G04 #@! TD*
D34*
G04 #@! TO.C,RN2*
X108000000Y-59300000D03*
D35*
X108000000Y-58500000D03*
X108000000Y-57700000D03*
D34*
X108000000Y-56900000D03*
X109800000Y-56900000D03*
D35*
X109800000Y-57700000D03*
X109800000Y-58500000D03*
D34*
X109800000Y-59300000D03*
G04 #@! TD*
D36*
G04 #@! TO.C,R73*
X132300000Y-61687500D03*
X132300000Y-63512500D03*
G04 #@! TD*
D37*
G04 #@! TO.C,R69*
X128812500Y-57500000D03*
X126987500Y-57500000D03*
G04 #@! TD*
G04 #@! TO.C,R70*
X128812500Y-59200000D03*
X126987500Y-59200000D03*
G04 #@! TD*
G04 #@! TO.C,R71*
X128812500Y-52400000D03*
X126987500Y-52400000D03*
G04 #@! TD*
D38*
G04 #@! TO.C,FID4*
X208000000Y-47000000D03*
G04 #@! TD*
G04 #@! TO.C,FID2*
X104500000Y-135200000D03*
G04 #@! TD*
D36*
G04 #@! TO.C,R75*
X134900000Y-61687500D03*
X134900000Y-63512500D03*
G04 #@! TD*
G04 #@! TO.C,R74*
X138100000Y-64587500D03*
X138100000Y-66412500D03*
G04 #@! TD*
D34*
G04 #@! TO.C,RN3*
X83000000Y-58300000D03*
D35*
X83000000Y-59100000D03*
X83000000Y-59900000D03*
D34*
X83000000Y-60700000D03*
X81200000Y-60700000D03*
D35*
X81200000Y-59900000D03*
X81200000Y-59100000D03*
D34*
X81200000Y-58300000D03*
G04 #@! TD*
D38*
G04 #@! TO.C,FID6*
X226000000Y-127000000D03*
G04 #@! TD*
D39*
G04 #@! TO.C,C26*
X90500000Y-56362500D03*
X90500000Y-54637500D03*
G04 #@! TD*
D37*
G04 #@! TO.C,R68*
X128812500Y-55800000D03*
X126987500Y-55800000D03*
G04 #@! TD*
G04 #@! TO.C,R72*
X128812500Y-54100000D03*
X126987500Y-54100000D03*
G04 #@! TD*
D40*
G04 #@! TO.C,C25*
X85700000Y-64337500D03*
X85700000Y-66062500D03*
G04 #@! TD*
D37*
G04 #@! TO.C,R5*
X109812500Y-60800000D03*
X107987500Y-60800000D03*
G04 #@! TD*
M02*
