G04 #@! TF.GenerationSoftware,KiCad,Pcbnew,10.0.6*
G04 #@! TF.CreationDate,2026-09-30T18:29:53+02:00*
G04 #@! TF.ProjectId,ETH1CVOLT,45544831-4356-44f4-9c54-2e6b69636164,rev?*
G04 #@! TF.SameCoordinates,Original*
G04 #@! TF.FileFunction,Paste,Top*
G04 #@! TF.FilePolarity,Positive*
%FSLAX46Y46*%
G04 Gerber Fmt 4.6, Leading zero omitted, Abs format (unit mm)*
G04 Created by KiCad (PCBNEW 10.0.6) date 2026-09-30 18:29:53*
%MOMM*%
%LPD*%
G01*
G04 APERTURE LIST*
G04 Aperture macros list*
%AMRoundRect*
0 Rectangle with rounded corners*
0 $1 Rounding radius*
0 $2 $3 $4 $5 $6 $7 $8 $9 X,Y pos of 4 corners*
0 Add a 4 corners polygon primitive as box body*
4,1,4,$2,$3,$4,$5,$6,$7,$8,$9,$2,$3,0*
0 Add four circle primitives for the rounded corners*
1,1,$1+$1,$2,$3*
1,1,$1+$1,$4,$5*
1,1,$1+$1,$6,$7*
1,1,$1+$1,$8,$9*
0 Add four rect primitives between the rounded corners*
20,1,$1+$1,$2,$3,$4,$5,0*
20,1,$1+$1,$4,$5,$6,$7,0*
20,1,$1+$1,$6,$7,$8,$9,0*
20,1,$1+$1,$8,$9,$2,$3,0*%
G04 Aperture macros list end*
%ADD10RoundRect,0.250000X0.650000X-0.412500X0.650000X0.412500X-0.650000X0.412500X-0.650000X-0.412500X0*%
%ADD11RoundRect,0.237500X-0.237500X0.250000X-0.237500X-0.250000X0.237500X-0.250000X0.237500X0.250000X0*%
%ADD12RoundRect,0.150000X-0.587500X-0.150000X0.587500X-0.150000X0.587500X0.150000X-0.587500X0.150000X0*%
%ADD13RoundRect,0.237500X0.237500X-0.250000X0.237500X0.250000X-0.237500X0.250000X-0.237500X-0.250000X0*%
%ADD14RoundRect,0.250000X0.412500X0.650000X-0.412500X0.650000X-0.412500X-0.650000X0.412500X-0.650000X0*%
%ADD15RoundRect,0.237500X-0.250000X-0.237500X0.250000X-0.237500X0.250000X0.237500X-0.250000X0.237500X0*%
%ADD16RoundRect,0.150000X-0.650000X-0.150000X0.650000X-0.150000X0.650000X0.150000X-0.650000X0.150000X0*%
%ADD17RoundRect,0.250000X-0.650000X0.412500X-0.650000X-0.412500X0.650000X-0.412500X0.650000X0.412500X0*%
%ADD18RoundRect,0.225000X0.225000X0.375000X-0.225000X0.375000X-0.225000X-0.375000X0.225000X-0.375000X0*%
%ADD19RoundRect,0.237500X0.300000X0.237500X-0.300000X0.237500X-0.300000X-0.237500X0.300000X-0.237500X0*%
%ADD20RoundRect,0.150000X0.587500X0.150000X-0.587500X0.150000X-0.587500X-0.150000X0.587500X-0.150000X0*%
%ADD21RoundRect,0.237500X-0.300000X-0.237500X0.300000X-0.237500X0.300000X0.237500X-0.300000X0.237500X0*%
%ADD22RoundRect,0.255000X-0.595000X-2.545000X0.595000X-2.545000X0.595000X2.545000X-0.595000X2.545000X0*%
%ADD23RoundRect,0.237500X0.237500X-0.300000X0.237500X0.300000X-0.237500X0.300000X-0.237500X-0.300000X0*%
%ADD24R,0.230000X0.230000*%
%ADD25O,0.800000X0.230000*%
%ADD26RoundRect,0.170000X-0.170000X-0.355000X0.170000X-0.355000X0.170000X0.355000X-0.170000X0.355000X0*%
%ADD27R,0.260000X0.500000*%
%ADD28RoundRect,0.237500X0.250000X0.237500X-0.250000X0.237500X-0.250000X-0.237500X0.250000X-0.237500X0*%
%ADD29RoundRect,0.150000X0.825000X0.150000X-0.825000X0.150000X-0.825000X-0.150000X0.825000X-0.150000X0*%
%ADD30RoundRect,0.250000X-0.412500X-0.650000X0.412500X-0.650000X0.412500X0.650000X-0.412500X0.650000X0*%
%ADD31RoundRect,0.150000X-0.150000X0.587500X-0.150000X-0.587500X0.150000X-0.587500X0.150000X0.587500X0*%
%ADD32RoundRect,0.150000X0.650000X0.150000X-0.650000X0.150000X-0.650000X-0.150000X0.650000X-0.150000X0*%
%ADD33RoundRect,0.125000X-0.125000X0.687500X-0.125000X-0.687500X0.125000X-0.687500X0.125000X0.687500X0*%
%ADD34RoundRect,0.375000X0.375000X-0.375000X0.375000X0.375000X-0.375000X0.375000X-0.375000X-0.375000X0*%
%ADD35RoundRect,0.125000X0.125000X-0.250000X0.125000X0.250000X-0.125000X0.250000X-0.125000X-0.250000X0*%
%ADD36RoundRect,0.075000X0.125000X-0.300000X0.125000X0.300000X-0.125000X0.300000X-0.125000X-0.300000X0*%
%ADD37RoundRect,0.150000X-0.825000X-0.150000X0.825000X-0.150000X0.825000X0.150000X-0.825000X0.150000X0*%
%ADD38RoundRect,0.250000X0.337500X0.475000X-0.337500X0.475000X-0.337500X-0.475000X0.337500X-0.475000X0*%
%ADD39RoundRect,0.232500X0.232500X-0.232500X0.232500X0.232500X-0.232500X0.232500X-0.232500X-0.232500X0*%
%ADD40RoundRect,0.062500X0.062500X-0.375000X0.062500X0.375000X-0.062500X0.375000X-0.062500X-0.375000X0*%
%ADD41RoundRect,0.062500X0.375000X-0.062500X0.375000X0.062500X-0.375000X0.062500X-0.375000X-0.062500X0*%
%ADD42RoundRect,0.225000X-0.375000X0.225000X-0.375000X-0.225000X0.375000X-0.225000X0.375000X0.225000X0*%
%ADD43R,0.900000X1.000000*%
%ADD44R,0.800000X0.400000*%
%ADD45RoundRect,0.230000X-0.230000X-0.375000X0.230000X-0.375000X0.230000X0.375000X-0.230000X0.375000X0*%
%ADD46R,0.800000X0.500000*%
%ADD47RoundRect,0.300000X-0.700000X-1.450000X0.700000X-1.450000X0.700000X1.450000X-0.700000X1.450000X0*%
%ADD48RoundRect,0.237500X-0.237500X0.300000X-0.237500X-0.300000X0.237500X-0.300000X0.237500X0.300000X0*%
%ADD49R,2.000000X2.400000*%
%ADD50RoundRect,0.100000X-0.725000X-0.100000X0.725000X-0.100000X0.725000X0.100000X-0.725000X0.100000X0*%
%ADD51RoundRect,0.250000X0.450000X-0.350000X0.450000X0.350000X-0.450000X0.350000X-0.450000X-0.350000X0*%
%ADD52RoundRect,0.250000X-0.275000X-0.350000X0.275000X-0.350000X0.275000X0.350000X-0.275000X0.350000X0*%
%ADD53RoundRect,0.250000X-1.000000X-0.650000X1.000000X-0.650000X1.000000X0.650000X-1.000000X0.650000X0*%
%ADD54RoundRect,0.075000X-0.075000X0.725000X-0.075000X-0.725000X0.075000X-0.725000X0.075000X0.725000X0*%
%ADD55RoundRect,0.075000X-0.725000X0.075000X-0.725000X-0.075000X0.725000X-0.075000X0.725000X0.075000X0*%
%ADD56RoundRect,0.250000X0.275000X0.350000X-0.275000X0.350000X-0.275000X-0.350000X0.275000X-0.350000X0*%
%ADD57R,1.100000X0.400000*%
%ADD58RoundRect,0.100000X-0.712500X-0.100000X0.712500X-0.100000X0.712500X0.100000X-0.712500X0.100000X0*%
%ADD59RoundRect,0.100000X0.100000X-0.637500X0.100000X0.637500X-0.100000X0.637500X-0.100000X-0.637500X0*%
%ADD60RoundRect,0.150000X0.150000X-0.825000X0.150000X0.825000X-0.150000X0.825000X-0.150000X-0.825000X0*%
%ADD61R,2.200000X1.000000*%
G04 APERTURE END LIST*
D10*
G04 #@! TO.C,C105*
X98000000Y-74762500D03*
X98000000Y-71637500D03*
G04 #@! TD*
D11*
G04 #@! TO.C,R14*
X167300000Y-58787500D03*
X167300000Y-60612500D03*
G04 #@! TD*
D10*
G04 #@! TO.C,C72*
X127100000Y-126062500D03*
X127100000Y-122937500D03*
G04 #@! TD*
D12*
G04 #@! TO.C,Q3*
X186862500Y-52950000D03*
X186862500Y-54850000D03*
X188737500Y-53900000D03*
G04 #@! TD*
D13*
G04 #@! TO.C,R55*
X191600000Y-79112500D03*
X191600000Y-77287500D03*
G04 #@! TD*
D14*
G04 #@! TO.C,C96*
X154562500Y-115800000D03*
X151437500Y-115800000D03*
G04 #@! TD*
D15*
G04 #@! TO.C,R38*
X138487500Y-113300000D03*
X140312500Y-113300000D03*
G04 #@! TD*
D16*
G04 #@! TO.C,U27*
X187550000Y-47750000D03*
X187550000Y-48700000D03*
X187550000Y-49650000D03*
X189850000Y-49650000D03*
X189850000Y-47750000D03*
G04 #@! TD*
D15*
G04 #@! TO.C,R21*
X157687500Y-65900000D03*
X159512500Y-65900000D03*
G04 #@! TD*
D17*
G04 #@! TO.C,C69*
X127100000Y-108237500D03*
X127100000Y-111362500D03*
G04 #@! TD*
D10*
G04 #@! TO.C,C76*
X123100000Y-98712500D03*
X123100000Y-95587500D03*
G04 #@! TD*
D18*
G04 #@! TO.C,D8*
X193950000Y-53900000D03*
X190650000Y-53900000D03*
G04 #@! TD*
D19*
G04 #@! TO.C,C32*
X168462500Y-49000000D03*
X166737500Y-49000000D03*
G04 #@! TD*
D20*
G04 #@! TO.C,D3*
X180837500Y-66250000D03*
X180837500Y-64350000D03*
X178962500Y-65300000D03*
G04 #@! TD*
D21*
G04 #@! TO.C,C7*
X129137500Y-50300000D03*
X130862500Y-50300000D03*
G04 #@! TD*
G04 #@! TO.C,C5*
X125737500Y-50300000D03*
X127462500Y-50300000D03*
G04 #@! TD*
D22*
G04 #@! TO.C,L3*
X87350000Y-97100000D03*
X91250000Y-97100000D03*
G04 #@! TD*
D17*
G04 #@! TO.C,C74*
X123800000Y-108237500D03*
X123800000Y-111362500D03*
G04 #@! TD*
D14*
G04 #@! TO.C,C80*
X140962500Y-118400000D03*
X137837500Y-118400000D03*
G04 #@! TD*
D23*
G04 #@! TO.C,C8*
X137700000Y-70862500D03*
X137700000Y-69137500D03*
G04 #@! TD*
D13*
G04 #@! TO.C,R54*
X123800000Y-89412500D03*
X123800000Y-87587500D03*
G04 #@! TD*
D24*
G04 #@! TO.C,U20*
X133040000Y-126600000D03*
D25*
X133325000Y-126600000D03*
D24*
X133040000Y-127100000D03*
D25*
X133325000Y-127100000D03*
D24*
X133040000Y-127600000D03*
D25*
X133325000Y-127600000D03*
D24*
X133040000Y-128100000D03*
D25*
X133325000Y-128100000D03*
D24*
X133040000Y-128600000D03*
D25*
X133325000Y-128600000D03*
X136275000Y-128600000D03*
D24*
X136560000Y-128600000D03*
D25*
X136275000Y-128100000D03*
D24*
X136560000Y-128100000D03*
D25*
X136275000Y-127600000D03*
D24*
X136560000Y-127600000D03*
D25*
X136275000Y-127100000D03*
D24*
X136560000Y-127100000D03*
D25*
X136275000Y-126600000D03*
D24*
X136560000Y-126600000D03*
D26*
X134350000Y-126965000D03*
X134350000Y-128235000D03*
D27*
X134550000Y-125970000D03*
X134550000Y-129230000D03*
X135050000Y-125970000D03*
X135050000Y-129230000D03*
D26*
X135250000Y-126965000D03*
X135250000Y-128235000D03*
G04 #@! TD*
D21*
G04 #@! TO.C,C28*
X156337500Y-58600000D03*
X158062500Y-58600000D03*
G04 #@! TD*
D22*
G04 #@! TO.C,L2*
X87350000Y-111800000D03*
X91250000Y-111800000D03*
G04 #@! TD*
D28*
G04 #@! TO.C,R17*
X154712500Y-58600000D03*
X152887500Y-58600000D03*
G04 #@! TD*
D29*
G04 #@! TO.C,U8*
X159175000Y-79305000D03*
X159175000Y-78035000D03*
X159175000Y-76765000D03*
X159175000Y-75495000D03*
X154225000Y-75495000D03*
X154225000Y-76765000D03*
X154225000Y-78035000D03*
X154225000Y-79305000D03*
G04 #@! TD*
D15*
G04 #@! TO.C,R30*
X169287500Y-76700000D03*
X171112500Y-76700000D03*
G04 #@! TD*
D19*
G04 #@! TO.C,C111*
X186262500Y-86500000D03*
X184537500Y-86500000D03*
G04 #@! TD*
D15*
G04 #@! TO.C,R37*
X138487500Y-111500000D03*
X140312500Y-111500000D03*
G04 #@! TD*
D30*
G04 #@! TO.C,C99*
X151437500Y-109100000D03*
X154562500Y-109100000D03*
G04 #@! TD*
D14*
G04 #@! TO.C,C98*
X140978500Y-131000000D03*
X137853500Y-131000000D03*
G04 #@! TD*
D21*
G04 #@! TO.C,C42*
X150037500Y-76000000D03*
X151762500Y-76000000D03*
G04 #@! TD*
G04 #@! TO.C,C107*
X199137500Y-64400000D03*
X200862500Y-64400000D03*
G04 #@! TD*
D28*
G04 #@! TO.C,R25*
X163612500Y-63900000D03*
X161787500Y-63900000D03*
G04 #@! TD*
D15*
G04 #@! TO.C,R7*
X95687500Y-53200000D03*
X97512500Y-53200000D03*
G04 #@! TD*
D30*
G04 #@! TO.C,C102*
X125637500Y-84000000D03*
X128762500Y-84000000D03*
G04 #@! TD*
D18*
G04 #@! TO.C,D9*
X194650000Y-74600000D03*
X191350000Y-74600000D03*
G04 #@! TD*
D28*
G04 #@! TO.C,R51*
X149612500Y-109100000D03*
X147787500Y-109100000D03*
G04 #@! TD*
D31*
G04 #@! TO.C,D4*
X182250000Y-70262500D03*
X180350000Y-70262500D03*
X181300000Y-72137500D03*
G04 #@! TD*
D15*
G04 #@! TO.C,R15*
X157187500Y-53900000D03*
X159012500Y-53900000D03*
G04 #@! TD*
D17*
G04 #@! TO.C,C61*
X97600000Y-124937500D03*
X97600000Y-128062500D03*
G04 #@! TD*
D11*
G04 #@! TO.C,R18*
X161600000Y-77287500D03*
X161600000Y-79112500D03*
G04 #@! TD*
D28*
G04 #@! TO.C,R34*
X89812500Y-129900000D03*
X87987500Y-129900000D03*
G04 #@! TD*
D19*
G04 #@! TO.C,C46*
X167262500Y-63900000D03*
X165537500Y-63900000D03*
G04 #@! TD*
D32*
G04 #@! TO.C,U26*
X189550000Y-79150000D03*
X189550000Y-78200000D03*
X189550000Y-77250000D03*
X187250000Y-77250000D03*
X187250000Y-79150000D03*
G04 #@! TD*
D33*
G04 #@! TO.C,U4*
X176475000Y-51587500D03*
X175825000Y-51587500D03*
X175175000Y-51587500D03*
X174525000Y-51587500D03*
X174525000Y-55812500D03*
X175175000Y-55812500D03*
X175825000Y-55812500D03*
X176475000Y-55812500D03*
G04 #@! TD*
D13*
G04 #@! TO.C,R53*
X137600000Y-89412500D03*
X137600000Y-87587500D03*
G04 #@! TD*
D15*
G04 #@! TO.C,R64*
X182787500Y-84700000D03*
X184612500Y-84700000D03*
G04 #@! TD*
D10*
G04 #@! TO.C,C70*
X127100000Y-118062500D03*
X127100000Y-114937500D03*
G04 #@! TD*
D23*
G04 #@! TO.C,C52*
X177000000Y-64662500D03*
X177000000Y-62937500D03*
G04 #@! TD*
D19*
G04 #@! TO.C,C35*
X152162500Y-79200000D03*
X150437500Y-79200000D03*
G04 #@! TD*
D34*
G04 #@! TO.C,Q1*
X82250000Y-125100000D03*
X83950000Y-125100000D03*
X82250000Y-123400000D03*
X83950000Y-123400000D03*
D35*
X81195000Y-121995000D03*
X82465000Y-121995000D03*
X83735000Y-121995000D03*
X85005000Y-121995000D03*
D36*
X81195000Y-127800000D03*
X82465000Y-127800000D03*
X83735000Y-127800000D03*
X85005000Y-127800000D03*
G04 #@! TD*
D19*
G04 #@! TO.C,C9*
X123862500Y-48400000D03*
X122137500Y-48400000D03*
G04 #@! TD*
D37*
G04 #@! TO.C,U14*
X169725000Y-71195000D03*
X169725000Y-72465000D03*
X169725000Y-73735000D03*
X169725000Y-75005000D03*
X174675000Y-75005000D03*
X174675000Y-73735000D03*
X174675000Y-72465000D03*
X174675000Y-71195000D03*
G04 #@! TD*
D13*
G04 #@! TO.C,R29*
X177000000Y-68112500D03*
X177000000Y-66287500D03*
G04 #@! TD*
D24*
G04 #@! TO.C,U21*
X146640000Y-111400000D03*
D25*
X146925000Y-111400000D03*
D24*
X146640000Y-111900000D03*
D25*
X146925000Y-111900000D03*
D24*
X146640000Y-112400000D03*
D25*
X146925000Y-112400000D03*
D24*
X146640000Y-112900000D03*
D25*
X146925000Y-112900000D03*
D24*
X146640000Y-113400000D03*
D25*
X146925000Y-113400000D03*
X149875000Y-113400000D03*
D24*
X150160000Y-113400000D03*
D25*
X149875000Y-112900000D03*
D24*
X150160000Y-112900000D03*
D25*
X149875000Y-112400000D03*
D24*
X150160000Y-112400000D03*
D25*
X149875000Y-111900000D03*
D24*
X150160000Y-111900000D03*
D25*
X149875000Y-111400000D03*
D24*
X150160000Y-111400000D03*
D26*
X147950000Y-111765000D03*
X147950000Y-113035000D03*
D27*
X148150000Y-110770000D03*
X148150000Y-114030000D03*
X148650000Y-110770000D03*
X148650000Y-114030000D03*
D26*
X148850000Y-111765000D03*
X148850000Y-113035000D03*
G04 #@! TD*
D21*
G04 #@! TO.C,C16*
X104037500Y-64400000D03*
X105762500Y-64400000D03*
G04 #@! TD*
D23*
G04 #@! TO.C,C109*
X185400000Y-79062500D03*
X185400000Y-77337500D03*
G04 #@! TD*
D19*
G04 #@! TO.C,C1*
X114862500Y-54700000D03*
X113137500Y-54700000D03*
G04 #@! TD*
D28*
G04 #@! TO.C,R63*
X152212500Y-60900000D03*
X150387500Y-60900000D03*
G04 #@! TD*
D21*
G04 #@! TO.C,C41*
X166537500Y-89600000D03*
X168262500Y-89600000D03*
G04 #@! TD*
D13*
G04 #@! TO.C,R57*
X208000000Y-63112500D03*
X208000000Y-61287500D03*
G04 #@! TD*
D31*
G04 #@! TO.C,D1*
X176150000Y-47562500D03*
X174250000Y-47562500D03*
X175200000Y-49437500D03*
G04 #@! TD*
D15*
G04 #@! TO.C,R31*
X169287500Y-78400000D03*
X171112500Y-78400000D03*
G04 #@! TD*
D28*
G04 #@! TO.C,R52*
X146012500Y-109100000D03*
X144187500Y-109100000D03*
G04 #@! TD*
D38*
G04 #@! TO.C,C11*
X120337500Y-48100000D03*
X118262500Y-48100000D03*
G04 #@! TD*
D15*
G04 #@! TO.C,R9*
X95687500Y-55000000D03*
X97512500Y-55000000D03*
G04 #@! TD*
D39*
G04 #@! TO.C,U3*
X101975000Y-59425000D03*
X103225000Y-59425000D03*
X101975000Y-58175000D03*
X103225000Y-58175000D03*
D40*
X101350000Y-60737500D03*
X101850000Y-60737500D03*
X102350000Y-60737500D03*
X102850000Y-60737500D03*
X103350000Y-60737500D03*
X103850000Y-60737500D03*
D41*
X104537500Y-60050000D03*
X104537500Y-59550000D03*
X104537500Y-59050000D03*
X104537500Y-58550000D03*
X104537500Y-58050000D03*
X104537500Y-57550000D03*
D40*
X103850000Y-56862500D03*
X103350000Y-56862500D03*
X102850000Y-56862500D03*
X102350000Y-56862500D03*
X101850000Y-56862500D03*
X101350000Y-56862500D03*
D41*
X100662500Y-57550000D03*
X100662500Y-58050000D03*
X100662500Y-58550000D03*
X100662500Y-59050000D03*
X100662500Y-59550000D03*
X100662500Y-60050000D03*
G04 #@! TD*
D21*
G04 #@! TO.C,C20*
X108037500Y-61000000D03*
X109762500Y-61000000D03*
G04 #@! TD*
D11*
G04 #@! TO.C,R13*
X172900000Y-50887500D03*
X172900000Y-52712500D03*
G04 #@! TD*
D23*
G04 #@! TO.C,C14*
X126900000Y-74462500D03*
X126900000Y-72737500D03*
G04 #@! TD*
D30*
G04 #@! TO.C,C93*
X139637500Y-86600000D03*
X142762500Y-86600000D03*
G04 #@! TD*
D24*
G04 #@! TO.C,U19*
X133040000Y-111400000D03*
D25*
X133325000Y-111400000D03*
D24*
X133040000Y-111900000D03*
D25*
X133325000Y-111900000D03*
D24*
X133040000Y-112400000D03*
D25*
X133325000Y-112400000D03*
D24*
X133040000Y-112900000D03*
D25*
X133325000Y-112900000D03*
D24*
X133040000Y-113400000D03*
D25*
X133325000Y-113400000D03*
X136275000Y-113400000D03*
D24*
X136560000Y-113400000D03*
D25*
X136275000Y-112900000D03*
D24*
X136560000Y-112900000D03*
D25*
X136275000Y-112400000D03*
D24*
X136560000Y-112400000D03*
D25*
X136275000Y-111900000D03*
D24*
X136560000Y-111900000D03*
D25*
X136275000Y-111400000D03*
D24*
X136560000Y-111400000D03*
D26*
X134350000Y-111765000D03*
X134350000Y-113035000D03*
D27*
X134550000Y-110770000D03*
X134550000Y-114030000D03*
X135050000Y-110770000D03*
X135050000Y-114030000D03*
D26*
X135250000Y-111765000D03*
X135250000Y-113035000D03*
G04 #@! TD*
D21*
G04 #@! TO.C,C4*
X133337500Y-52700000D03*
X135062500Y-52700000D03*
G04 #@! TD*
D30*
G04 #@! TO.C,C79*
X137837500Y-109100000D03*
X140962500Y-109100000D03*
G04 #@! TD*
D21*
G04 #@! TO.C,C12*
X130137500Y-69800000D03*
X131862500Y-69800000D03*
G04 #@! TD*
D15*
G04 #@! TO.C,R8*
X97287500Y-60700000D03*
X99112500Y-60700000D03*
G04 #@! TD*
G04 #@! TO.C,R48*
X130287500Y-122700000D03*
X132112500Y-122700000D03*
G04 #@! TD*
D23*
G04 #@! TO.C,C49*
X138100000Y-52062500D03*
X138100000Y-50337500D03*
G04 #@! TD*
D28*
G04 #@! TO.C,R43*
X135712500Y-124400000D03*
X133887500Y-124400000D03*
G04 #@! TD*
D13*
G04 #@! TO.C,R27*
X161300000Y-72612500D03*
X161300000Y-70787500D03*
G04 #@! TD*
G04 #@! TO.C,R56*
X185400000Y-75512500D03*
X185400000Y-73687500D03*
G04 #@! TD*
D42*
G04 #@! TO.C,D7*
X73900000Y-100350000D03*
X73900000Y-103650000D03*
G04 #@! TD*
D23*
G04 #@! TO.C,C24*
X100700000Y-49562500D03*
X100700000Y-47837500D03*
G04 #@! TD*
D43*
G04 #@! TO.C,D6*
X73801778Y-98400000D03*
X73801778Y-95400000D03*
D44*
X74251778Y-96500000D03*
X74251778Y-97300000D03*
G04 #@! TD*
D19*
G04 #@! TO.C,C86*
X144862500Y-113300000D03*
X143137500Y-113300000D03*
G04 #@! TD*
D30*
G04 #@! TO.C,C39*
X164637500Y-98700000D03*
X167762500Y-98700000D03*
G04 #@! TD*
D10*
G04 #@! TO.C,C56*
X81000000Y-110362500D03*
X81000000Y-107237500D03*
G04 #@! TD*
G04 #@! TO.C,C64*
X97600000Y-122462500D03*
X97600000Y-119337500D03*
G04 #@! TD*
D15*
G04 #@! TO.C,R23*
X157887500Y-69400000D03*
X159712500Y-69400000D03*
G04 #@! TD*
D23*
G04 #@! TO.C,C21*
X99200000Y-57262500D03*
X99200000Y-55537500D03*
G04 #@! TD*
D22*
G04 #@! TO.C,L4*
X90350000Y-76000000D03*
X94250000Y-76000000D03*
G04 #@! TD*
D28*
G04 #@! TO.C,R12*
X178112500Y-59300000D03*
X176287500Y-59300000D03*
G04 #@! TD*
D21*
G04 #@! TO.C,C38*
X166537500Y-96600000D03*
X168262500Y-96600000D03*
G04 #@! TD*
D45*
G04 #@! TO.C,U22*
X141830000Y-89850000D03*
X141830000Y-91350000D03*
X142970000Y-89850000D03*
X142970000Y-91350000D03*
D37*
X139925000Y-88695000D03*
X139925000Y-89965000D03*
X139925000Y-91235000D03*
X139925000Y-92505000D03*
X144875000Y-92505000D03*
X144875000Y-91235000D03*
X144875000Y-89965000D03*
X144875000Y-88695000D03*
G04 #@! TD*
D10*
G04 #@! TO.C,C87*
X145500000Y-86862500D03*
X145500000Y-83737500D03*
G04 #@! TD*
D15*
G04 #@! TO.C,R10*
X95687500Y-64600000D03*
X97512500Y-64600000D03*
G04 #@! TD*
D11*
G04 #@! TO.C,R67*
X171500000Y-58387500D03*
X171500000Y-60212500D03*
G04 #@! TD*
D23*
G04 #@! TO.C,C48*
X138100000Y-61962500D03*
X138100000Y-60237500D03*
G04 #@! TD*
D17*
G04 #@! TO.C,C65*
X95000000Y-113337500D03*
X95000000Y-116462500D03*
G04 #@! TD*
D21*
G04 #@! TO.C,C22*
X108037500Y-62500000D03*
X109762500Y-62500000D03*
G04 #@! TD*
D28*
G04 #@! TO.C,R6*
X109812500Y-55400000D03*
X107987500Y-55400000D03*
G04 #@! TD*
D46*
G04 #@! TO.C,RN1*
X109800000Y-59300000D03*
D44*
X109800000Y-58500000D03*
X109800000Y-57700000D03*
D46*
X109800000Y-56900000D03*
X108000000Y-56900000D03*
D44*
X108000000Y-57700000D03*
X108000000Y-58500000D03*
D46*
X108000000Y-59300000D03*
G04 #@! TD*
D10*
G04 #@! TO.C,C84*
X148100000Y-86862500D03*
X148100000Y-83737500D03*
G04 #@! TD*
D21*
G04 #@! TO.C,C6*
X125737500Y-48400000D03*
X127462500Y-48400000D03*
G04 #@! TD*
D30*
G04 #@! TO.C,C95*
X151437500Y-106500000D03*
X154562500Y-106500000D03*
G04 #@! TD*
D11*
G04 #@! TO.C,R60*
X185700000Y-47787500D03*
X185700000Y-49612500D03*
G04 #@! TD*
D10*
G04 #@! TO.C,C78*
X141900000Y-100162500D03*
X141900000Y-97037500D03*
G04 #@! TD*
D19*
G04 #@! TO.C,C112*
X179962500Y-48500000D03*
X178237500Y-48500000D03*
G04 #@! TD*
D47*
G04 #@! TO.C,L1*
X91450000Y-123700000D03*
X94150000Y-123700000D03*
G04 #@! TD*
D10*
G04 #@! TO.C,C68*
X127100000Y-134262500D03*
X127100000Y-131137500D03*
G04 #@! TD*
D48*
G04 #@! TO.C,C113*
X182400000Y-57837500D03*
X182400000Y-59562500D03*
G04 #@! TD*
D21*
G04 #@! TO.C,C31*
X176337500Y-57700000D03*
X178062500Y-57700000D03*
G04 #@! TD*
D15*
G04 #@! TO.C,R22*
X165487500Y-62200000D03*
X167312500Y-62200000D03*
G04 #@! TD*
D49*
G04 #@! TO.C,Y1*
X126800000Y-45500000D03*
X122800000Y-45500000D03*
G04 #@! TD*
D30*
G04 #@! TO.C,C29*
X154737500Y-60600000D03*
X157862500Y-60600000D03*
G04 #@! TD*
D15*
G04 #@! TO.C,R65*
X182787500Y-83100000D03*
X184612500Y-83100000D03*
G04 #@! TD*
D21*
G04 #@! TO.C,C90*
X133137500Y-91200000D03*
X134862500Y-91200000D03*
G04 #@! TD*
D10*
G04 #@! TO.C,C103*
X86600000Y-74762500D03*
X86600000Y-71637500D03*
G04 #@! TD*
D30*
G04 #@! TO.C,C91*
X137837500Y-124200000D03*
X140962500Y-124200000D03*
G04 #@! TD*
D37*
G04 #@! TO.C,U13*
X169925000Y-63095000D03*
X169925000Y-64365000D03*
X169925000Y-65635000D03*
X169925000Y-66905000D03*
X174875000Y-66905000D03*
X174875000Y-65635000D03*
X174875000Y-64365000D03*
X174875000Y-63095000D03*
G04 #@! TD*
D50*
G04 #@! TO.C,U11*
X138075000Y-53377500D03*
X138075000Y-54012500D03*
X138075000Y-54647500D03*
X138075000Y-55282500D03*
X138075000Y-55917500D03*
X138075000Y-56552500D03*
X138075000Y-57187500D03*
X138075000Y-57822500D03*
X143325000Y-57822500D03*
X143325000Y-57187500D03*
X143325000Y-56552500D03*
X143325000Y-55917500D03*
X143325000Y-55282500D03*
X143325000Y-54647500D03*
X143325000Y-54012500D03*
X143325000Y-53377500D03*
G04 #@! TD*
D14*
G04 #@! TO.C,C92*
X140962500Y-133600000D03*
X137837500Y-133600000D03*
G04 #@! TD*
D37*
G04 #@! TO.C,U10*
X161825000Y-65495000D03*
X161825000Y-66765000D03*
X161825000Y-68035000D03*
X161825000Y-69305000D03*
X166775000Y-69305000D03*
X166775000Y-68035000D03*
X166775000Y-66765000D03*
X166775000Y-65495000D03*
G04 #@! TD*
D10*
G04 #@! TO.C,C106*
X115900000Y-74662500D03*
X115900000Y-71537500D03*
G04 #@! TD*
D14*
G04 #@! TO.C,C100*
X154562500Y-118400000D03*
X151437500Y-118400000D03*
G04 #@! TD*
D13*
G04 #@! TO.C,R40*
X133600000Y-107362500D03*
X133600000Y-105537500D03*
G04 #@! TD*
D15*
G04 #@! TO.C,R3*
X120087500Y-70900000D03*
X121912500Y-70900000D03*
G04 #@! TD*
D19*
G04 #@! TO.C,C37*
X164662500Y-96600000D03*
X162937500Y-96600000D03*
G04 #@! TD*
D37*
G04 #@! TO.C,U7*
X163125000Y-91195000D03*
X163125000Y-92465000D03*
X163125000Y-93735000D03*
X163125000Y-95005000D03*
X168075000Y-95005000D03*
X168075000Y-93735000D03*
X168075000Y-92465000D03*
X168075000Y-91195000D03*
G04 #@! TD*
D21*
G04 #@! TO.C,C89*
X146937500Y-91200000D03*
X148662500Y-91200000D03*
G04 #@! TD*
D13*
G04 #@! TO.C,R58*
X206300000Y-63112500D03*
X206300000Y-61287500D03*
G04 #@! TD*
D10*
G04 #@! TO.C,C66*
X95000000Y-95862500D03*
X95000000Y-92737500D03*
G04 #@! TD*
D15*
G04 #@! TO.C,R2*
X133187500Y-48400000D03*
X135012500Y-48400000D03*
G04 #@! TD*
D30*
G04 #@! TO.C,C34*
X156837500Y-51300000D03*
X159962500Y-51300000D03*
G04 #@! TD*
D15*
G04 #@! TO.C,R42*
X138487500Y-128500000D03*
X140312500Y-128500000D03*
G04 #@! TD*
D51*
G04 #@! TO.C,R36*
X76700000Y-99500000D03*
X76700000Y-97500000D03*
G04 #@! TD*
D15*
G04 #@! TO.C,R47*
X152087500Y-113300000D03*
X153912500Y-113300000D03*
G04 #@! TD*
D48*
G04 #@! TO.C,C110*
X191800000Y-47837500D03*
X191800000Y-49562500D03*
G04 #@! TD*
D12*
G04 #@! TO.C,Q2*
X187662500Y-73650000D03*
X187662500Y-75550000D03*
X189537500Y-74600000D03*
G04 #@! TD*
D52*
G04 #@! TO.C,FB2*
X102350000Y-51600000D03*
X104650000Y-51600000D03*
G04 #@! TD*
D10*
G04 #@! TO.C,C88*
X131700000Y-86862500D03*
X131700000Y-83737500D03*
G04 #@! TD*
D28*
G04 #@! TO.C,R16*
X151312500Y-58600000D03*
X149487500Y-58600000D03*
G04 #@! TD*
D21*
G04 #@! TO.C,C45*
X157737500Y-64200000D03*
X159462500Y-64200000D03*
G04 #@! TD*
D30*
G04 #@! TO.C,C97*
X137837500Y-121600000D03*
X140962500Y-121600000D03*
G04 #@! TD*
D23*
G04 #@! TO.C,C51*
X143300000Y-61962500D03*
X143300000Y-60237500D03*
G04 #@! TD*
D53*
G04 #@! TO.C,D10*
X205000000Y-68300000D03*
X209000000Y-68300000D03*
G04 #@! TD*
D15*
G04 #@! TO.C,R66*
X223087500Y-120600000D03*
X224912500Y-120600000D03*
G04 #@! TD*
D21*
G04 #@! TO.C,C30*
X170137500Y-49000000D03*
X171862500Y-49000000D03*
G04 #@! TD*
D30*
G04 #@! TO.C,C94*
X125637500Y-86600000D03*
X128762500Y-86600000D03*
G04 #@! TD*
D20*
G04 #@! TO.C,D2*
X162837500Y-54850000D03*
X162837500Y-52950000D03*
X160962500Y-53900000D03*
G04 #@! TD*
D15*
G04 #@! TO.C,R28*
X172687500Y-68600000D03*
X174512500Y-68600000D03*
G04 #@! TD*
D29*
G04 #@! TO.C,U25*
X204075000Y-62705000D03*
X204075000Y-61435000D03*
X204075000Y-60165000D03*
X204075000Y-58895000D03*
X199125000Y-58895000D03*
X199125000Y-60165000D03*
X199125000Y-61435000D03*
X199125000Y-62705000D03*
G04 #@! TD*
D30*
G04 #@! TO.C,C82*
X137837500Y-106500000D03*
X140962500Y-106500000D03*
G04 #@! TD*
D54*
G04 #@! TO.C,U1*
X130400000Y-52225000D03*
X129900000Y-52225000D03*
X129400000Y-52225000D03*
X128900000Y-52225000D03*
X128400000Y-52225000D03*
X127900000Y-52225000D03*
X127400000Y-52225000D03*
X126900000Y-52225000D03*
X126400000Y-52225000D03*
X125900000Y-52225000D03*
X125400000Y-52225000D03*
X124900000Y-52225000D03*
X124400000Y-52225000D03*
X123900000Y-52225000D03*
X123400000Y-52225000D03*
X122900000Y-52225000D03*
X122400000Y-52225000D03*
X121900000Y-52225000D03*
X121400000Y-52225000D03*
X120900000Y-52225000D03*
X120400000Y-52225000D03*
X119900000Y-52225000D03*
X119400000Y-52225000D03*
X118900000Y-52225000D03*
X118400000Y-52225000D03*
D55*
X116725000Y-53900000D03*
X116725000Y-54400000D03*
X116725000Y-54900000D03*
X116725000Y-55400000D03*
X116725000Y-55900000D03*
X116725000Y-56400000D03*
X116725000Y-56900000D03*
X116725000Y-57400000D03*
X116725000Y-57900000D03*
X116725000Y-58400000D03*
X116725000Y-58900000D03*
X116725000Y-59400000D03*
X116725000Y-59900000D03*
X116725000Y-60400000D03*
X116725000Y-60900000D03*
X116725000Y-61400000D03*
X116725000Y-61900000D03*
X116725000Y-62400000D03*
X116725000Y-62900000D03*
X116725000Y-63400000D03*
X116725000Y-63900000D03*
X116725000Y-64400000D03*
X116725000Y-64900000D03*
X116725000Y-65400000D03*
X116725000Y-65900000D03*
D54*
X118400000Y-67575000D03*
X118900000Y-67575000D03*
X119400000Y-67575000D03*
X119900000Y-67575000D03*
X120400000Y-67575000D03*
X120900000Y-67575000D03*
X121400000Y-67575000D03*
X121900000Y-67575000D03*
X122400000Y-67575000D03*
X122900000Y-67575000D03*
X123400000Y-67575000D03*
X123900000Y-67575000D03*
X124400000Y-67575000D03*
X124900000Y-67575000D03*
X125400000Y-67575000D03*
X125900000Y-67575000D03*
X126400000Y-67575000D03*
X126900000Y-67575000D03*
X127400000Y-67575000D03*
X127900000Y-67575000D03*
X128400000Y-67575000D03*
X128900000Y-67575000D03*
X129400000Y-67575000D03*
X129900000Y-67575000D03*
X130400000Y-67575000D03*
D55*
X132075000Y-65900000D03*
X132075000Y-65400000D03*
X132075000Y-64900000D03*
X132075000Y-64400000D03*
X132075000Y-63900000D03*
X132075000Y-63400000D03*
X132075000Y-62900000D03*
X132075000Y-62400000D03*
X132075000Y-61900000D03*
X132075000Y-61400000D03*
X132075000Y-60900000D03*
X132075000Y-60400000D03*
X132075000Y-59900000D03*
X132075000Y-59400000D03*
X132075000Y-58900000D03*
X132075000Y-58400000D03*
X132075000Y-57900000D03*
X132075000Y-57400000D03*
X132075000Y-56900000D03*
X132075000Y-56400000D03*
X132075000Y-55900000D03*
X132075000Y-55400000D03*
X132075000Y-54900000D03*
X132075000Y-54400000D03*
X132075000Y-53900000D03*
G04 #@! TD*
D10*
G04 #@! TO.C,C62*
X83800000Y-110362500D03*
X83800000Y-107237500D03*
G04 #@! TD*
D21*
G04 #@! TO.C,C3*
X131837500Y-68100000D03*
X133562500Y-68100000D03*
G04 #@! TD*
G04 #@! TO.C,C44*
X150037500Y-72600000D03*
X151762500Y-72600000D03*
G04 #@! TD*
D23*
G04 #@! TO.C,C50*
X143200000Y-52062500D03*
X143200000Y-50337500D03*
G04 #@! TD*
D19*
G04 #@! TO.C,C2*
X114762500Y-66600000D03*
X113037500Y-66600000D03*
G04 #@! TD*
G04 #@! TO.C,C23*
X99050000Y-62300000D03*
X97325000Y-62300000D03*
G04 #@! TD*
G04 #@! TO.C,C13*
X120662500Y-49900000D03*
X118937500Y-49900000D03*
G04 #@! TD*
D50*
G04 #@! TO.C,U12*
X138075000Y-63277500D03*
X138075000Y-63912500D03*
X138075000Y-64547500D03*
X138075000Y-65182500D03*
X138075000Y-65817500D03*
X138075000Y-66452500D03*
X138075000Y-67087500D03*
X138075000Y-67722500D03*
X143325000Y-67722500D03*
X143325000Y-67087500D03*
X143325000Y-66452500D03*
X143325000Y-65817500D03*
X143325000Y-65182500D03*
X143325000Y-64547500D03*
X143325000Y-63912500D03*
X143325000Y-63277500D03*
G04 #@! TD*
D15*
G04 #@! TO.C,R26*
X157887500Y-71000000D03*
X159712500Y-71000000D03*
G04 #@! TD*
D56*
G04 #@! TO.C,FB1*
X120350000Y-46000000D03*
X118050000Y-46000000D03*
G04 #@! TD*
D11*
G04 #@! TO.C,R62*
X172900000Y-54287500D03*
X172900000Y-56112500D03*
G04 #@! TD*
D19*
G04 #@! TO.C,C108*
X204062500Y-57200000D03*
X202337500Y-57200000D03*
G04 #@! TD*
G04 #@! TO.C,C55*
X167562500Y-75000000D03*
X165837500Y-75000000D03*
G04 #@! TD*
D45*
G04 #@! TO.C,U23*
X128030000Y-89850000D03*
X128030000Y-91350000D03*
X129170000Y-89850000D03*
X129170000Y-91350000D03*
D37*
X126125000Y-88695000D03*
X126125000Y-89965000D03*
X126125000Y-91235000D03*
X126125000Y-92505000D03*
X131075000Y-92505000D03*
X131075000Y-91235000D03*
X131075000Y-89965000D03*
X131075000Y-88695000D03*
G04 #@! TD*
D21*
G04 #@! TO.C,C27*
X157237500Y-55600000D03*
X158962500Y-55600000D03*
G04 #@! TD*
D15*
G04 #@! TO.C,R41*
X138487500Y-126700000D03*
X140312500Y-126700000D03*
G04 #@! TD*
D57*
G04 #@! TO.C,U28*
X190550000Y-84875000D03*
X190550000Y-84225000D03*
X190550000Y-83575000D03*
X190550000Y-82925000D03*
X186250000Y-82925000D03*
X186250000Y-83575000D03*
X186250000Y-84225000D03*
X186250000Y-84875000D03*
G04 #@! TD*
D19*
G04 #@! TO.C,C77*
X131262500Y-112900000D03*
X129537500Y-112900000D03*
G04 #@! TD*
D29*
G04 #@! TO.C,U9*
X154975000Y-71010000D03*
X154975000Y-69740000D03*
X154975000Y-68470000D03*
X154975000Y-67200000D03*
X154975000Y-65930000D03*
X154975000Y-64660000D03*
X154975000Y-63390000D03*
X150025000Y-63390000D03*
X150025000Y-64660000D03*
X150025000Y-65930000D03*
X150025000Y-67200000D03*
X150025000Y-68470000D03*
X150025000Y-69740000D03*
X150025000Y-71010000D03*
G04 #@! TD*
D58*
G04 #@! TO.C,U2*
X120687500Y-72625000D03*
X120687500Y-73275000D03*
X120687500Y-73925000D03*
X120687500Y-74575000D03*
X124912500Y-74575000D03*
X124912500Y-73925000D03*
X124912500Y-73275000D03*
X124912500Y-72625000D03*
G04 #@! TD*
D59*
G04 #@! TO.C,U5*
X167025000Y-56575000D03*
X167675000Y-56575000D03*
X168325000Y-56575000D03*
X168975000Y-56575000D03*
X169625000Y-56575000D03*
X170275000Y-56575000D03*
X170925000Y-56575000D03*
X171575000Y-56575000D03*
X171575000Y-50850000D03*
X170925000Y-50850000D03*
X170275000Y-50850000D03*
X169625000Y-50850000D03*
X168975000Y-50850000D03*
X168325000Y-50850000D03*
X167675000Y-50850000D03*
X167025000Y-50850000D03*
G04 #@! TD*
D19*
G04 #@! TO.C,C40*
X164662500Y-89600000D03*
X162937500Y-89600000D03*
G04 #@! TD*
D43*
G04 #@! TO.C,D11*
X226998223Y-117600000D03*
X226998223Y-120600000D03*
D44*
X226548223Y-119500000D03*
X226548223Y-118700000D03*
G04 #@! TD*
D19*
G04 #@! TO.C,C81*
X131262500Y-128500000D03*
X129537500Y-128500000D03*
G04 #@! TD*
D30*
G04 #@! TO.C,C101*
X139637500Y-84000000D03*
X142762500Y-84000000D03*
G04 #@! TD*
D28*
G04 #@! TO.C,R33*
X175112500Y-76800000D03*
X173287500Y-76800000D03*
G04 #@! TD*
D15*
G04 #@! TO.C,R44*
X130287500Y-124400000D03*
X132112500Y-124400000D03*
G04 #@! TD*
D28*
G04 #@! TO.C,R4*
X125512500Y-70900000D03*
X123687500Y-70900000D03*
G04 #@! TD*
D19*
G04 #@! TO.C,C18*
X102162500Y-64400000D03*
X100437500Y-64400000D03*
G04 #@! TD*
G04 #@! TO.C,C10*
X114762500Y-64200000D03*
X113037500Y-64200000D03*
G04 #@! TD*
D15*
G04 #@! TO.C,R20*
X163387500Y-72500000D03*
X165212500Y-72500000D03*
G04 #@! TD*
D17*
G04 #@! TO.C,C104*
X86600000Y-77237500D03*
X86600000Y-80362500D03*
G04 #@! TD*
G04 #@! TO.C,C71*
X123100000Y-101037500D03*
X123100000Y-104162500D03*
G04 #@! TD*
D60*
G04 #@! TO.C,U29*
X178595000Y-55675000D03*
X179865000Y-55675000D03*
X181135000Y-55675000D03*
X182405000Y-55675000D03*
X182405000Y-50725000D03*
X181135000Y-50725000D03*
X179865000Y-50725000D03*
X178595000Y-50725000D03*
G04 #@! TD*
D17*
G04 #@! TO.C,C57*
X81000000Y-113337500D03*
X81000000Y-116462500D03*
G04 #@! TD*
D15*
G04 #@! TO.C,R24*
X163387500Y-70900000D03*
X165212500Y-70900000D03*
G04 #@! TD*
D10*
G04 #@! TO.C,C85*
X134300000Y-86862500D03*
X134300000Y-83737500D03*
G04 #@! TD*
D21*
G04 #@! TO.C,C43*
X150037500Y-74400000D03*
X151762500Y-74400000D03*
G04 #@! TD*
D10*
G04 #@! TO.C,C60*
X83800000Y-95862500D03*
X83800000Y-92737500D03*
G04 #@! TD*
D23*
G04 #@! TO.C,C15*
X106200000Y-49562500D03*
X106200000Y-47837500D03*
G04 #@! TD*
D15*
G04 #@! TO.C,R11*
X176287500Y-60900000D03*
X178112500Y-60900000D03*
G04 #@! TD*
D11*
G04 #@! TO.C,R59*
X196600000Y-62187500D03*
X196600000Y-64012500D03*
G04 #@! TD*
G04 #@! TO.C,R49*
X137600000Y-91087500D03*
X137600000Y-92912500D03*
G04 #@! TD*
D21*
G04 #@! TO.C,C53*
X169237500Y-68600000D03*
X170962500Y-68600000D03*
G04 #@! TD*
D29*
G04 #@! TO.C,U6*
X154975000Y-56905000D03*
X154975000Y-55635000D03*
X154975000Y-54365000D03*
X154975000Y-53095000D03*
X150025000Y-53095000D03*
X150025000Y-54365000D03*
X150025000Y-55635000D03*
X150025000Y-56905000D03*
G04 #@! TD*
D14*
G04 #@! TO.C,C83*
X140962500Y-115800000D03*
X137837500Y-115800000D03*
G04 #@! TD*
D15*
G04 #@! TO.C,R32*
X173287500Y-78400000D03*
X175112500Y-78400000D03*
G04 #@! TD*
D23*
G04 #@! TO.C,C19*
X102300000Y-49562500D03*
X102300000Y-47837500D03*
G04 #@! TD*
D15*
G04 #@! TO.C,R46*
X152087500Y-111500000D03*
X153912500Y-111500000D03*
G04 #@! TD*
D49*
G04 #@! TO.C,Y2*
X101100000Y-67500000D03*
X105100000Y-67500000D03*
G04 #@! TD*
D61*
G04 #@! TO.C,K1*
X194000000Y-70350000D03*
X194000000Y-65270000D03*
X194000000Y-62730000D03*
X194000000Y-60190000D03*
X194000000Y-57650000D03*
X186000000Y-57650000D03*
X186000000Y-60190000D03*
X186000000Y-62730000D03*
X186000000Y-65270000D03*
X186000000Y-70350000D03*
G04 #@! TD*
D48*
G04 #@! TO.C,C33*
X169300000Y-58437500D03*
X169300000Y-60162500D03*
G04 #@! TD*
D51*
G04 #@! TO.C,R35*
X76700000Y-103500000D03*
X76700000Y-101500000D03*
G04 #@! TD*
D10*
G04 #@! TO.C,C73*
X123800000Y-134262500D03*
X123800000Y-131137500D03*
G04 #@! TD*
D15*
G04 #@! TO.C,R45*
X130287500Y-121000000D03*
X132112500Y-121000000D03*
G04 #@! TD*
D17*
G04 #@! TO.C,C59*
X83800000Y-113337500D03*
X83800000Y-116462500D03*
G04 #@! TD*
D23*
G04 #@! TO.C,C17*
X104600000Y-49562500D03*
X104600000Y-47837500D03*
G04 #@! TD*
D13*
G04 #@! TO.C,R76*
X184200000Y-54612500D03*
X184200000Y-52787500D03*
G04 #@! TD*
D10*
G04 #@! TO.C,C75*
X123800000Y-118062500D03*
X123800000Y-114937500D03*
G04 #@! TD*
D11*
G04 #@! TO.C,R50*
X123800000Y-91087500D03*
X123800000Y-92912500D03*
G04 #@! TD*
D13*
G04 #@! TO.C,R1*
X137700000Y-74312500D03*
X137700000Y-72487500D03*
G04 #@! TD*
D10*
G04 #@! TO.C,C67*
X123800000Y-126062500D03*
X123800000Y-122937500D03*
G04 #@! TD*
D21*
G04 #@! TO.C,C36*
X161337500Y-75500000D03*
X163062500Y-75500000D03*
G04 #@! TD*
G04 #@! TO.C,C47*
X157737500Y-67800000D03*
X159462500Y-67800000D03*
G04 #@! TD*
D28*
G04 #@! TO.C,R39*
X135462500Y-109100000D03*
X133637500Y-109100000D03*
G04 #@! TD*
D23*
G04 #@! TO.C,C54*
X177000000Y-72262500D03*
X177000000Y-70537500D03*
G04 #@! TD*
D10*
G04 #@! TO.C,C58*
X88500000Y-123162500D03*
X88500000Y-120037500D03*
G04 #@! TD*
D17*
G04 #@! TO.C,C63*
X83800000Y-98337500D03*
X83800000Y-101462500D03*
G04 #@! TD*
D18*
G04 #@! TO.C,D5*
X86350000Y-129900000D03*
X83050000Y-129900000D03*
G04 #@! TD*
D28*
G04 #@! TO.C,R61*
X189612500Y-51300000D03*
X187787500Y-51300000D03*
G04 #@! TD*
D15*
G04 #@! TO.C,R19*
X149987500Y-77600000D03*
X151812500Y-77600000D03*
G04 #@! TD*
M02*
