ISO-10303-21;
HEADER;
FILE_DESCRIPTION (( 'STEP AP203' ),
    '1' );
FILE_NAME ('TMR4WI.STEP',
    '2020-04-07T01:29:50',
    ( '' ),
    ( '' ),
    'SwSTEP 2.0',
    'SolidWorks 2018',
    '' );
FILE_SCHEMA (( 'CONFIG_CONTROL_DESIGN' ));
ENDSEC;

DATA;
#1 = LINE ( 'NONE', #301, #416 ) ;
#2 = FACE_OUTER_BOUND ( 'NONE', #1039, .T. ) ;
#3 = CARTESIAN_POINT ( 'NONE',  ( 10.40000000000000213, -4.649999999999999467, 11.35000000000000142 ) ) ;
#4 = PLANE ( 'NONE',  #789 ) ;
#5 = FACE_OUTER_BOUND ( 'NONE', #159, .T. ) ;
#6 = EDGE_CURVE ( 'NONE', #245, #342, #586, .T. ) ;
#7 = CARTESIAN_POINT ( 'NONE',  ( 0.0000000000000000000, 4.650000000000000355, 11.35000000000000142 ) ) ;
#8 = CC_DESIGN_PERSON_AND_ORGANIZATION_ASSIGNMENT ( #623, #1244, ( #757 ) ) ;
#9 = DIRECTION ( 'NONE',  ( -1.000000000000000000, -0.0000000000000000000, -0.0000000000000000000 ) ) ;
#10 = CARTESIAN_POINT ( 'NONE',  ( 9.140000000000002345, -2.200000000000000622, 10.94999999999999929 ) ) ;
#11 = EDGE_LOOP ( 'NONE', ( #633, #1296, #902, #803 ) ) ;
#12 = EDGE_CURVE ( 'NONE', #1344, #665, #123, .T. ) ;
#13 = ORIENTED_EDGE ( 'NONE', *, *, #630, .F. ) ;
#14 = ORIENTED_EDGE ( 'NONE', *, *, #283, .F. ) ;
#15 = DIRECTION ( 'NONE',  ( -1.000000000000000000, -0.0000000000000000000, -0.0000000000000000000 ) ) ;
#16 = LINE ( 'NONE', #1185, #1268 ) ;
#17 = DIRECTION ( 'NONE',  ( -0.0000000000000000000, -1.000000000000000000, -0.0000000000000000000 ) ) ;
#18 = DIRECTION ( 'NONE',  ( 0.0000000000000000000, 1.000000000000000000, 0.0000000000000000000 ) ) ;
#19 = VECTOR ( 'NONE', #1133, 1000.000000000000000 ) ;
#20 = DIRECTION ( 'NONE',  ( 0.0000000000000000000, 0.0000000000000000000, -1.000000000000000000 ) ) ;
#21 = VECTOR ( 'NONE', #1306, 1000.000000000000000 ) ;
#22 = AXIS2_PLACEMENT_3D ( 'NONE', #158, #572, #1316 ) ;
#23 = DIRECTION ( 'NONE',  ( 1.000000000000000000, 0.0000000000000000000, 0.0000000000000000000 ) ) ;
#24 = FACE_OUTER_BOUND ( 'NONE', #1202, .T. ) ;
#25 = ORIENTED_EDGE ( 'NONE', *, *, #644, .F. ) ;
#26 = CARTESIAN_POINT ( 'NONE',  ( -9.140000000000000568, -2.200000000000000622, 15.34999999999999964 ) ) ;
#27 = ORIENTED_EDGE ( 'NONE', *, *, #1318, .F. ) ;
#28 = EDGE_CURVE ( 'NONE', #704, #307, #305, .T. ) ;
#29 = EDGE_LOOP ( 'NONE', ( #1123, #427, #352, #830 ) ) ;
#30 = ORIENTED_EDGE ( 'NONE', *, *, #28, .T. ) ;
#31 = VECTOR ( 'NONE', #440, 1000.000000000000000 ) ;
#32 = FACE_OUTER_BOUND ( 'NONE', #425, .T. ) ;
#33 = VECTOR ( 'NONE', #722, 1000.000000000000000 ) ;
#34 = DIRECTION ( 'NONE',  ( 1.000000000000000000, 0.0000000000000000000, -0.0000000000000000000 ) ) ;
#35 = CARTESIAN_POINT ( 'NONE',  ( -8.640000000000000568, -2.200000000000000622, 15.34999999999999964 ) ) ;
#36 = VERTEX_POINT ( 'NONE', #910 ) ;
#37 = DIRECTION ( 'NONE',  ( 0.0000000000000000000, 1.000000000000000000, 0.0000000000000000000 ) ) ;
#38 = VERTEX_POINT ( 'NONE', #153 ) ;
#39 = EDGE_LOOP ( 'NONE', ( #668, #273, #393, #458 ) ) ;
#40 = ORIENTED_EDGE ( 'NONE', *, *, #876, .T. ) ;
#41 = LINE ( 'NONE', #105, #293 ) ;
#42 = CARTESIAN_POINT ( 'NONE',  ( -4.059999999999999609, -2.200000000000000622, 15.34999999999999964 ) ) ;
#43 = EDGE_CURVE ( 'NONE', #326, #752, #157, .T. ) ;
#44 = CARTESIAN_POINT ( 'NONE',  ( 0.0000000000000000000, 0.0000000000000000000, 0.0000000000000000000 ) ) ;
#45 = APPROVAL_PERSON_ORGANIZATION ( #531, #1261, #694 ) ;
#46 = DIRECTION ( 'NONE',  ( 0.0000000000000000000, 0.0000000000000000000, -1.000000000000000000 ) ) ;
#47 = VECTOR ( 'NONE', #322, 1000.000000000000114 ) ;
#48 = CARTESIAN_POINT ( 'NONE',  ( 6.100000000000001421, -2.200000000000000622, 10.94999999999999929 ) ) ;
#49 = DIRECTION ( 'NONE',  ( -1.000000000000000000, 0.0000000000000000000, -0.0000000000000000000 ) ) ;
#50 = EDGE_CURVE ( 'NONE', #1107, #1120, #1046, .T. ) ;
#51 = CARTESIAN_POINT ( 'NONE',  ( -6.599999999999999645, -2.200000000000000622, 15.34999999999999964 ) ) ;
#52 = AXIS2_PLACEMENT_3D ( 'NONE', #189, #1332, #812 ) ;
#53 = CARTESIAN_POINT ( 'NONE',  ( -3.559999999999999609, -2.200000000000000622, 15.34999999999999964 ) ) ;
#54 = VERTEX_POINT ( 'NONE', #790 ) ;
#55 = PLANE ( 'NONE',  #877 ) ;
#56 = ADVANCED_FACE ( 'NONE', ( #24 ), #1119, .F. ) ;
#57 = ORIENTED_EDGE ( 'NONE', *, *, #141, .F. ) ;
#58 = CARTESIAN_POINT ( 'NONE',  ( 1.520000000000000906, -1.950000000000001288, 10.94999999999999929 ) ) ;
#59 = ADVANCED_FACE ( 'NONE', ( #1110 ), #578, .F. ) ;
#60 = ORIENTED_EDGE ( 'NONE', *, *, #753, .T. ) ;
#61 = ORIENTED_EDGE ( 'NONE', *, *, #50, .T. ) ;
#62 = APPROVAL_ROLE ( '' ) ;
#63 = LINE ( 'NONE', #310, #397 ) ;
#64 = CARTESIAN_POINT ( 'NONE',  ( 4.060000000000001386, -1.950000000000001288, 10.94999999999999929 ) ) ;
#65 = EDGE_CURVE ( 'NONE', #1063, #144, #167, .T. ) ;
#66 = LINE ( 'NONE', #676, #500 ) ;
#67 = LINE ( 'NONE', #692, #1180 ) ;
#68 = CARTESIAN_POINT ( 'NONE',  ( 3.560000000000000497, -2.200000000000000622, 15.34999999999999964 ) ) ;
#69 = ADVANCED_FACE ( 'NONE', ( #641 ), #1227, .F. ) ;
#70 = EDGE_CURVE ( 'NONE', #628, #726, #775, .T. ) ;
#71 = PLANE ( 'NONE',  #884 ) ;
#72 = ORIENTED_EDGE ( 'NONE', *, *, #65, .F. ) ;
#73 = AXIS2_PLACEMENT_3D ( 'NONE', #667, #569, #791 ) ;
#74 = CARTESIAN_POINT ( 'NONE',  ( -10.74151380455179705, 4.491513804551789057, 3.398719700857880111E-17 ) ) ;
#75 = VERTEX_POINT ( 'NONE', #799 ) ;
#76 = APPROVAL_STATUS ( 'not_yet_approved' ) ;
#77 = ORIENTED_EDGE ( 'NONE', *, *, #681, .T. ) ;
#78 = EDGE_LOOP ( 'NONE', ( #1022, #741, #477, #491 ) ) ;
#79 = PLANE ( 'NONE',  #223 ) ;
#80 = ORIENTED_EDGE ( 'NONE', *, *, #1098, .T. ) ;
#81 = LINE ( 'NONE', #444, #742 ) ;
#82 = CARTESIAN_POINT ( 'NONE',  ( -6.599999999999999645, -1.950000000000001288, 10.94999999999999929 ) ) ;
#83 =( LENGTH_UNIT ( ) NAMED_UNIT ( * ) SI_UNIT ( .MILLI., .METRE. ) );
#84 = EDGE_CURVE ( 'NONE', #1214, #1090, #913, .T. ) ;
#85 = CARTESIAN_POINT ( 'NONE',  ( 1.020000000000000462, -2.200000000000000622, 15.34999999999999964 ) ) ;
#86 = COORDINATED_UNIVERSAL_TIME_OFFSET ( 8, 0, .AHEAD. ) ;
#87 = DIRECTION ( 'NONE',  ( 0.0000000000000000000, -0.0000000000000000000, -1.000000000000000000 ) ) ;
#88 = FACE_OUTER_BOUND ( 'NONE', #750, .T. ) ;
#89 = LINE ( 'NONE', #373, #234 ) ;
#90 = DIRECTION ( 'NONE',  ( 0.0000000000000000000, 0.0000000000000000000, -1.000000000000000000 ) ) ;
#91 = CARTESIAN_POINT ( 'NONE',  ( 10.89999999999999858, 4.650000000000000355, 11.35000000000000142 ) ) ;
#92 = ORIENTED_EDGE ( 'NONE', *, *, #330, .T. ) ;
#93 = CARTESIAN_POINT ( 'NONE',  ( 10.74151380455179350, -4.491513804551789057, 6.270476337552762321E-17 ) ) ;
#94 = ORIENTED_EDGE ( 'NONE', *, *, #70, .T. ) ;
#95 = ORIENTED_EDGE ( 'NONE', *, *, #847, .T. ) ;
#96 = ADVANCED_FACE ( 'NONE', ( #132 ), #901, .F. ) ;
#97 = ORIENTED_EDGE ( 'NONE', *, *, #972, .T. ) ;
#98 = VERTEX_POINT ( 'NONE', #689 ) ;
#99 = LINE ( 'NONE', #546, #1026 ) ;
#100 = CARTESIAN_POINT ( 'NONE',  ( 3.560000000000000497, -2.200000000000000622, 10.94999999999999929 ) ) ;
#101 = EDGE_CURVE ( 'NONE', #1074, #75, #66, .T. ) ;
#102 = FACE_OUTER_BOUND ( 'NONE', #1089, .T. ) ;
#103 = DIRECTION ( 'NONE',  ( 1.000000000000000000, 0.0000000000000000000, 0.0000000000000000000 ) ) ;
#104 = LINE ( 'NONE', #479, #1149 ) ;
#105 = CARTESIAN_POINT ( 'NONE',  ( -4.059999999999999609, -2.200000000000000622, 10.94999999999999929 ) ) ;
#106 = DIRECTION ( 'NONE',  ( 0.0000000000000000000, 1.000000000000000000, 0.0000000000000000000 ) ) ;
#107 = CARTESIAN_POINT ( 'NONE',  ( -8.640000000000000568, -2.200000000000000622, 10.94999999999999929 ) ) ;
#108 = ORIENTED_EDGE ( 'NONE', *, *, #543, .F. ) ;
#109 = VERTEX_POINT ( 'NONE', #74 ) ;
#110 = VERTEX_POINT ( 'NONE', #1048 ) ;
#111 = PLANE ( 'NONE',  #989 ) ;
#112 = EDGE_LOOP ( 'NONE', ( #621, #687, #94, #1358 ) ) ;
#113 = CARTESIAN_POINT ( 'NONE',  ( -6.099999999999999645, -1.950000000000001288, 15.34999999999999964 ) ) ;
#114 = DESIGN_CONTEXT ( 'detailed design', #903, 'design' ) ;
#115 = FACE_OUTER_BOUND ( 'NONE', #849, .T. ) ;
#116 = DIRECTION ( 'NONE',  ( 0.0000000000000000000, 0.0000000000000000000, -1.000000000000000000 ) ) ;
#117 = CARTESIAN_POINT ( 'NONE',  ( -10.74151380455180060, 4.491513804551787281, 3.006966962752766204E-17 ) ) ;
#118 = SHAPE_DEFINITION_REPRESENTATION ( #637, #297 ) ;
#119 = VECTOR ( 'NONE', #15, 1000.000000000000000 ) ;
#120 = EDGE_CURVE ( 'NONE', #834, #1173, #364, .T. ) ;
#121 = CARTESIAN_POINT ( 'NONE',  ( -6.099999999999999645, -2.200000000000000622, 15.34999999999999964 ) ) ;
#122 = CARTESIAN_POINT ( 'NONE',  ( 1.020000000000000462, -2.200000000000000622, 15.34999999999999964 ) ) ;
#123 = LINE ( 'NONE', #267, #900 ) ;
#124 = DIRECTION ( 'NONE',  ( 1.000000000000000000, 0.0000000000000000000, 0.0000000000000000000 ) ) ;
#125 = ORIENTED_EDGE ( 'NONE', *, *, #691, .F. ) ;
#126 = ORIENTED_EDGE ( 'NONE', *, *, #482, .T. ) ;
#127 = AXIS2_PLACEMENT_3D ( 'NONE', #163, #594, #923 ) ;
#128 = DIRECTION ( 'NONE',  ( 0.0000000000000000000, 0.0000000000000000000, 1.000000000000000000 ) ) ;
#129 = ORIENTED_EDGE ( 'NONE', *, *, #998, .T. ) ;
#130 = CARTESIAN_POINT ( 'NONE',  ( -10.40000000000000213, 4.650000000000000355, 11.35000000000000142 ) ) ;
#131 = APPROVAL_DATE_TIME ( #659, #683 ) ;
#132 = FACE_OUTER_BOUND ( 'NONE', #1216, .T. ) ;
#133 = VECTOR ( 'NONE', #353, 1000.000000000000000 ) ;
#134 = EDGE_CURVE ( 'NONE', #395, #98, #1258, .T. ) ;
#135 = CARTESIAN_POINT ( 'NONE',  ( 6.600000000000001421, -1.950000000000001288, 15.34999999999999964 ) ) ;
#136 = CARTESIAN_POINT ( 'NONE',  ( 4.060000000000001386, -1.950000000000001288, 15.34999999999999964 ) ) ;
#137 = VECTOR ( 'NONE', #682, 1000.000000000000000 ) ;
#138 = ORIENTED_EDGE ( 'NONE', *, *, #510, .T. ) ;
#139 = ORIENTED_EDGE ( 'NONE', *, *, #1175, .T. ) ;
#140 = CARTESIAN_POINT ( 'NONE',  ( 6.100000000000001421, -2.200000000000000622, 15.34999999999999964 ) ) ;
#141 = EDGE_CURVE ( 'NONE', #342, #1041, #421, .T. ) ;
#142 = ORIENTED_EDGE ( 'NONE', *, *, #1079, .T. ) ;
#143 = VECTOR ( 'NONE', #1147, 1000.000000000000000 ) ;
#144 = VERTEX_POINT ( 'NONE', #719 ) ;
#145 = LINE ( 'NONE', #220, #870 ) ;
#146 = CARTESIAN_POINT ( 'NONE',  ( -6.599999999999999645, -1.950000000000001288, 15.34999999999999964 ) ) ;
#147 = PLANE ( 'NONE',  #770 ) ;
#148 = LINE ( 'NONE', #299, #19 ) ;
#149 = LINE ( 'NONE', #773, #984 ) ;
#150 = EDGE_CURVE ( 'NONE', #251, #540, #874, .T. ) ;
#151 = DIRECTION ( 'NONE',  ( 0.0000000000000000000, 0.0000000000000000000, -1.000000000000000000 ) ) ;
#152 = AXIS2_PLACEMENT_3D ( 'NONE', #602, #400, #610 ) ;
#153 = CARTESIAN_POINT ( 'NONE',  ( 10.39441403892320892, -4.644414583420329201, 10.95000000000000107 ) ) ;
#154 = DIRECTION ( 'NONE',  ( 0.0000000000000000000, 0.0000000000000000000, 1.000000000000000000 ) ) ;
#155 = ADVANCED_FACE ( 'NONE', ( #857 ), #514, .F. ) ;
#156 = CARTESIAN_POINT ( 'NONE',  ( 6.100000000000001421, -2.200000000000000622, 10.94999999999999929 ) ) ;
#157 = LINE ( 'NONE', #381, #1320 ) ;
#158 = CARTESIAN_POINT ( 'NONE',  ( 1.020000000000000462, -1.950000000000001288, 15.34999999999999964 ) ) ;
#159 = EDGE_LOOP ( 'NONE', ( #979, #601, #881, #1280 ) ) ;
#160 = DIRECTION ( 'NONE',  ( 0.0000000000000000000, 0.0000000000000000000, 1.000000000000000000 ) ) ;
#161 = ORIENTED_EDGE ( 'NONE', *, *, #786, .F. ) ;
#162 = ORIENTED_EDGE ( 'NONE', *, *, #1070, .T. ) ;
#163 = CARTESIAN_POINT ( 'NONE',  ( 8.640000000000002345, -2.200000000000000622, 15.34999999999999964 ) ) ;
#164 = EDGE_CURVE ( 'NONE', #1056, #705, #624, .T. ) ;
#165 = CARTESIAN_POINT ( 'NONE',  ( 9.140000000000002345, -2.200000000000000622, 15.34999999999999964 ) ) ;
#166 = DATE_AND_TIME ( #1347, #1285 ) ;
#167 = LINE ( 'NONE', #1215, #931 ) ;
#168 = FACE_OUTER_BOUND ( 'NONE', #243, .T. ) ;
#169 = APPLICATION_PROTOCOL_DEFINITION ( 'international standard', 'config_control_design', 1994, #1224 ) ;
#170 = EDGE_CURVE ( 'NONE', #629, #338, #1, .T. ) ;
#171 = CARTESIAN_POINT ( 'NONE',  ( -9.140000000000000568, -2.200000000000000622, 15.34999999999999964 ) ) ;
#172 = VECTOR ( 'NONE', #1206, 1000.000000000000000 ) ;
#173 = EDGE_LOOP ( 'NONE', ( #1010, #178, #40, #461 ) ) ;
#174 = CARTESIAN_POINT ( 'NONE',  ( -10.74152925315070028, -4.650000000000000355, 0.001106352494397269985 ) ) ;
#175 = ORIENTED_EDGE ( 'NONE', *, *, #274, .T. ) ;
#176 = ADVANCED_FACE ( 'NONE', ( #1160 ), #183, .F. ) ;
#177 = CARTESIAN_POINT ( 'NONE',  ( -9.140000000000000568, -2.200000000000000622, 15.34999999999999964 ) ) ;
#178 = ORIENTED_EDGE ( 'NONE', *, *, #233, .T. ) ;
#179 = APPROVAL_STATUS ( 'not_yet_approved' ) ;
#180 = EDGE_LOOP ( 'NONE', ( #649, #228, #868, #372 ) ) ;
#181 = VECTOR ( 'NONE', #345, 1000.000000000000000 ) ;
#182 = AXIS2_PLACEMENT_3D ( 'NONE', #277, #270, #487 ) ;
#183 = PLANE ( 'NONE',  #467 ) ;
#184 = LINE ( 'NONE', #1301, #673 ) ;
#185 = VECTOR ( 'NONE', #235, 1000.000000000000000 ) ;
#186 = DIRECTION ( 'NONE',  ( 0.0000000000000000000, -1.000000000000000000, 0.0000000000000000000 ) ) ;
#187 = FACE_OUTER_BOUND ( 'NONE', #925, .T. ) ;
#188 = ADVANCED_FACE ( 'NONE', ( #1011 ), #1231, .F. ) ;
#189 = CARTESIAN_POINT ( 'NONE',  ( 0.0000000000000000000, -5.852929625581609889E-16, 0.0000000000000000000 ) ) ;
#190 = EDGE_CURVE ( 'NONE', #705, #1058, #1062, .T. ) ;
#191 = CARTESIAN_POINT ( 'NONE',  ( -10.90000000000000036, 4.644414583420327425, 10.95000000000000107 ) ) ;
#192 = ORIENTED_EDGE ( 'NONE', *, *, #823, .T. ) ;
#193 = ORIENTED_EDGE ( 'NONE', *, *, #654, .T. ) ;
#194 = EDGE_LOOP ( 'NONE', ( #631, #1005, #1002, #396 ) ) ;
#195 = VERTEX_POINT ( 'NONE', #402 ) ;
#196 = EDGE_CURVE ( 'NONE', #1171, #628, #1182, .T. ) ;
#197 = APPROVAL_PERSON_ORGANIZATION ( #1066, #779, #62 ) ;
#198 = ADVANCED_FACE ( 'NONE', ( #1221 ), #281, .F. ) ;
#199 = LINE ( 'NONE', #1082, #1333 ) ;
#200 = VECTOR ( 'NONE', #1209, 1000.000000000000000 ) ;
#201 = CARTESIAN_POINT ( 'NONE',  ( 6.600000000000001421, -2.200000000000000622, 15.34999999999999964 ) ) ;
#202 = DIRECTION ( 'NONE',  ( -1.000000000000000000, -0.0000000000000000000, -0.0000000000000000000 ) ) ;
#203 = EDGE_CURVE ( 'NONE', #1023, #554, #970, .T. ) ;
#204 = VERTEX_POINT ( 'NONE', #822 ) ;
#205 = PLANE ( 'NONE',  #266 ) ;
#206 = VERTEX_POINT ( 'NONE', #1132 ) ;
#207 = CARTESIAN_POINT ( 'NONE',  ( -10.90000000000000036, 4.491529253150700285, 0.001106352494397150289 ) ) ;
#208 = ORIENTED_EDGE ( 'NONE', *, *, #1274, .F. ) ;
#209 = ORIENTED_EDGE ( 'NONE', *, *, #101, .T. ) ;
#210 = DIRECTION ( 'NONE',  ( 0.0000000000000000000, 0.0000000000000000000, -1.000000000000000000 ) ) ;
#211 = VECTOR ( 'NONE', #829, 1000.000000000000000 ) ;
#212 = CARTESIAN_POINT ( 'NONE',  ( -3.559999999999999609, -2.200000000000000622, 15.34999999999999964 ) ) ;
#213 = EDGE_CURVE ( 'NONE', #1173, #589, #430, .T. ) ;
#214 = DATE_AND_TIME ( #841, #331 ) ;
#215 = CARTESIAN_POINT ( 'NONE',  ( 3.560000000000000497, -2.200000000000000622, 15.34999999999999964 ) ) ;
#216 = LINE ( 'NONE', #91, #678 ) ;
#217 = LINE ( 'NONE', #850, #47 ) ;
#218 = CARTESIAN_POINT ( 'NONE',  ( -6.599999999999999645, -1.950000000000001288, 15.34999999999999964 ) ) ;
#219 = DIRECTION ( 'NONE',  ( -0.01396081962705787195, -0.01396081962705787195, 0.9998050765177587396 ) ) ;
#220 = CARTESIAN_POINT ( 'NONE',  ( 6.100000000000001421, -2.200000000000000622, 15.34999999999999964 ) ) ;
#221 = EDGE_CURVE ( 'NONE', #110, #1291, #527, .T. ) ;
#222 = ORIENTED_EDGE ( 'NONE', *, *, #936, .T. ) ;
#223 = AXIS2_PLACEMENT_3D ( 'NONE', #85, #1033, #933 ) ;
#224 = ORIENTED_EDGE ( 'NONE', *, *, #302, .F. ) ;
#225 = CARTESIAN_POINT ( 'NONE',  ( 1.020000000000000462, -2.200000000000000622, 10.94999999999999929 ) ) ;
#226 = ORIENTED_EDGE ( 'NONE', *, *, #1311, .T. ) ;
#227 = CARTESIAN_POINT ( 'NONE',  ( 10.74151380455180060, -5.852929625581609889E-16, 0.0000000000000000000 ) ) ;
#228 = ORIENTED_EDGE ( 'NONE', *, *, #823, .F. ) ;
#229 = LINE ( 'NONE', #465, #1309 ) ;
#230 = PLANE ( 'NONE',  #567 ) ;
#231 = DIRECTION ( 'NONE',  ( 1.000000000000000000, 0.0000000000000000000, 0.0000000000000000000 ) ) ;
#232 = VECTOR ( 'NONE', #428, 1000.000000000000000 ) ;
#233 = EDGE_CURVE ( 'NONE', #1090, #704, #1030, .T. ) ;
#234 = VECTOR ( 'NONE', #1118, 1000.000000000000000 ) ;
#235 = DIRECTION ( 'NONE',  ( 0.0000000000000000000, 1.000000000000000000, 0.0000000000000000000 ) ) ;
#236 = DIRECTION ( 'NONE',  ( 0.0000000000000000000, 1.000000000000000000, 0.0000000000000000000 ) ) ;
#237 = CARTESIAN_POINT ( 'NONE',  ( 9.140000000000002345, -2.200000000000000622, 15.34999999999999964 ) ) ;
#238 = ORIENTED_EDGE ( 'NONE', *, *, #560, .T. ) ;
#239 = EDGE_CURVE ( 'NONE', #1357, #206, #216, .T. ) ;
#240 = ORIENTED_EDGE ( 'NONE', *, *, #896, .F. ) ;
#241 = ORIENTED_EDGE ( 'NONE', *, *, #433, .T. ) ;
#242 = CARTESIAN_POINT ( 'NONE',  ( 0.0000000000000000000, 0.0000000000000000000, 15.34999999999999964 ) ) ;
#243 = EDGE_LOOP ( 'NONE', ( #193, #14, #391, #616 ) ) ;
#244 = VECTOR ( 'NONE', #1250, 1000.000000000000000 ) ;
#245 = VERTEX_POINT ( 'NONE', #732 ) ;
#246 = LINE ( 'NONE', #550, #1176 ) ;
#247 = VECTOR ( 'NONE', #368, 1000.000000000000000 ) ;
#248 = VECTOR ( 'NONE', #809, 1000.000000000000000 ) ;
#249 = VECTOR ( 'NONE', #824, 1000.000000000000000 ) ;
#250 = DIRECTION ( 'NONE',  ( -0.0000000000000000000, -0.0000000000000000000, -1.000000000000000000 ) ) ;
#251 = VERTEX_POINT ( 'NONE', #296 ) ;
#252 = CARTESIAN_POINT ( 'NONE',  ( 10.39441403892321958, 4.644414583420331866, 10.95000000000000107 ) ) ;
#253 = ORIENTED_EDGE ( 'NONE', *, *, #50, .F. ) ;
#254 = CARTESIAN_POINT ( 'NONE',  ( 10.90000000000000036, -4.649999999999999467, 11.35000000000000142 ) ) ;
#255 = EDGE_CURVE ( 'NONE', #838, #1058, #343, .T. ) ;
#256 = ORIENTED_EDGE ( 'NONE', *, *, #617, .T. ) ;
#257 = ORIENTED_EDGE ( 'NONE', *, *, #691, .T. ) ;
#258 = VECTOR ( 'NONE', #833, 1000.000000000000000 ) ;
#259 = AXIS2_PLACEMENT_3D ( 'NONE', #44, #160, #817 ) ;
#260 = DIRECTION ( 'NONE',  ( -1.000000000000000000, 0.0000000000000000000, 0.0000000000000000000 ) ) ;
#261 = VECTOR ( 'NONE', #1290, 1000.000000000000000 ) ;
#262 = CARTESIAN_POINT ( 'NONE',  ( -4.059999999999999609, -1.950000000000001288, 15.34999999999999964 ) ) ;
#263 = LINE ( 'NONE', #674, #133 ) ;
#264 = EDGE_CURVE ( 'NONE', #204, #1184, #1327, .T. ) ;
#265 = DIRECTION ( 'NONE',  ( 0.0000000000000000000, -0.0000000000000000000, 1.000000000000000000 ) ) ;
#266 = AXIS2_PLACEMENT_3D ( 'NONE', #1260, #1172, #1065 ) ;
#267 = CARTESIAN_POINT ( 'NONE',  ( 1.520000000000000906, -1.950000000000001288, 15.34999999999999964 ) ) ;
#268 = DATE_TIME_ROLE ( 'creation_date' ) ;
#269 = ORIENTED_EDGE ( 'NONE', *, *, #1070, .F. ) ;
#270 = DIRECTION ( 'NONE',  ( 0.9999025050061671749, 2.387343620297240122E-16, -0.01396354118380470528 ) ) ;
#271 = ORIENTED_EDGE ( 'NONE', *, *, #1348, .F. ) ;
#272 = ORIENTED_EDGE ( 'NONE', *, *, #1338, .F. ) ;
#273 = ORIENTED_EDGE ( 'NONE', *, *, #28, .F. ) ;
#274 = EDGE_CURVE ( 'NONE', #785, #540, #311, .T. ) ;
#275 = ORIENTED_EDGE ( 'NONE', *, *, #1079, .F. ) ;
#276 = LINE ( 'NONE', #130, #839 ) ;
#277 = CARTESIAN_POINT ( 'NONE',  ( 10.40000000000000213, -4.650000000000000355, 11.35000000000000142 ) ) ;
#278 = APPROVAL_ROLE ( '' ) ;
#279 = CARTESIAN_POINT ( 'NONE',  ( -3.559999999999999609, -1.950000000000001288, 10.94999999999999929 ) ) ;
#280 = FACE_OUTER_BOUND ( 'NONE', #1265, .T. ) ;
#281 = PLANE ( 'NONE',  #603 ) ;
#282 = VECTOR ( 'NONE', #1249, 1000.000000000000000 ) ;
#283 = EDGE_CURVE ( 'NONE', #628, #326, #359, .T. ) ;
#284 = DIRECTION ( 'NONE',  ( -0.01396218033914530324, 0.0000000000000000000, 0.9999025240093042388 ) ) ;
#285 = DIRECTION ( 'NONE',  ( 1.000000000000000000, 0.0000000000000000000, 0.0000000000000000000 ) ) ;
#286 = ADVANCED_FACE ( 'NONE', ( #772 ), #4, .F. ) ;
#287 = ORIENTED_EDGE ( 'NONE', *, *, #6, .F. ) ;
#288 = CARTESIAN_POINT ( 'NONE',  ( -4.059999999999999609, -2.200000000000000622, 10.94999999999999929 ) ) ;
#289 = EDGE_LOOP ( 'NONE', ( #686, #492, #801, #1072 ) ) ;
#290 = DIRECTION ( 'NONE',  ( -0.0000000000000000000, -0.0000000000000000000, -1.000000000000000000 ) ) ;
#291 = EDGE_LOOP ( 'NONE', ( #370, #57, #208, #463 ) ) ;
#292 = EDGE_CURVE ( 'NONE', #1184, #411, #1222, .T. ) ;
#293 = VECTOR ( 'NONE', #319, 1000.000000000000000 ) ;
#294 = PLANE ( 'NONE',  #418 ) ;
#295 = AXIS2_PLACEMENT_3D ( 'NONE', #1097, #1093, #46 ) ;
#296 = CARTESIAN_POINT ( 'NONE',  ( -6.099999999999999645, -1.950000000000001288, 10.94999999999999929 ) ) ;
#297 = ADVANCED_BREP_SHAPE_REPRESENTATION ( 'TMR4WI', ( #448, #259 ), #597 ) ;
#298 = VECTOR ( 'NONE', #646, 1000.000000000000000 ) ;
#299 = CARTESIAN_POINT ( 'NONE',  ( -4.059999999999999609, -1.950000000000001288, 15.34999999999999964 ) ) ;
#300 = LINE ( 'NONE', #1204, #200 ) ;
#301 = CARTESIAN_POINT ( 'NONE',  ( 1.020000000000000462, -2.200000000000000622, 15.34999999999999964 ) ) ;
#302 = EDGE_CURVE ( 'NONE', #1158, #993, #886, .T. ) ;
#303 = PLANE ( 'NONE',  #152 ) ;
#304 = CARTESIAN_POINT ( 'NONE',  ( -9.140000000000000568, -1.950000000000001288, 10.94999999999999929 ) ) ;
#305 = LINE ( 'NONE', #1129, #172 ) ;
#306 = VERTEX_POINT ( 'NONE', #113 ) ;
#307 = VERTEX_POINT ( 'NONE', #107 ) ;
#308 = CARTESIAN_POINT ( 'NONE',  ( -6.599999999999999645, -2.200000000000000622, 10.94999999999999929 ) ) ;
#309 = EDGE_LOOP ( 'NONE', ( #765, #1187, #272, #1235 ) ) ;
#310 = CARTESIAN_POINT ( 'NONE',  ( 6.100000000000001421, -1.950000000000001288, 10.94999999999999929 ) ) ;
#311 = LINE ( 'NONE', #218, #634 ) ;
#312 = EDGE_CURVE ( 'NONE', #1264, #409, #590, .T. ) ;
#313 = AXIS2_PLACEMENT_3D ( 'NONE', #242, #549, #455 ) ;
#314 = CARTESIAN_POINT ( 'NONE',  ( 6.100000000000001421, -1.950000000000001288, 15.34999999999999964 ) ) ;
#315 = LINE ( 'NONE', #146, #712 ) ;
#316 = VECTOR ( 'NONE', #919, 1000.000000000000000 ) ;
#317 = FACE_OUTER_BOUND ( 'NONE', #1199, .T. ) ;
#318 = DIRECTION ( 'NONE',  ( -1.000000000000000000, 0.0000000000000000000, -0.0000000000000000000 ) ) ;
#319 = DIRECTION ( 'NONE',  ( -0.0000000000000000000, -1.000000000000000000, -0.0000000000000000000 ) ) ;
#320 = AXIS2_PLACEMENT_3D ( 'NONE', #1013, #1319, #1019 ) ;
#321 = ORIENTED_EDGE ( 'NONE', *, *, #120, .T. ) ;
#322 = DIRECTION ( 'NONE',  ( -0.01396218033914430924, 0.01396081936177956395, -0.9998050575201772316 ) ) ;
#323 = ORIENTED_EDGE ( 'NONE', *, *, #1274, .T. ) ;
#324 = CARTESIAN_POINT ( 'NONE',  ( -6.599999999999999645, -2.200000000000000622, 15.34999999999999964 ) ) ;
#325 = ORIENTED_EDGE ( 'NONE', *, *, #630, .T. ) ;
#326 = VERTEX_POINT ( 'NONE', #844 ) ;
#327 = PLANE ( 'NONE',  #513 ) ;
#328 = ORIENTED_EDGE ( 'NONE', *, *, #423, .T. ) ;
#329 = VECTOR ( 'NONE', #1256, 1000.000000000000000 ) ;
#330 = EDGE_CURVE ( 'NONE', #1214, #411, #559, .T. ) ;
#331 = LOCAL_TIME ( 9, 29, 50.00000000000000000, #86 ) ;
#332 = AXIS2_PLACEMENT_3D ( 'NONE', #1270, #845, #632 ) ;
#333 = LINE ( 'NONE', #1241, #1115 ) ;
#334 = CARTESIAN_POINT ( 'NONE',  ( 10.74152925315070028, 4.650000000000000355, 0.001106352494397269985 ) ) ;
#335 = VECTOR ( 'NONE', #614, 1000.000000000000000 ) ;
#336 = CARTESIAN_POINT ( 'NONE',  ( 3.560000000000000497, -2.200000000000000622, 15.34999999999999964 ) ) ;
#337 = EDGE_CURVE ( 'NONE', #1041, #522, #669, .T. ) ;
#338 = VERTEX_POINT ( 'NONE', #744 ) ;
#339 = ORIENTED_EDGE ( 'NONE', *, *, #1017, .F. ) ;
#340 = DIRECTION ( 'NONE',  ( -1.000000000000000000, 0.0000000000000000000, 0.0000000000000000000 ) ) ;
#341 = ORIENTED_EDGE ( 'NONE', *, *, #1116, .F. ) ;
#342 = VERTEX_POINT ( 'NONE', #519 ) ;
#343 = LINE ( 'NONE', #100, #806 ) ;
#344 = CARTESIAN_POINT ( 'NONE',  ( -10.90000000000000036, 4.491513804551787281, 3.006966962752766204E-17 ) ) ;
#345 = DIRECTION ( 'NONE',  ( -0.0000000000000000000, -0.0000000000000000000, -1.000000000000000000 ) ) ;
#346 = VECTOR ( 'NONE', #963, 1000.000000000000000 ) ;
#347 = LINE ( 'NONE', #991, #247 ) ;
#348 = EDGE_CURVE ( 'NONE', #993, #904, #1345, .T. ) ;
#349 = VECTOR ( 'NONE', #768, 1000.000000000000000 ) ;
#350 = CARTESIAN_POINT ( 'NONE',  ( 4.060000000000001386, -2.200000000000000622, 15.34999999999999964 ) ) ;
#351 = DIRECTION ( 'NONE',  ( 1.000000000000000000, 0.0000000000000000000, 0.0000000000000000000 ) ) ;
#352 = ORIENTED_EDGE ( 'NONE', *, *, #762, .F. ) ;
#353 = DIRECTION ( 'NONE',  ( -0.0000000000000000000, -0.0000000000000000000, -1.000000000000000000 ) ) ;
#354 = EDGE_CURVE ( 'NONE', #589, #98, #63, .T. ) ;
#355 = ORIENTED_EDGE ( 'NONE', *, *, #585, .F. ) ;
#356 = ORIENTED_EDGE ( 'NONE', *, *, #617, .F. ) ;
#357 = CARTESIAN_POINT ( 'NONE',  ( 4.060000000000001386, -1.950000000000001288, 15.34999999999999964 ) ) ;
#358 = ORIENTED_EDGE ( 'NONE', *, *, #998, .F. ) ;
#359 = LINE ( 'NONE', #212, #542 ) ;
#360 = DIRECTION ( 'NONE',  ( -1.000000000000000000, 0.0000000000000000000, -0.0000000000000000000 ) ) ;
#361 = DIRECTION ( 'NONE',  ( -1.000000000000000000, -0.0000000000000000000, -0.0000000000000000000 ) ) ;
#362 = EDGE_CURVE ( 'NONE', #38, #1264, #1203, .T. ) ;
#363 = DIRECTION ( 'NONE',  ( 0.0000000000000000000, 1.000000000000000000, 0.0000000000000000000 ) ) ;
#364 = LINE ( 'NONE', #412, #1245 ) ;
#365 = VECTOR ( 'NONE', #748, 1000.000000000000000 ) ;
#366 = VECTOR ( 'NONE', #1213, 1000.000000000000000 ) ;
#367 = VECTOR ( 'NONE', #935, 1000.000000000000000 ) ;
#368 = DIRECTION ( 'NONE',  ( 0.0000000000000000000, 1.000000000000000000, 0.0000000000000000000 ) ) ;
#369 = DIRECTION ( 'NONE',  ( 0.01396218033914430924, -0.01396081936177956395, -0.9998050575201772316 ) ) ;
#370 = ORIENTED_EDGE ( 'NONE', *, *, #337, .F. ) ;
#371 = CARTESIAN_POINT ( 'NONE',  ( -6.099999999999999645, -2.200000000000000622, 10.94999999999999929 ) ) ;
#372 = ORIENTED_EDGE ( 'NONE', *, *, #778, .T. ) ;
#373 = CARTESIAN_POINT ( 'NONE',  ( -6.099999999999999645, -2.200000000000000622, 10.94999999999999929 ) ) ;
#374 = EDGE_CURVE ( 'NONE', #885, #880, #41, .T. ) ;
#375 = ORIENTED_EDGE ( 'NONE', *, *, #203, .F. ) ;
#376 = CARTESIAN_POINT ( 'NONE',  ( 1.020000000000000462, -2.200000000000000622, 15.34999999999999964 ) ) ;
#377 = ORIENTED_EDGE ( 'NONE', *, *, #936, .F. ) ;
#378 = ORIENTED_EDGE ( 'NONE', *, *, #170, .T. ) ;
#379 = FACE_OUTER_BOUND ( 'NONE', #734, .T. ) ;
#380 = DIRECTION ( 'NONE',  ( -0.9999025240093042388, 0.0000000000000000000, -0.01396218033914530324 ) ) ;
#381 = CARTESIAN_POINT ( 'NONE',  ( -3.559999999999999609, -2.200000000000000622, 10.94999999999999929 ) ) ;
#382 = LINE ( 'NONE', #442, #595 ) ;
#383 = SECURITY_CLASSIFICATION_LEVEL ( 'unclassified' ) ;
#384 = VECTOR ( 'NONE', #794, 1000.000000000000000 ) ;
#385 = VECTOR ( 'NONE', #807, 1000.000000000000000 ) ;
#386 = EDGE_CURVE ( 'NONE', #38, #1291, #853, .T. ) ;
#387 = CARTESIAN_POINT ( 'NONE',  ( -4.059999999999999609, -1.950000000000001288, 15.34999999999999964 ) ) ;
#388 = AXIS2_PLACEMENT_3D ( 'NONE', #784, #1003, #49 ) ;
#389 = MECHANICAL_CONTEXT ( 'NONE', #1224, 'mechanical' ) ;
#390 = DIRECTION ( 'NONE',  ( -0.0000000000000000000, -0.0000000000000000000, -1.000000000000000000 ) ) ;
#391 = ORIENTED_EDGE ( 'NONE', *, *, #196, .F. ) ;
#392 = DIRECTION ( 'NONE',  ( -1.000000000000000000, 0.0000000000000000000, -0.0000000000000000000 ) ) ;
#393 = ORIENTED_EDGE ( 'NONE', *, *, #233, .F. ) ;
#394 = ORIENTED_EDGE ( 'NONE', *, *, #502, .T. ) ;
#395 = VERTEX_POINT ( 'NONE', #314 ) ;
#396 = ORIENTED_EDGE ( 'NONE', *, *, #865, .F. ) ;
#397 = VECTOR ( 'NONE', #728, 1000.000000000000000 ) ;
#398 = DIRECTION ( 'NONE',  ( -1.000000000000000000, 0.0000000000000000000, 0.0000000000000000000 ) ) ;
#399 = PERSON_AND_ORGANIZATION_ROLE ( 'creator' ) ;
#400 = DIRECTION ( 'NONE',  ( 0.0000000000000000000, -1.000000000000000000, 0.0000000000000000000 ) ) ;
#401 = VECTOR ( 'NONE', #679, 1000.000000000000000 ) ;
#402 = CARTESIAN_POINT ( 'NONE',  ( 9.140000000000002345, -2.200000000000000622, 10.94999999999999929 ) ) ;
#403 = LINE ( 'NONE', #10, #365 ) ;
#404 = VECTOR ( 'NONE', #390, 1000.000000000000000 ) ;
#405 = ADVANCED_FACE ( 'NONE', ( #115 ), #840, .T. ) ;
#406 = EDGE_CURVE ( 'NONE', #818, #307, #529, .T. ) ;
#407 = CARTESIAN_POINT ( 'NONE',  ( 0.0000000000000000000, -6.154744128037440034E-16, 11.35000000000000142 ) ) ;
#408 = CARTESIAN_POINT ( 'NONE',  ( -6.599999999999999645, -1.950000000000001288, 15.34999999999999964 ) ) ;
#409 = VERTEX_POINT ( 'NONE', #536 ) ;
#410 = ADVANCED_FACE ( 'NONE', ( #573 ), #1174, .F. ) ;
#411 = VERTEX_POINT ( 'NONE', #449 ) ;
#412 = CARTESIAN_POINT ( 'NONE',  ( 6.600000000000001421, -2.200000000000000622, 15.34999999999999964 ) ) ;
#413 = ORIENTED_EDGE ( 'NONE', *, *, #337, .T. ) ;
#414 = EDGE_CURVE ( 'NONE', #206, #851, #1240, .T. ) ;
#415 = ORIENTED_EDGE ( 'NONE', *, *, #239, .T. ) ;
#416 = VECTOR ( 'NONE', #285, 1000.000000000000000 ) ;
#417 = CARTESIAN_POINT ( 'NONE',  ( -9.140000000000000568, -2.200000000000000622, 15.34999999999999964 ) ) ;
#418 = AXIS2_PLACEMENT_3D ( 'NONE', #1336, #929, #1351 ) ;
#419 = CALENDAR_DATE ( 2020, 7, 4 ) ;
#420 = CARTESIAN_POINT ( 'NONE',  ( 3.560000000000000497, -1.950000000000001288, 10.94999999999999929 ) ) ;
#421 = LINE ( 'NONE', #508, #248 ) ;
#422 = LINE ( 'NONE', #51, #660 ) ;
#423 = EDGE_CURVE ( 'NONE', #1255, #36, #99, .T. ) ;
#424 = DIRECTION ( 'NONE',  ( -0.01396218033914430924, -0.01396081936177956395, 0.9998050575201772316 ) ) ;
#425 = EDGE_LOOP ( 'NONE', ( #819, #1237, #321, #241 ) ) ;
#426 = EDGE_LOOP ( 'NONE', ( #80, #445, #960, #30 ) ) ;
#427 = ORIENTED_EDGE ( 'NONE', *, *, #330, .F. ) ;
#428 = DIRECTION ( 'NONE',  ( -1.000000000000000000, -0.0000000000000000000, -0.0000000000000000000 ) ) ;
#429 = ORIENTED_EDGE ( 'NONE', *, *, #423, .F. ) ;
#430 = LINE ( 'NONE', #1040, #143 ) ;
#431 = ORIENTED_EDGE ( 'NONE', *, *, #12, .F. ) ;
#432 = VECTOR ( 'NONE', #17, 1000.000000000000000 ) ;
#433 = EDGE_CURVE ( 'NONE', #1173, #395, #81, .T. ) ;
#434 = DIRECTION ( 'NONE',  ( -1.000000000000000000, -0.0000000000000000000, 0.0000000000000000000 ) ) ;
#435 = CARTESIAN_POINT ( 'NONE',  ( -6.599999999999999645, -2.200000000000000622, 10.94999999999999929 ) ) ;
#436 = LOCAL_TIME ( 9, 29, 50.00000000000000000, #872 ) ;
#437 = LINE ( 'NONE', #1362, #776 ) ;
#438 = LINE ( 'NONE', #1236, #969 ) ;
#439 = PLANE ( 'NONE',  #1352 ) ;
#440 = DIRECTION ( 'NONE',  ( -0.0000000000000000000, 1.000000000000000000, 0.0000000000000000000 ) ) ;
#441 = EDGE_CURVE ( 'NONE', #109, #554, #656, .T. ) ;
#442 = CARTESIAN_POINT ( 'NONE',  ( -10.74151380455178817, -4.650000000000000355, 2.117582368135750848E-16 ) ) ;
#443 = ORIENTED_EDGE ( 'NONE', *, *, #1226, .T. ) ;
#444 = CARTESIAN_POINT ( 'NONE',  ( 6.100000000000001421, -1.950000000000001288, 15.34999999999999964 ) ) ;
#445 = ORIENTED_EDGE ( 'NONE', *, *, #264, .F. ) ;
#446 = EDGE_LOOP ( 'NONE', ( #1201, #355, #883, #882 ) ) ;
#447 = EDGE_LOOP ( 'NONE', ( #943, #666, #600, #126 ) ) ;
#448 = MANIFOLD_SOLID_BREP ( '\X2\5BE69AD4\X0\1', #1141 ) ;
#449 = CARTESIAN_POINT ( 'NONE',  ( -9.140000000000000568, -1.950000000000001288, 10.94999999999999929 ) ) ;
#450 = EDGE_CURVE ( 'NONE', #1109, #1255, #16, .T. ) ;
#451 = DIRECTION ( 'NONE',  ( 2.387110866245702771E-16, -1.000000000000000000, -3.333577096191394007E-18 ) ) ;
#452 = APPROVAL_PERSON_ORGANIZATION ( #856, #683, #278 ) ;
#453 = PLANE ( 'NONE',  #1034 ) ;
#454 = LINE ( 'NONE', #1114, #934 ) ;
#455 = DIRECTION ( 'NONE',  ( -1.000000000000000000, 0.0000000000000000000, -0.0000000000000000000 ) ) ;
#456 = CARTESIAN_POINT ( 'NONE',  ( 1.520000000000000906, -2.200000000000000622, 15.34999999999999964 ) ) ;
#457 = EDGE_CURVE ( 'NONE', #604, #834, #145, .T. ) ;
#458 = ORIENTED_EDGE ( 'NONE', *, *, #906, .T. ) ;
#459 = EDGE_LOOP ( 'NONE', ( #129, #378, #1303, #570 ) ) ;
#460 = PLANE ( 'NONE',  #1124 ) ;
#461 = ORIENTED_EDGE ( 'NONE', *, *, #762, .T. ) ;
#462 = ORIENTED_EDGE ( 'NONE', *, *, #865, .T. ) ;
#463 = ORIENTED_EDGE ( 'NONE', *, *, #612, .F. ) ;
#464 = VECTOR ( 'NONE', #1087, 1000.000000000000114 ) ;
#465 = CARTESIAN_POINT ( 'NONE',  ( 6.100000000000001421, -2.200000000000000622, 15.34999999999999964 ) ) ;
#466 = LINE ( 'NONE', #262, #401 ) ;
#467 = AXIS2_PLACEMENT_3D ( 'NONE', #1027, #398, #930 ) ;
#468 = FACE_OUTER_BOUND ( 'NONE', #571, .T. ) ;
#469 = CARTESIAN_POINT ( 'NONE',  ( -10.39441403892320892, -4.644414583420330978, 10.95000000000000107 ) ) ;
#470 = VECTOR ( 'NONE', #1220, 1000.000000000000000 ) ;
#471 = CARTESIAN_POINT ( 'NONE',  ( 1.520000000000000906, -2.200000000000000622, 10.94999999999999929 ) ) ;
#472 = DIRECTION ( 'NONE',  ( 0.0000000000000000000, 0.0000000000000000000, 1.000000000000000000 ) ) ;
#473 = EDGE_CURVE ( 'NONE', #1218, #554, #246, .T. ) ;
#474 = ORIENTED_EDGE ( 'NONE', *, *, #494, .F. ) ;
#475 = ORIENTED_EDGE ( 'NONE', *, *, #134, .T. ) ;
#476 = DIRECTION ( 'NONE',  ( -1.000000000000000000, 0.0000000000000000000, 0.0000000000000000000 ) ) ;
#477 = ORIENTED_EDGE ( 'NONE', *, *, #982, .F. ) ;
#478 = ORIENTED_EDGE ( 'NONE', *, *, #457, .F. ) ;
#479 = CARTESIAN_POINT ( 'NONE',  ( -10.40000000000000213, 4.650000000000000355, 11.35000000000000142 ) ) ;
#480 = DIRECTION ( 'NONE',  ( 1.000000000000000000, 0.0000000000000000000, 0.0000000000000000000 ) ) ;
#481 = LOCAL_TIME ( 9, 29, 50.00000000000000000, #1269 ) ;
#482 = EDGE_CURVE ( 'NONE', #110, #1264, #1111, .T. ) ;
#483 = PLANE ( 'NONE',  #320 ) ;
#484 = LINE ( 'NONE', #350, #997 ) ;
#485 = ADVANCED_FACE ( 'NONE', ( #379 ), #652, .F. ) ;
#486 = AXIS2_PLACEMENT_3D ( 'NONE', #966, #733, #535 ) ;
#487 = DIRECTION ( 'NONE',  ( -0.01396354118380470528, 0.0000000000000000000, -0.9999025050061671749 ) ) ;
#488 = LINE ( 'NONE', #471, #1117 ) ;
#489 = CARTESIAN_POINT ( 'NONE',  ( 10.90000000000000036, 4.649999999999999467, 11.35000000000000142 ) ) ;
#490 = DIRECTION ( 'NONE',  ( 0.0000000000000000000, -1.000000000000000000, 0.0000000000000000000 ) ) ;
#491 = ORIENTED_EDGE ( 'NONE', *, *, #1289, .F. ) ;
#492 = ORIENTED_EDGE ( 'NONE', *, *, #1150, .F. ) ;
#493 = CARTESIAN_POINT ( 'NONE',  ( 4.060000000000001386, -2.200000000000000622, 15.34999999999999964 ) ) ;
#494 = EDGE_CURVE ( 'NONE', #409, #1023, #276, .T. ) ;
#495 = ORIENTED_EDGE ( 'NONE', *, *, #1359, .F. ) ;
#496 = DIRECTION ( 'NONE',  ( 0.0000000000000000000, 1.000000000000000000, 0.0000000000000000000 ) ) ;
#497 = VECTOR ( 'NONE', #615, 1000.000000000000000 ) ;
#498 = CARTESIAN_POINT ( 'NONE',  ( -9.140000000000000568, -2.200000000000000622, 10.94999999999999929 ) ) ;
#499 = CALENDAR_DATE ( 2020, 7, 4 ) ;
#500 = VECTOR ( 'NONE', #697, 1000.000000000000000 ) ;
#501 = FACE_OUTER_BOUND ( 'NONE', #447, .T. ) ;
#502 = EDGE_CURVE ( 'NONE', #629, #1041, #1191, .T. ) ;
#503 = CARTESIAN_POINT ( 'NONE',  ( 6.600000000000001421, -2.200000000000000622, 15.34999999999999964 ) ) ;
#504 = CC_DESIGN_DATE_AND_TIME_ASSIGNMENT ( #1312, #702, ( #757 ) ) ;
#505 = DIRECTION ( 'NONE',  ( -0.0000000000000000000, -0.0000000000000000000, -1.000000000000000000 ) ) ;
#506 = PERSON_AND_ORGANIZATION_ROLE ( 'design_owner' ) ;
#507 = CARTESIAN_POINT ( 'NONE',  ( 3.560000000000000497, -1.950000000000001288, 15.34999999999999964 ) ) ;
#508 = CARTESIAN_POINT ( 'NONE',  ( 1.020000000000000462, -2.200000000000000622, 10.94999999999999929 ) ) ;
#509 = EDGE_LOOP ( 'NONE', ( #162, #961, #511, #192 ) ) ;
#510 = EDGE_CURVE ( 'NONE', #851, #907, #708, .T. ) ;
#511 = ORIENTED_EDGE ( 'NONE', *, *, #847, .F. ) ;
#512 = EDGE_LOOP ( 'NONE', ( #835, #864, #568, #520 ) ) ;
#513 = AXIS2_PLACEMENT_3D ( 'NONE', #1177, #749, #1275 ) ;
#514 = PLANE ( 'NONE',  #52 ) ;
#515 = LINE ( 'NONE', #661, #759 ) ;
#516 = FACE_OUTER_BOUND ( 'NONE', #832, .T. ) ;
#517 = EDGE_CURVE ( 'NONE', #1074, #1056, #994, .T. ) ;
#518 = ADVANCED_FACE ( 'NONE', ( #2 ), #453, .T. ) ;
#519 = CARTESIAN_POINT ( 'NONE',  ( 1.020000000000000462, -1.950000000000001288, 10.94999999999999929 ) ) ;
#520 = ORIENTED_EDGE ( 'NONE', *, *, #1338, .T. ) ;
#521 = ADVANCED_FACE ( 'NONE', ( #1095 ), #751, .F. ) ;
#522 = VERTEX_POINT ( 'NONE', #1078 ) ;
#523 = DIRECTION ( 'NONE',  ( 0.0000000000000000000, 0.0000000000000000000, -1.000000000000000000 ) ) ;
#524 = ORIENTED_EDGE ( 'NONE', *, *, #735, .F. ) ;
#525 = EDGE_CURVE ( 'NONE', #992, #1361, #927, .T. ) ;
#526 = ORIENTED_EDGE ( 'NONE', *, *, #473, .T. ) ;
#527 = LINE ( 'NONE', #191, #244 ) ;
#528 = DIRECTION ( 'NONE',  ( 1.000000000000000000, 0.0000000000000000000, 0.0000000000000000000 ) ) ;
#529 = LINE ( 'NONE', #1192, #1162 ) ;
#530 = AXIS2_PLACEMENT_3D ( 'NONE', #1108, #260, #472 ) ;
#531 = PERSON_AND_ORGANIZATION ( #950, #774 ) ;
#532 = FACE_BOUND ( 'NONE', #11, .T. ) ;
#533 = CARTESIAN_POINT ( 'NONE',  ( 10.90000000000000036, -4.644414583420327425, 10.95000000000000107 ) ) ;
#534 = AXIS2_PLACEMENT_3D ( 'NONE', #174, #380, #284 ) ;
#535 = DIRECTION ( 'NONE',  ( 0.0000000000000000000, 0.0000000000000000000, 1.000000000000000000 ) ) ;
#536 = CARTESIAN_POINT ( 'NONE',  ( -10.40000000000000036, -4.650000000000001243, 11.35000000000000142 ) ) ;
#537 = ORIENTED_EDGE ( 'NONE', *, *, #84, .F. ) ;
#538 = VERTEX_POINT ( 'NONE', #1105 ) ;
#539 = DIRECTION ( 'NONE',  ( 0.0000000000000000000, 0.0000000000000000000, -1.000000000000000000 ) ) ;
#540 = VERTEX_POINT ( 'NONE', #978 ) ;
#541 = DIRECTION ( 'NONE',  ( -4.774221732491405543E-16, 1.000000000000000000, -6.667154192382788013E-18 ) ) ;
#542 = VECTOR ( 'NONE', #1069, 1000.000000000000000 ) ;
#543 = EDGE_CURVE ( 'NONE', #395, #604, #229, .T. ) ;
#544 = CARTESIAN_POINT ( 'NONE',  ( 6.100000000000001421, -2.200000000000000622, 10.94999999999999929 ) ) ;
#545 = AXIS2_PLACEMENT_3D ( 'NONE', #35, #476, #796 ) ;
#546 = CARTESIAN_POINT ( 'NONE',  ( 8.640000000000002345, -1.950000000000001288, 15.34999999999999964 ) ) ;
#547 = LINE ( 'NONE', #1086, #261 ) ;
#548 = FACE_OUTER_BOUND ( 'NONE', #509, .T. ) ;
#549 = DIRECTION ( 'NONE',  ( 0.0000000000000000000, 0.0000000000000000000, -1.000000000000000000 ) ) ;
#550 = CARTESIAN_POINT ( 'NONE',  ( -10.89999999999999858, -4.650000000000000355, 11.35000000000000142 ) ) ;
#551 = EDGE_CURVE ( 'NONE', #1255, #1158, #263, .T. ) ;
#552 = DIRECTION ( 'NONE',  ( -0.0000000000000000000, -1.000000000000000000, -0.0000000000000000000 ) ) ;
#553 = DIRECTION ( 'NONE',  ( 0.0000000000000000000, 1.000000000000000000, 0.0000000000000000000 ) ) ;
#554 = VERTEX_POINT ( 'NONE', #1302 ) ;
#555 = ORIENTED_EDGE ( 'NONE', *, *, #710, .F. ) ;
#556 = CARTESIAN_POINT ( 'NONE',  ( -4.059999999999999609, -2.200000000000000622, 15.34999999999999964 ) ) ;
#557 = EDGE_LOOP ( 'NONE', ( #1323, #977, #526, #866 ) ) ;
#558 = ORIENTED_EDGE ( 'NONE', *, *, #414, .F. ) ;
#559 = LINE ( 'NONE', #1067, #497 ) ;
#560 = EDGE_CURVE ( 'NONE', #1120, #589, #1314, .T. ) ;
#561 = CARTESIAN_POINT ( 'NONE',  ( 6.600000000000001421, -2.200000000000000622, 10.94999999999999929 ) ) ;
#562 = FACE_OUTER_BOUND ( 'NONE', #426, .T. ) ;
#563 = VECTOR ( 'NONE', #451, 1000.000000000000000 ) ;
#564 = CARTESIAN_POINT ( 'NONE',  ( -4.059999999999999609, -2.200000000000000622, 15.34999999999999964 ) ) ;
#565 = CARTESIAN_POINT ( 'NONE',  ( -9.140000000000000568, -2.200000000000000622, 10.94999999999999929 ) ) ;
#566 = EDGE_CURVE ( 'NONE', #1339, #737, #859, .T. ) ;
#567 = AXIS2_PLACEMENT_3D ( 'NONE', #1091, #980, #1279 ) ;
#568 = ORIENTED_EDGE ( 'NONE', *, *, #1212, .T. ) ;
#569 = DIRECTION ( 'NONE',  ( 0.0000000000000000000, 0.0000000000000000000, -1.000000000000000000 ) ) ;
#570 = ORIENTED_EDGE ( 'NONE', *, *, #593, .T. ) ;
#571 = EDGE_LOOP ( 'NONE', ( #619, #1251, #939, #474 ) ) ;
#572 = DIRECTION ( 'NONE',  ( 0.0000000000000000000, -1.000000000000000000, 0.0000000000000000000 ) ) ;
#573 = FACE_OUTER_BOUND ( 'NONE', #804, .T. ) ;
#574 = DIRECTION ( 'NONE',  ( -0.0000000000000000000, -0.0000000000000000000, -1.000000000000000000 ) ) ;
#575 = EDGE_CURVE ( 'NONE', #338, #1344, #300, .T. ) ;
#576 = ADVANCED_FACE ( 'NONE', ( #1353 ), #147, .F. ) ;
#577 = AXIS2_PLACEMENT_3D ( 'NONE', #407, #831, #711 ) ;
#578 = PLANE ( 'NONE',  #22 ) ;
#579 = LINE ( 'NONE', #344, #298 ) ;
#580 = VECTOR ( 'NONE', #250, 1000.000000000000000 ) ;
#581 = DIRECTION ( 'NONE',  ( 1.000000000000000000, 0.0000000000000000000, 0.0000000000000000000 ) ) ;
#582 = CARTESIAN_POINT ( 'NONE',  ( 1.520000000000000906, -1.950000000000001288, 15.34999999999999964 ) ) ;
#583 = ADVANCED_FACE ( 'NONE', ( #717 ), #1200, .F. ) ;
#584 = DIRECTION ( 'NONE',  ( -0.0000000000000000000, -0.0000000000000000000, -1.000000000000000000 ) ) ;
#585 = EDGE_CURVE ( 'NONE', #411, #818, #795, .T. ) ;
#586 = LINE ( 'NONE', #1210, #137 ) ;
#587 = ORIENTED_EDGE ( 'NONE', *, *, #551, .T. ) ;
#588 = ORIENTED_EDGE ( 'NONE', *, *, #972, .F. ) ;
#589 = VERTEX_POINT ( 'NONE', #996 ) ;
#590 = LINE ( 'NONE', #954, #944 ) ;
#591 = DIRECTION ( 'NONE',  ( 0.0000000000000000000, -0.0000000000000000000, -1.000000000000000000 ) ) ;
#592 = APPROVAL_DATE_TIME ( #166, #779 ) ;
#593 = EDGE_CURVE ( 'NONE', #1344, #245, #149, .T. ) ;
#594 = DIRECTION ( 'NONE',  ( 0.0000000000000000000, 1.000000000000000000, 0.0000000000000000000 ) ) ;
#595 = VECTOR ( 'NONE', #552, 1000.000000000000000 ) ;
#596 = VECTOR ( 'NONE', #724, 1000.000000000000000 ) ;
#597 =( GEOMETRIC_REPRESENTATION_CONTEXT ( 3 ) GLOBAL_UNCERTAINTY_ASSIGNED_CONTEXT ( ( #640 ) ) GLOBAL_UNIT_ASSIGNED_CONTEXT ( ( #83, #1334, #1233 ) ) REPRESENTATION_CONTEXT ( 'NONE', 'WORKASPACE' ) );
#598 = LINE ( 'NONE', #7, #932 ) ;
#599 = PLANE ( 'NONE',  #577 ) ;
#600 = ORIENTED_EDGE ( 'NONE', *, *, #221, .F. ) ;
#601 = ORIENTED_EDGE ( 'NONE', *, *, #65, .T. ) ;
#602 = CARTESIAN_POINT ( 'NONE',  ( -4.059999999999999609, -1.950000000000001288, 15.34999999999999964 ) ) ;
#603 = AXIS2_PLACEMENT_3D ( 'NONE', #408, #1143, #87 ) ;
#604 = VERTEX_POINT ( 'NONE', #140 ) ;
#605 = CARTESIAN_POINT ( 'NONE',  ( 6.100000000000001421, -1.950000000000001288, 15.34999999999999964 ) ) ;
#606 = ORIENTED_EDGE ( 'NONE', *, *, #928, .F. ) ;
#607 = ADVANCED_FACE ( 'NONE', ( #643 ), #888, .F. ) ;
#608 = ORIENTED_EDGE ( 'NONE', *, *, #141, .T. ) ;
#609 = VECTOR ( 'NONE', #202, 1000.000000000000000 ) ;
#610 = DIRECTION ( 'NONE',  ( 0.0000000000000000000, -0.0000000000000000000, -1.000000000000000000 ) ) ;
#611 = FACE_BOUND ( 'NONE', #291, .T. ) ;
#612 = EDGE_CURVE ( 'NONE', #522, #665, #488, .T. ) ;
#613 = FACE_OUTER_BOUND ( 'NONE', #557, .T. ) ;
#614 = DIRECTION ( 'NONE',  ( 1.000000000000000000, 0.0000000000000000000, -0.0000000000000000000 ) ) ;
#615 = DIRECTION ( 'NONE',  ( -0.0000000000000000000, -0.0000000000000000000, -1.000000000000000000 ) ) ;
#616 = ORIENTED_EDGE ( 'NONE', *, *, #1318, .T. ) ;
#617 = EDGE_CURVE ( 'NONE', #409, #1218, #1085, .T. ) ;
#618 = ADVANCED_FACE ( 'NONE', ( #1050 ), #1193, .F. ) ;
#619 = ORIENTED_EDGE ( 'NONE', *, *, #312, .F. ) ;
#620 = ORIENTED_EDGE ( 'NONE', *, *, #502, .F. ) ;
#621 = ORIENTED_EDGE ( 'NONE', *, *, #1116, .T. ) ;
#622 = ORIENTED_EDGE ( 'NONE', *, *, #134, .F. ) ;
#623 = PERSON_AND_ORGANIZATION ( #950, #774 ) ;
#624 = LINE ( 'NONE', #68, #316 ) ;
#625 = FACE_OUTER_BOUND ( 'NONE', #309, .T. ) ;
#626 = DIRECTION ( 'NONE',  ( 0.0000000000000000000, 0.01396218033914530324, 0.9999025240093042388 ) ) ;
#627 = EDGE_LOOP ( 'NONE', ( #558, #771, #97, #725, #1121, #256, #820, #462 ) ) ;
#628 = VERTEX_POINT ( 'NONE', #680 ) ;
#629 = VERTEX_POINT ( 'NONE', #670 ) ;
#630 = EDGE_CURVE ( 'NONE', #338, #522, #952, .T. ) ;
#631 = ORIENTED_EDGE ( 'NONE', *, *, #1234, .F. ) ;
#632 = DIRECTION ( 'NONE',  ( 1.000000000000000000, 0.0000000000000000000, -0.0000000000000000000 ) ) ;
#633 = ORIENTED_EDGE ( 'NONE', *, *, #654, .F. ) ;
#634 = VECTOR ( 'NONE', #1052, 1000.000000000000000 ) ;
#635 = PRODUCT_DEFINITION ( 'UNKNOWN', '', #714, #114 ) ;
#636 = CARTESIAN_POINT ( 'NONE',  ( 10.89999999999999858, -4.650000000000000355, 11.35000000000000142 ) ) ;
#637 = PRODUCT_DEFINITION_SHAPE ( 'NONE', 'NONE',  #635 ) ;
#638 = PERSON_AND_ORGANIZATION ( #950, #774 ) ;
#639 = CARTESIAN_POINT ( 'NONE',  ( -4.059999999999999609, -1.950000000000001288, 10.94999999999999929 ) ) ;
#640 = UNCERTAINTY_MEASURE_WITH_UNIT (LENGTH_MEASURE( 1.000000000000000082E-05 ), #83, 'distance_accuracy_value', 'NONE');
#641 = FACE_OUTER_BOUND ( 'NONE', #1239, .T. ) ;
#642 = VECTOR ( 'NONE', #986, 1000.000000000000000 ) ;
#643 = FACE_OUTER_BOUND ( 'NONE', #512, .T. ) ;
#644 = EDGE_CURVE ( 'NONE', #98, #1107, #1208, .T. ) ;
#645 = AXIS2_PLACEMENT_3D ( 'NONE', #700, #1337, #392 ) ;
#646 = DIRECTION ( 'NONE',  ( -1.000000000000000000, 0.0000000000000000000, -0.0000000000000000000 ) ) ;
#647 = CARTESIAN_POINT ( 'NONE',  ( 8.640000000000002345, -2.200000000000000622, 15.34999999999999964 ) ) ;
#648 = ORIENTED_EDGE ( 'NONE', *, *, #302, .T. ) ;
#649 = ORIENTED_EDGE ( 'NONE', *, *, #348, .T. ) ;
#650 = CARTESIAN_POINT ( 'NONE',  ( 2.775557561562889872E-16, -8.326672684688670109E-16, 10.94999999999999929 ) ) ;
#651 = ORIENTED_EDGE ( 'NONE', *, *, #575, .F. ) ;
#652 = PLANE ( 'NONE',  #938 ) ;
#653 = ORIENTED_EDGE ( 'NONE', *, *, #354, .F. ) ;
#654 = EDGE_CURVE ( 'NONE', #880, #326, #454, .T. ) ;
#655 = VECTOR ( 'NONE', #290, 1000.000000000000000 ) ;
#656 = LINE ( 'NONE', #117, #464 ) ;
#657 = DIRECTION ( 'NONE',  ( 0.0000000000000000000, 0.0000000000000000000, 1.000000000000000000 ) ) ;
#658 = DIRECTION ( 'NONE',  ( -1.000000000000000000, -0.0000000000000000000, -0.0000000000000000000 ) ) ;
#659 = DATE_AND_TIME ( #419, #693 ) ;
#660 = VECTOR ( 'NONE', #584, 1000.000000000000000 ) ;
#661 = CARTESIAN_POINT ( 'NONE',  ( 10.39441403892323734, 4.644414583420333642, 10.94999999999999929 ) ) ;
#662 = DIRECTION ( 'NONE',  ( 0.0000000000000000000, -0.0000000000000000000, 1.000000000000000000 ) ) ;
#663 = VERTEX_POINT ( 'NONE', #1122 ) ;
#664 = DIRECTION ( 'NONE',  ( 0.0000000000000000000, 0.0000000000000000000, -1.000000000000000000 ) ) ;
#665 = VERTEX_POINT ( 'NONE', #58 ) ;
#666 = ORIENTED_EDGE ( 'NONE', *, *, #386, .T. ) ;
#667 = CARTESIAN_POINT ( 'NONE',  ( 0.0000000000000000000, 0.0000000000000000000, 15.34999999999999964 ) ) ;
#668 = ORIENTED_EDGE ( 'NONE', *, *, #406, .T. ) ;
#669 = LINE ( 'NONE', #1156, #1142 ) ;
#670 = CARTESIAN_POINT ( 'NONE',  ( 1.020000000000000462, -2.200000000000000622, 15.34999999999999964 ) ) ;
#671 = AXIS2_PLACEMENT_3D ( 'NONE', #507, #186, #814 ) ;
#672 = PLANE ( 'NONE',  #388 ) ;
#673 = VECTOR ( 'NONE', #574, 1000.000000000000000 ) ;
#674 = CARTESIAN_POINT ( 'NONE',  ( 9.140000000000002345, -1.950000000000001288, 15.34999999999999964 ) ) ;
#675 = FACE_OUTER_BOUND ( 'NONE', #1057, .T. ) ;
#676 = CARTESIAN_POINT ( 'NONE',  ( 3.560000000000000497, -1.950000000000001288, 15.34999999999999964 ) ) ;
#677 = VECTOR ( 'NONE', #1154, 1000.000000000000000 ) ;
#678 = VECTOR ( 'NONE', #1356, 1000.000000000000000 ) ;
#679 = DIRECTION ( 'NONE',  ( -0.0000000000000000000, -0.0000000000000000000, -1.000000000000000000 ) ) ;
#680 = CARTESIAN_POINT ( 'NONE',  ( -3.559999999999999609, -2.200000000000000622, 15.34999999999999964 ) ) ;
#681 = EDGE_CURVE ( 'NONE', #1023, #110, #104, .T. ) ;
#682 = DIRECTION ( 'NONE',  ( -0.0000000000000000000, -0.0000000000000000000, -1.000000000000000000 ) ) ;
#683 = APPROVAL ( #76, 'UNSPECIFIED' ) ;
#684 = ORIENTED_EDGE ( 'NONE', *, *, #190, .F. ) ;
#685 = CARTESIAN_POINT ( 'NONE',  ( 3.560000000000000497, -1.950000000000001288, 15.34999999999999964 ) ) ;
#686 = ORIENTED_EDGE ( 'NONE', *, *, #720, .T. ) ;
#687 = ORIENTED_EDGE ( 'NONE', *, *, #196, .T. ) ;
#688 = ADVANCED_FACE ( 'NONE', ( #548 ), #706, .F. ) ;
#689 = CARTESIAN_POINT ( 'NONE',  ( 6.100000000000001421, -1.950000000000001288, 10.94999999999999929 ) ) ;
#690 = ORIENTED_EDGE ( 'NONE', *, *, #348, .F. ) ;
#691 = EDGE_CURVE ( 'NONE', #1056, #838, #1228, .T. ) ;
#692 = CARTESIAN_POINT ( 'NONE',  ( -6.599999999999999645, -2.200000000000000622, 15.34999999999999964 ) ) ;
#693 = LOCAL_TIME ( 9, 29, 50.00000000000000000, #983 ) ;
#694 = APPROVAL_ROLE ( '' ) ;
#695 = VECTOR ( 'NONE', #37, 1000.000000000000000 ) ;
#696 = DIRECTION ( 'NONE',  ( -0.01396081962705680163, -0.01396081962705802461, -0.9998050765177587396 ) ) ;
#697 = DIRECTION ( 'NONE',  ( -0.0000000000000000000, -0.0000000000000000000, -1.000000000000000000 ) ) ;
#698 = CARTESIAN_POINT ( 'NONE',  ( 10.90000000000000036, -4.649999999999999467, 11.35000000000000142 ) ) ;
#699 = ORIENTED_EDGE ( 'NONE', *, *, #274, .F. ) ;
#700 = CARTESIAN_POINT ( 'NONE',  ( 0.0000000000000000000, 0.0000000000000000000, 15.34999999999999964 ) ) ;
#701 = ORIENTED_EDGE ( 'NONE', *, *, #1159, .F. ) ;
#702 = DATE_TIME_ROLE ( 'classification_date' ) ;
#703 = ADVANCED_FACE ( 'NONE', ( #516 ), #483, .F. ) ;
#704 = VERTEX_POINT ( 'NONE', #1006 ) ;
#705 = VERTEX_POINT ( 'NONE', #493 ) ;
#706 = PLANE ( 'NONE',  #127 ) ;
#707 = ORIENTED_EDGE ( 'NONE', *, *, #1044, .T. ) ;
#708 = LINE ( 'NONE', #227, #31 ) ;
#709 = ADVANCED_FACE ( 'NONE', ( #613 ), #899, .T. ) ;
#710 = EDGE_CURVE ( 'NONE', #1063, #992, #422, .T. ) ;
#711 = DIRECTION ( 'NONE',  ( 1.000000000000000000, 0.0000000000000000000, -0.0000000000000000000 ) ) ;
#712 = VECTOR ( 'NONE', #1104, 1000.000000000000000 ) ;
#713 = ADVANCED_FACE ( 'NONE', ( #168 ), #71, .F. ) ;
#714 = PRODUCT_DEFINITION_FORMATION_WITH_SPECIFIED_SOURCE ( 'ANY', '', #852, .NOT_KNOWN. ) ;
#715 = CARTESIAN_POINT ( 'NONE',  ( -4.059999999999999609, -2.200000000000000622, 15.34999999999999964 ) ) ;
#716 = LINE ( 'NONE', #503, #249 ) ;
#717 = FACE_OUTER_BOUND ( 'NONE', #1042, .T. ) ;
#718 = CARTESIAN_POINT ( 'NONE',  ( 0.0000000000000000000, -4.491513804551789946, 0.0000000000000000000 ) ) ;
#719 = CARTESIAN_POINT ( 'NONE',  ( -6.099999999999999645, -2.200000000000000622, 15.34999999999999964 ) ) ;
#720 = EDGE_CURVE ( 'NONE', #1361, #251, #89, .T. ) ;
#721 = ORIENTED_EDGE ( 'NONE', *, *, #150, .T. ) ;
#722 = DIRECTION ( 'NONE',  ( -0.0000000000000000000, -0.0000000000000000000, -1.000000000000000000 ) ) ;
#723 = ORIENTED_EDGE ( 'NONE', *, *, #1289, .T. ) ;
#724 = DIRECTION ( 'NONE',  ( -1.000000000000000000, -0.0000000000000000000, -0.0000000000000000000 ) ) ;
#725 = ORIENTED_EDGE ( 'NONE', *, *, #362, .T. ) ;
#726 = VERTEX_POINT ( 'NONE', #1315 ) ;
#727 = CARTESIAN_POINT ( 'NONE',  ( 10.74151380455179350, 4.491513804551789057, -1.072026073868723867E-16 ) ) ;
#728 = DIRECTION ( 'NONE',  ( -1.000000000000000000, -0.0000000000000000000, -0.0000000000000000000 ) ) ;
#729 = PERSON_AND_ORGANIZATION ( #950, #774 ) ;
#730 = EDGE_CURVE ( 'NONE', #785, #1063, #67, .T. ) ;
#731 = VECTOR ( 'NONE', #1038, 1000.000000000000000 ) ;
#732 = CARTESIAN_POINT ( 'NONE',  ( 1.020000000000000462, -1.950000000000001288, 15.34999999999999964 ) ) ;
#733 = DIRECTION ( 'NONE',  ( -1.000000000000000000, 0.0000000000000000000, 0.0000000000000000000 ) ) ;
#734 = EDGE_LOOP ( 'NONE', ( #783, #271, #72, #1363 ) ) ;
#735 = EDGE_CURVE ( 'NONE', #206, #974, #1247, .T. ) ;
#736 = ORIENTED_EDGE ( 'NONE', *, *, #12, .T. ) ;
#737 = VERTEX_POINT ( 'NONE', #64 ) ;
#738 = CC_DESIGN_DATE_AND_TIME_ASSIGNMENT ( #214, #268, ( #635 ) ) ;
#739 = ORIENTED_EDGE ( 'NONE', *, *, #1088, .T. ) ;
#740 = CARTESIAN_POINT ( 'NONE',  ( 8.640000000000002345, -1.950000000000001288, 10.94999999999999929 ) ) ;
#741 = ORIENTED_EDGE ( 'NONE', *, *, #1175, .F. ) ;
#742 = VECTOR ( 'NONE', #658, 1000.000000000000000 ) ;
#743 = PLANE ( 'NONE',  #332 ) ;
#744 = CARTESIAN_POINT ( 'NONE',  ( 1.520000000000000906, -2.200000000000000622, 15.34999999999999964 ) ) ;
#745 = VECTOR ( 'NONE', #1001, 1000.000000000000000 ) ;
#746 = FACE_OUTER_BOUND ( 'NONE', #459, .T. ) ;
#747 = VECTOR ( 'NONE', #879, 1000.000000000000000 ) ;
#748 = DIRECTION ( 'NONE',  ( 0.0000000000000000000, 1.000000000000000000, 0.0000000000000000000 ) ) ;
#749 = DIRECTION ( 'NONE',  ( 5.092269745577701068E-17, -0.9999025240093042388, -0.01396218033914530324 ) ) ;
#750 = EDGE_LOOP ( 'NONE', ( #413, #13, #1106, #394 ) ) ;
#751 = PLANE ( 'NONE',  #1152 ) ;
#752 = VERTEX_POINT ( 'NONE', #279 ) ;
#753 = EDGE_CURVE ( 'NONE', #1357, #907, #1287, .T. ) ;
#754 = ORIENTED_EDGE ( 'NONE', *, *, #354, .T. ) ;
#755 = CARTESIAN_POINT ( 'NONE',  ( -6.099999999999999645, -2.200000000000000622, 15.34999999999999964 ) ) ;
#756 = ORIENTED_EDGE ( 'NONE', *, *, #386, .F. ) ;
#757 = SECURITY_CLASSIFICATION ( '', '', #383 ) ;
#758 = CALENDAR_DATE ( 2020, 7, 4 ) ;
#759 = VECTOR ( 'NONE', #1284, 1000.000000000000114 ) ;
#760 = DIRECTION ( 'NONE',  ( 0.0000000000000000000, -0.0000000000000000000, 1.000000000000000000 ) ) ;
#761 = VECTOR ( 'NONE', #802, 1000.000000000000000 ) ;
#762 = EDGE_CURVE ( 'NONE', #204, #1214, #1273, .T. ) ;
#763 = DIRECTION ( 'NONE',  ( -0.0000000000000000000, -1.000000000000000000, -0.0000000000000000000 ) ) ;
#764 = ORIENTED_EDGE ( 'NONE', *, *, #566, .F. ) ;
#765 = ORIENTED_EDGE ( 'NONE', *, *, #982, .T. ) ;
#766 = CARTESIAN_POINT ( 'NONE',  ( -8.640000000000000568, -2.200000000000000622, 10.94999999999999929 ) ) ;
#767 = EDGE_LOOP ( 'NONE', ( #142, #816, #1092, #226 ) ) ;
#768 = DIRECTION ( 'NONE',  ( -0.0000000000000000000, -0.0000000000000000000, -1.000000000000000000 ) ) ;
#769 = VERTEX_POINT ( 'NONE', #387 ) ;
#770 = AXIS2_PLACEMENT_3D ( 'NONE', #42, #351, #151 ) ;
#771 = ORIENTED_EDGE ( 'NONE', *, *, #735, .T. ) ;
#772 = FACE_OUTER_BOUND ( 'NONE', #990, .T. ) ;
#773 = CARTESIAN_POINT ( 'NONE',  ( 1.020000000000000462, -1.950000000000001288, 15.34999999999999964 ) ) ;
#774 = ORGANIZATION ( 'UNSPECIFIED', 'UNSPECIFIED', '' ) ;
#775 = LINE ( 'NONE', #53, #384 ) ;
#776 = VECTOR ( 'NONE', #957, 1000.000000000000000 ) ;
#777 = DIRECTION ( 'NONE',  ( -1.000000000000000000, -0.0000000000000000000, -0.0000000000000000000 ) ) ;
#778 = EDGE_CURVE ( 'NONE', #36, #993, #438, .T. ) ;
#779 = APPROVAL ( #813, 'UNSPECIFIED' ) ;
#780 = CARTESIAN_POINT ( 'NONE',  ( 4.060000000000001386, -2.200000000000000622, 15.34999999999999964 ) ) ;
#781 = DIRECTION ( 'NONE',  ( -1.000000000000000000, -0.0000000000000000000, -0.0000000000000000000 ) ) ;
#782 = ORIENTED_EDGE ( 'NONE', *, *, #283, .T. ) ;
#783 = ORIENTED_EDGE ( 'NONE', *, *, #525, .T. ) ;
#784 = CARTESIAN_POINT ( 'NONE',  ( 0.0000000000000000000, 0.0000000000000000000, 15.34999999999999964 ) ) ;
#785 = VERTEX_POINT ( 'NONE', #911 ) ;
#786 = EDGE_CURVE ( 'NONE', #726, #752, #1194, .T. ) ;
#787 = ORIENTED_EDGE ( 'NONE', *, *, #928, .T. ) ;
#788 = DIRECTION ( 'NONE',  ( 0.0000000000000000000, 1.000000000000000000, 0.0000000000000000000 ) ) ;
#789 = AXIS2_PLACEMENT_3D ( 'NONE', #324, #959, #523 ) ;
#790 = CARTESIAN_POINT ( 'NONE',  ( 10.40000000000000036, 4.650000000000001243, 11.35000000000000142 ) ) ;
#791 = DIRECTION ( 'NONE',  ( -1.000000000000000000, 0.0000000000000000000, -0.0000000000000000000 ) ) ;
#792 = CARTESIAN_POINT ( 'NONE',  ( -4.059999999999999609, -2.200000000000000622, 15.34999999999999964 ) ) ;
#793 = LINE ( 'NONE', #871, #642 ) ;
#794 = DIRECTION ( 'NONE',  ( 0.0000000000000000000, 1.000000000000000000, 0.0000000000000000000 ) ) ;
#795 = LINE ( 'NONE', #565, #21 ) ;
#796 = DIRECTION ( 'NONE',  ( 0.0000000000000000000, 0.0000000000000000000, 1.000000000000000000 ) ) ;
#797 = DIRECTION ( 'NONE',  ( 0.0000000000000000000, 1.000000000000000000, 0.0000000000000000000 ) ) ;
#798 = EDGE_CURVE ( 'NONE', #604, #1107, #1259, .T. ) ;
#799 = CARTESIAN_POINT ( 'NONE',  ( 3.560000000000000497, -1.950000000000001288, 10.94999999999999929 ) ) ;
#800 = ORIENTED_EDGE ( 'NONE', *, *, #255, .T. ) ;
#801 = ORIENTED_EDGE ( 'NONE', *, *, #955, .F. ) ;
#802 = DIRECTION ( 'NONE',  ( -1.000000000000000000, -0.0000000000000000000, -0.0000000000000000000 ) ) ;
#803 = ORIENTED_EDGE ( 'NONE', *, *, #43, .F. ) ;
#804 = EDGE_LOOP ( 'NONE', ( #800, #684, #1060, #257 ) ) ;
#805 = ADVANCED_FACE ( 'NONE', ( #915 ), #599, .T. ) ;
#806 = VECTOR ( 'NONE', #1166, 1000.000000000000000 ) ;
#807 = DIRECTION ( 'NONE',  ( -0.0000000000000000000, -0.0000000000000000000, -1.000000000000000000 ) ) ;
#808 = CC_DESIGN_APPROVAL ( #779, ( #757 ) ) ;
#809 = DIRECTION ( 'NONE',  ( -0.0000000000000000000, -1.000000000000000000, -0.0000000000000000000 ) ) ;
#810 = LINE ( 'NONE', #556, #1131 ) ;
#811 = CARTESIAN_POINT ( 'NONE',  ( -9.140000000000000568, -1.950000000000001288, 15.34999999999999964 ) ) ;
#812 = DIRECTION ( 'NONE',  ( 1.000000000000000000, 0.0000000000000000000, -0.0000000000000000000 ) ) ;
#813 = APPROVAL_STATUS ( 'not_yet_approved' ) ;
#814 = DIRECTION ( 'NONE',  ( 0.0000000000000000000, -0.0000000000000000000, -1.000000000000000000 ) ) ;
#815 = AXIS2_PLACEMENT_3D ( 'NONE', #1103, #664, #360 ) ;
#816 = ORIENTED_EDGE ( 'NONE', *, *, #551, .F. ) ;
#817 = DIRECTION ( 'NONE',  ( 1.000000000000000000, 0.0000000000000000000, 0.0000000000000000000 ) ) ;
#818 = VERTEX_POINT ( 'NONE', #498 ) ;
#819 = ORIENTED_EDGE ( 'NONE', *, *, #543, .T. ) ;
#820 = ORIENTED_EDGE ( 'NONE', *, *, #946, .F. ) ;
#821 = VECTOR ( 'NONE', #968, 1000.000000000000000 ) ;
#822 = CARTESIAN_POINT ( 'NONE',  ( -8.640000000000000568, -1.950000000000001288, 15.34999999999999964 ) ) ;
#823 = EDGE_CURVE ( 'NONE', #663, #904, #1165, .T. ) ;
#824 = DIRECTION ( 'NONE',  ( -0.0000000000000000000, -0.0000000000000000000, -1.000000000000000000 ) ) ;
#825 = LINE ( 'NONE', #121, #1101 ) ;
#826 = VECTOR ( 'NONE', #1292, 1000.000000000000000 ) ;
#827 = ADVANCED_FACE ( 'NONE', ( #187 ), #294, .F. ) ;
#828 = CARTESIAN_POINT ( 'NONE',  ( 3.560000000000000497, -2.200000000000000622, 10.94999999999999929 ) ) ;
#829 = DIRECTION ( 'NONE',  ( -0.0000000000000000000, 1.000000000000000000, 0.0000000000000000000 ) ) ;
#830 = ORIENTED_EDGE ( 'NONE', *, *, #264, .T. ) ;
#831 = DIRECTION ( 'NONE',  ( 0.0000000000000000000, 0.0000000000000000000, 1.000000000000000000 ) ) ;
#832 = EDGE_LOOP ( 'NONE', ( #1293, #161, #1007, #782 ) ) ;
#833 = DIRECTION ( 'NONE',  ( -0.0000000000000000000, -0.0000000000000000000, -1.000000000000000000 ) ) ;
#834 = VERTEX_POINT ( 'NONE', #201 ) ;
#835 = ORIENTED_EDGE ( 'NONE', *, *, #517, .T. ) ;
#836 = ADVANCED_FACE ( 'NONE', ( #625 ), #1254, .F. ) ;
#837 = CARTESIAN_POINT ( 'NONE',  ( 0.0000000000000000000, 0.0000000000000000000, 15.34999999999999964 ) ) ;
#838 = VERTEX_POINT ( 'NONE', #828 ) ;
#839 = VECTOR ( 'NONE', #541, 1000.000000000000000 ) ;
#840 = PLANE ( 'NONE',  #965 ) ;
#841 = CALENDAR_DATE ( 2020, 7, 4 ) ;
#842 = CARTESIAN_POINT ( 'NONE',  ( 3.560000000000000497, -1.950000000000001288, 15.34999999999999964 ) ) ;
#843 = LINE ( 'NONE', #766, #185 ) ;
#844 = CARTESIAN_POINT ( 'NONE',  ( -3.559999999999999609, -2.200000000000000622, 10.94999999999999929 ) ) ;
#845 = DIRECTION ( 'NONE',  ( 0.0000000000000000000, 0.0000000000000000000, 1.000000000000000000 ) ) ;
#846 = DIRECTION ( 'NONE',  ( -1.000000000000000000, -5.091773371539360726E-17, -7.109918852332943588E-19 ) ) ;
#847 = EDGE_CURVE ( 'NONE', #663, #1109, #999, .T. ) ;
#848 = ORIENTED_EDGE ( 'NONE', *, *, #213, .F. ) ;
#849 = EDGE_LOOP ( 'NONE', ( #77, #926, #1186, #339, #60, #1342, #1170, #375 ) ) ;
#850 = CARTESIAN_POINT ( 'NONE',  ( 10.40000000000000213, -4.650000000000000355, 11.35000000000000142 ) ) ;
#851 = VERTEX_POINT ( 'NONE', #93 ) ;
#852 = PRODUCT ( 'TMR4WI', 'TMR4WI', '', ( #389 ) ) ;
#853 = LINE ( 'NONE', #1055, #211 ) ;
#854 = CARTESIAN_POINT ( 'NONE',  ( -9.140000000000000568, -2.200000000000000622, 15.34999999999999964 ) ) ;
#855 = DIRECTION ( 'NONE',  ( 0.0000000000000000000, 1.000000000000000000, 0.0000000000000000000 ) ) ;
#856 = PERSON_AND_ORGANIZATION ( #950, #774 ) ;
#857 = FACE_OUTER_BOUND ( 'NONE', #194, .T. ) ;
#858 = LINE ( 'NONE', #639, #119 ) ;
#859 = LINE ( 'NONE', #136, #580 ) ;
#860 = DIRECTION ( 'NONE',  ( -0.01396081962705787195, 0.01396081962705787195, -0.9998050765177587396 ) ) ;
#861 = CARTESIAN_POINT ( 'NONE',  ( -4.059999999999999609, -2.200000000000000622, 15.34999999999999964 ) ) ;
#862 = ORIENTED_EDGE ( 'NONE', *, *, #1150, .T. ) ;
#863 = DIRECTION ( 'NONE',  ( -1.000000000000000000, -0.0000000000000000000, -0.0000000000000000000 ) ) ;
#864 = ORIENTED_EDGE ( 'NONE', *, *, #164, .T. ) ;
#865 = EDGE_CURVE ( 'NONE', #538, #851, #894, .T. ) ;
#866 = ORIENTED_EDGE ( 'NONE', *, *, #441, .F. ) ;
#867 = CARTESIAN_POINT ( 'NONE',  ( 9.140000000000002345, -1.950000000000001288, 10.94999999999999929 ) ) ;
#868 = ORIENTED_EDGE ( 'NONE', *, *, #1088, .F. ) ;
#869 = ORIENTED_EDGE ( 'NONE', *, *, #414, .T. ) ;
#870 = VECTOR ( 'NONE', #231, 1000.000000000000000 ) ;
#871 = CARTESIAN_POINT ( 'NONE',  ( 3.560000000000000497, -2.200000000000000622, 10.94999999999999929 ) ) ;
#872 = COORDINATED_UNIVERSAL_TIME_OFFSET ( 8, 0, .AHEAD. ) ;
#873 = DIRECTION ( 'NONE',  ( -0.0000000000000000000, -1.000000000000000000, -0.0000000000000000000 ) ) ;
#874 = LINE ( 'NONE', #82, #596 ) ;
#875 = FACE_OUTER_BOUND ( 'NONE', #973, .T. ) ;
#876 = EDGE_CURVE ( 'NONE', #704, #204, #1032, .T. ) ;
#877 = AXIS2_PLACEMENT_3D ( 'NONE', #1310, #1102, #1217 ) ;
#878 = CARTESIAN_POINT ( 'NONE',  ( -8.640000000000000568, -1.950000000000001288, 10.94999999999999929 ) ) ;
#879 = DIRECTION ( 'NONE',  ( -0.0000000000000000000, -1.000000000000000000, -0.0000000000000000000 ) ) ;
#880 = VERTEX_POINT ( 'NONE', #288 ) ;
#881 = ORIENTED_EDGE ( 'NONE', *, *, #955, .T. ) ;
#882 = ORIENTED_EDGE ( 'NONE', *, *, #1098, .F. ) ;
#883 = ORIENTED_EDGE ( 'NONE', *, *, #292, .F. ) ;
#884 = AXIS2_PLACEMENT_3D ( 'NONE', #792, #797, #265 ) ;
#885 = VERTEX_POINT ( 'NONE', #1140 ) ;
#886 = LINE ( 'NONE', #740, #609 ) ;
#887 = CARTESIAN_POINT ( 'NONE',  ( 9.140000000000002345, -1.950000000000001288, 15.34999999999999964 ) ) ;
#888 = PLANE ( 'NONE',  #815 ) ;
#889 = FACE_OUTER_BOUND ( 'NONE', #29, .T. ) ;
#890 = DIRECTION ( 'NONE',  ( -0.0000000000000000000, -0.0000000000000000000, -1.000000000000000000 ) ) ;
#891 = VECTOR ( 'NONE', #914, 1000.000000000000000 ) ;
#892 = FACE_OUTER_BOUND ( 'NONE', #1037, .T. ) ;
#893 = DIRECTION ( 'NONE',  ( -1.000000000000000000, 0.0000000000000000000, 0.0000000000000000000 ) ) ;
#894 = LINE ( 'NONE', #718, #335 ) ;
#895 = CARTESIAN_POINT ( 'NONE',  ( 6.100000000000001421, -2.200000000000000622, 15.34999999999999964 ) ) ;
#896 = EDGE_CURVE ( 'NONE', #726, #769, #148, .T. ) ;
#897 = CC_DESIGN_APPROVAL ( #1261, ( #635 ) ) ;
#898 = CARTESIAN_POINT ( 'NONE',  ( 10.90000000000000036, 4.649999999999999467, 11.35000000000000320 ) ) ;
#899 = PLANE ( 'NONE',  #534 ) ;
#900 = VECTOR ( 'NONE', #890, 1000.000000000000000 ) ;
#901 = PLANE ( 'NONE',  #1196 ) ;
#902 = ORIENTED_EDGE ( 'NONE', *, *, #1044, .F. ) ;
#903 = APPLICATION_CONTEXT ( 'configuration controlled 3d designs of mechanical parts and assemblies' ) ;
#904 = VERTEX_POINT ( 'NONE', #942 ) ;
#905 = ADVANCED_FACE ( 'NONE', ( #88 ), #79, .F. ) ;
#906 = EDGE_CURVE ( 'NONE', #1090, #818, #967, .T. ) ;
#907 = VERTEX_POINT ( 'NONE', #727 ) ;
#908 = DIRECTION ( 'NONE',  ( 1.000000000000000000, 0.0000000000000000000, 0.0000000000000000000 ) ) ;
#909 = VECTOR ( 'NONE', #9, 1000.000000000000000 ) ;
#910 = CARTESIAN_POINT ( 'NONE',  ( 8.640000000000002345, -1.950000000000001288, 15.34999999999999964 ) ) ;
#911 = CARTESIAN_POINT ( 'NONE',  ( -6.599999999999999645, -1.950000000000001288, 15.34999999999999964 ) ) ;
#912 = PERSON_AND_ORGANIZATION ( #950, #774 ) ;
#913 = LINE ( 'NONE', #171, #891 ) ;
#914 = DIRECTION ( 'NONE',  ( -0.0000000000000000000, -1.000000000000000000, -0.0000000000000000000 ) ) ;
#915 = FACE_OUTER_BOUND ( 'NONE', #1322, .T. ) ;
#916 = PERSON_AND_ORGANIZATION_ROLE ( 'creator' ) ;
#917 = DIRECTION ( 'NONE',  ( -0.0000000000000000000, -1.000000000000000000, -0.0000000000000000000 ) ) ;
#918 = AXIS2_PLACEMENT_3D ( 'NONE', #837, #116, #318 ) ;
#919 = DIRECTION ( 'NONE',  ( 1.000000000000000000, 0.0000000000000000000, 0.0000000000000000000 ) ) ;
#920 = EDGE_LOOP ( 'NONE', ( #253, #25, #653, #924 ) ) ;
#921 = ADVANCED_FACE ( 'NONE', ( #746 ), #1028, .F. ) ;
#922 = ORIENTED_EDGE ( 'NONE', *, *, #190, .T. ) ;
#923 = DIRECTION ( 'NONE',  ( 0.0000000000000000000, -0.0000000000000000000, 1.000000000000000000 ) ) ;
#924 = ORIENTED_EDGE ( 'NONE', *, *, #560, .F. ) ;
#925 = EDGE_LOOP ( 'NONE', ( #648, #1139, #429, #587 ) ) ;
#926 = ORIENTED_EDGE ( 'NONE', *, *, #221, .T. ) ;
#927 = LINE ( 'NONE', #435, #1043 ) ;
#928 = EDGE_CURVE ( 'NONE', #834, #1120, #716, .T. ) ;
#929 = DIRECTION ( 'NONE',  ( 0.0000000000000000000, -1.000000000000000000, 0.0000000000000000000 ) ) ;
#930 = DIRECTION ( 'NONE',  ( 0.0000000000000000000, 0.0000000000000000000, 1.000000000000000000 ) ) ;
#931 = VECTOR ( 'NONE', #581, 1000.000000000000000 ) ;
#932 = VECTOR ( 'NONE', #434, 1000.000000000000000 ) ;
#933 = DIRECTION ( 'NONE',  ( 0.0000000000000000000, -0.0000000000000000000, 1.000000000000000000 ) ) ;
#934 = VECTOR ( 'NONE', #908, 1000.000000000000000 ) ;
#935 = DIRECTION ( 'NONE',  ( -1.000000000000000000, -0.0000000000000000000, 0.0000000000000000000 ) ) ;
#936 = EDGE_CURVE ( 'NONE', #540, #992, #333, .T. ) ;
#937 = DIRECTION ( 'NONE',  ( -0.0000000000000000000, -1.000000000000000000, -0.0000000000000000000 ) ) ;
#938 = AXIS2_PLACEMENT_3D ( 'NONE', #1073, #855, #760 ) ;
#939 = ORIENTED_EDGE ( 'NONE', *, *, #681, .F. ) ;
#940 = ORIENTED_EDGE ( 'NONE', *, *, #786, .T. ) ;
#941 = EDGE_LOOP ( 'NONE', ( #956, #431, #651, #325 ) ) ;
#942 = CARTESIAN_POINT ( 'NONE',  ( 8.640000000000002345, -2.200000000000000622, 10.94999999999999929 ) ) ;
#943 = ORIENTED_EDGE ( 'NONE', *, *, #362, .F. ) ;
#944 = VECTOR ( 'NONE', #424, 1000.000000000000114 ) ;
#945 = ADVANCED_FACE ( 'NONE', ( #875 ), #303, .F. ) ;
#946 = EDGE_CURVE ( 'NONE', #538, #1218, #1286, .T. ) ;
#947 = DIRECTION ( 'NONE',  ( 1.000000000000000000, 0.0000000000000000000, 0.0000000000000000000 ) ) ;
#948 = PERSON_AND_ORGANIZATION ( #950, #774 ) ;
#949 = ADVANCED_FACE ( 'NONE', ( #5 ), #1340, .F. ) ;
#950 = PERSON ( 'UNSPECIFIED', 'UNSPECIFIED', 'UNSPECIFIED', ('UNSPECIFIED'), ('UNSPECIFIED'), ('UNSPECIFIED') ) ;
#951 = VECTOR ( 'NONE', #505, 1000.000000000000000 ) ;
#952 = LINE ( 'NONE', #456, #349 ) ;
#953 = CARTESIAN_POINT ( 'NONE',  ( 8.640000000000002345, -1.950000000000001288, 10.94999999999999929 ) ) ;
#954 = CARTESIAN_POINT ( 'NONE',  ( -10.39441403892323379, -4.644414583420333642, 10.94999999999999929 ) ) ;
#955 = EDGE_CURVE ( 'NONE', #144, #306, #825, .T. ) ;
#956 = ORIENTED_EDGE ( 'NONE', *, *, #612, .T. ) ;
#957 = DIRECTION ( 'NONE',  ( -0.0000000000000000000, -1.000000000000000000, -0.0000000000000000000 ) ) ;
#958 = ORIENTED_EDGE ( 'NONE', *, *, #1017, .T. ) ;
#959 = DIRECTION ( 'NONE',  ( 1.000000000000000000, 0.0000000000000000000, 0.0000000000000000000 ) ) ;
#960 = ORIENTED_EDGE ( 'NONE', *, *, #876, .F. ) ;
#961 = ORIENTED_EDGE ( 'NONE', *, *, #1311, .F. ) ;
#962 = CARTESIAN_POINT ( 'NONE',  ( -10.74151380455178817, -4.491513804551789946, 2.117582368135750848E-16 ) ) ;
#963 = DIRECTION ( 'NONE',  ( 1.000000000000000000, 0.0000000000000000000, 0.0000000000000000000 ) ) ;
#964 = VECTOR ( 'NONE', #1113, 1000.000000000000000 ) ;
#965 = AXIS2_PLACEMENT_3D ( 'NONE', #207, #1061, #626 ) ;
#966 = CARTESIAN_POINT ( 'NONE',  ( 1.520000000000000906, -2.200000000000000622, 15.34999999999999964 ) ) ;
#967 = LINE ( 'NONE', #417, #33 ) ;
#968 = DIRECTION ( 'NONE',  ( 0.0000000000000000000, -1.000000000000000000, -0.0000000000000000000 ) ) ;
#969 = VECTOR ( 'NONE', #1330, 1000.000000000000000 ) ;
#970 = LINE ( 'NONE', #1238, #367 ) ;
#971 = DIRECTION ( 'NONE',  ( -0.0000000000000000000, -1.000000000000000000, -0.0000000000000000000 ) ) ;
#972 = EDGE_CURVE ( 'NONE', #974, #38, #217, .T. ) ;
#973 = EDGE_LOOP ( 'NONE', ( #707, #495, #240, #940 ) ) ;
#974 = VERTEX_POINT ( 'NONE', #3 ) ;
#975 = CARTESIAN_POINT ( 'NONE',  ( -10.90000000000000036, -4.650000000000000355, 11.35000000000000320 ) ) ;
#976 = CC_DESIGN_PERSON_AND_ORGANIZATION_ASSIGNMENT ( #638, #916, ( #635 ) ) ;
#977 = ORIENTED_EDGE ( 'NONE', *, *, #946, .T. ) ;
#978 = CARTESIAN_POINT ( 'NONE',  ( -6.599999999999999645, -1.950000000000001288, 10.94999999999999929 ) ) ;
#979 = ORIENTED_EDGE ( 'NONE', *, *, #730, .T. ) ;
#980 = DIRECTION ( 'NONE',  ( 0.0000000000000000000, 1.000000000000000000, 0.0000000000000000000 ) ) ;
#981 = DIRECTION ( 'NONE',  ( 0.9999025240093042388, 0.0000000000000000000, -0.01396218033914530324 ) ) ;
#982 = EDGE_CURVE ( 'NONE', #737, #75, #1313, .T. ) ;
#983 = COORDINATED_UNIVERSAL_TIME_OFFSET ( 8, 0, .AHEAD. ) ;
#984 = VECTOR ( 'NONE', #781, 1000.000000000000000 ) ;
#985 = CARTESIAN_POINT ( 'NONE',  ( -10.39441403892320004, -8.326672684688670109E-16, 10.94999999999999929 ) ) ;
#986 = DIRECTION ( 'NONE',  ( -0.0000000000000000000, -1.000000000000000000, -0.0000000000000000000 ) ) ;
#987 = ORIENTED_EDGE ( 'NONE', *, *, #720, .F. ) ;
#988 = ORIENTED_EDGE ( 'NONE', *, *, #239, .F. ) ;
#989 = AXIS2_PLACEMENT_3D ( 'NONE', #854, #103, #539 ) ;
#990 = EDGE_LOOP ( 'NONE', ( #222, #555, #1232, #175 ) ) ;
#991 = CARTESIAN_POINT ( 'NONE',  ( 4.060000000000001386, -2.200000000000000622, 10.94999999999999929 ) ) ;
#992 = VERTEX_POINT ( 'NONE', #308 ) ;
#993 = VERTEX_POINT ( 'NONE', #953 ) ;
#994 = LINE ( 'NONE', #1288, #432 ) ;
#995 = FACE_BOUND ( 'NONE', #1024, .T. ) ;
#996 = CARTESIAN_POINT ( 'NONE',  ( 6.600000000000001421, -1.950000000000001288, 10.94999999999999929 ) ) ;
#997 = VECTOR ( 'NONE', #18, 1000.000000000000000 ) ;
#998 = EDGE_CURVE ( 'NONE', #245, #629, #437, .T. ) ;
#999 = LINE ( 'NONE', #1045, #677 ) ;
#1000 = CC_DESIGN_APPROVAL ( #683, ( #714 ) ) ;
#1001 = DIRECTION ( 'NONE',  ( -0.0000000000000000000, -0.0000000000000000000, -1.000000000000000000 ) ) ;
#1002 = ORIENTED_EDGE ( 'NONE', *, *, #510, .F. ) ;
#1003 = DIRECTION ( 'NONE',  ( 0.0000000000000000000, 0.0000000000000000000, -1.000000000000000000 ) ) ;
#1004 = ADVANCED_FACE ( 'NONE', ( #1148 ), #1168, .F. ) ;
#1005 = ORIENTED_EDGE ( 'NONE', *, *, #1167, .F. ) ;
#1006 = CARTESIAN_POINT ( 'NONE',  ( -8.640000000000000568, -2.200000000000000622, 15.34999999999999964 ) ) ;
#1007 = ORIENTED_EDGE ( 'NONE', *, *, #70, .F. ) ;
#1008 = AXIS2_PLACEMENT_3D ( 'NONE', #1346, #90, #1355 ) ;
#1009 = DIRECTION ( 'NONE',  ( 0.0000000000000000000, 1.000000000000000000, 0.0000000000000000000 ) ) ;
#1010 = ORIENTED_EDGE ( 'NONE', *, *, #84, .T. ) ;
#1011 = FACE_OUTER_BOUND ( 'NONE', #112, .T. ) ;
#1012 = PLANE ( 'NONE',  #1298 ) ;
#1013 = CARTESIAN_POINT ( 'NONE',  ( -3.559999999999999609, -2.200000000000000622, 15.34999999999999964 ) ) ;
#1014 = ADVANCED_FACE ( 'NONE', ( #1083 ), #327, .T. ) ;
#1015 = LINE ( 'NONE', #1195, #563 ) ;
#1016 = VECTOR ( 'NONE', #696, 1000.000000000000114 ) ;
#1017 = EDGE_CURVE ( 'NONE', #1357, #54, #598, .T. ) ;
#1018 = ADVANCED_FACE ( 'NONE', ( #1246 ), #439, .F. ) ;
#1019 = DIRECTION ( 'NONE',  ( 0.0000000000000000000, 0.0000000000000000000, 1.000000000000000000 ) ) ;
#1020 = ORIENTED_EDGE ( 'NONE', *, *, #1226, .F. ) ;
#1021 = DIRECTION ( 'NONE',  ( 0.0000000000000000000, 0.0000000000000000000, -1.000000000000000000 ) ) ;
#1022 = ORIENTED_EDGE ( 'NONE', *, *, #255, .F. ) ;
#1023 = VERTEX_POINT ( 'NONE', #1263 ) ;
#1024 = EDGE_LOOP ( 'NONE', ( #269, #690, #224, #275 ) ) ;
#1025 = ADVANCED_FACE ( 'NONE', ( #468 ), #205, .F. ) ;
#1026 = VECTOR ( 'NONE', #863, 1000.000000000000000 ) ;
#1027 = CARTESIAN_POINT ( 'NONE',  ( 9.140000000000002345, -2.200000000000000622, 15.34999999999999964 ) ) ;
#1028 = PLANE ( 'NONE',  #1008 ) ;
#1029 = LINE ( 'NONE', #165, #745 ) ;
#1030 = LINE ( 'NONE', #177, #346 ) ;
#1031 = FACE_BOUND ( 'NONE', #920, .T. ) ;
#1032 = LINE ( 'NONE', #1151, #282 ) ;
#1033 = DIRECTION ( 'NONE',  ( 0.0000000000000000000, 1.000000000000000000, 0.0000000000000000000 ) ) ;
#1034 = AXIS2_PLACEMENT_3D ( 'NONE', #334, #981, #1281 ) ;
#1035 = ADVANCED_FACE ( 'NONE', ( #675 ), #111, .F. ) ;
#1036 = DIRECTION ( 'NONE',  ( 1.000000000000000000, 0.0000000000000000000, 0.0000000000000000000 ) ) ;
#1037 = EDGE_LOOP ( 'NONE', ( #739, #95, #1190, #328 ) ) ;
#1038 = DIRECTION ( 'NONE',  ( -0.0000000000000000000, -0.0000000000000000000, -1.000000000000000000 ) ) ;
#1039 = EDGE_LOOP ( 'NONE', ( #138, #1278, #415, #869 ) ) ;
#1040 = CARTESIAN_POINT ( 'NONE',  ( 6.600000000000001421, -1.950000000000001288, 15.34999999999999964 ) ) ;
#1041 = VERTEX_POINT ( 'NONE', #225 ) ;
#1042 = EDGE_LOOP ( 'NONE', ( #139, #125, #1189, #209 ) ) ;
#1043 = VECTOR ( 'NONE', #124, 1000.000000000000000 ) ;
#1044 = EDGE_CURVE ( 'NONE', #752, #885, #858, .T. ) ;
#1045 = CARTESIAN_POINT ( 'NONE',  ( 8.640000000000002345, -2.200000000000000622, 15.34999999999999964 ) ) ;
#1046 = LINE ( 'NONE', #48, #1329 ) ;
#1047 = CC_DESIGN_PERSON_AND_ORGANIZATION_ASSIGNMENT ( #729, #506, ( #852 ) ) ;
#1048 = CARTESIAN_POINT ( 'NONE',  ( -10.39441403892321958, 4.644414583420329201, 10.95000000000000107 ) ) ;
#1049 = LINE ( 'NONE', #1059, #1207 ) ;
#1050 = FACE_OUTER_BOUND ( 'NONE', #1094, .T. ) ;
#1051 = ADVANCED_FACE ( 'NONE', ( #317 ), #743, .T. ) ;
#1052 = DIRECTION ( 'NONE',  ( -0.0000000000000000000, -0.0000000000000000000, -1.000000000000000000 ) ) ;
#1053 = CARTESIAN_POINT ( 'NONE',  ( 4.060000000000001386, -2.200000000000000622, 10.94999999999999929 ) ) ;
#1054 = AXIS2_PLACEMENT_3D ( 'NONE', #755, #340, #657 ) ;
#1055 = CARTESIAN_POINT ( 'NONE',  ( 10.39441403892320004, -8.326672684688670109E-16, 10.94999999999999929 ) ) ;
#1056 = VERTEX_POINT ( 'NONE', #215 ) ;
#1057 = EDGE_LOOP ( 'NONE', ( #1294, #1308, #537, #92 ) ) ;
#1058 = VERTEX_POINT ( 'NONE', #1053 ) ;
#1059 = CARTESIAN_POINT ( 'NONE',  ( 8.640000000000002345, -2.200000000000000622, 10.94999999999999929 ) ) ;
#1060 = ORIENTED_EDGE ( 'NONE', *, *, #164, .F. ) ;
#1061 = DIRECTION ( 'NONE',  ( 0.0000000000000000000, 0.9999025240093042388, -0.01396218033914530324 ) ) ;
#1062 = LINE ( 'NONE', #1328, #655 ) ;
#1063 = VERTEX_POINT ( 'NONE', #1161 ) ;
#1064 = VECTOR ( 'NONE', #846, 1000.000000000000000 ) ;
#1065 = DIRECTION ( 'NONE',  ( -0.01396354118380470528, 0.0000000000000000000, 0.9999025050061671749 ) ) ;
#1066 = PERSON_AND_ORGANIZATION ( #950, #774 ) ;
#1067 = CARTESIAN_POINT ( 'NONE',  ( -9.140000000000000568, -1.950000000000001288, 15.34999999999999964 ) ) ;
#1068 = FACE_BOUND ( 'NONE', #78, .T. ) ;
#1069 = DIRECTION ( 'NONE',  ( -0.0000000000000000000, -0.0000000000000000000, -1.000000000000000000 ) ) ;
#1070 = EDGE_CURVE ( 'NONE', #904, #195, #1049, .T. ) ;
#1071 = CC_DESIGN_PERSON_AND_ORGANIZATION_ASSIGNMENT ( #948, #399, ( #714 ) ) ;
#1072 = ORIENTED_EDGE ( 'NONE', *, *, #1348, .T. ) ;
#1073 = CARTESIAN_POINT ( 'NONE',  ( -6.599999999999999645, -2.200000000000000622, 15.34999999999999964 ) ) ;
#1074 = VERTEX_POINT ( 'NONE', #842 ) ;
#1075 = ORIENTED_EDGE ( 'NONE', *, *, #433, .F. ) ;
#1076 = PLANE ( 'NONE',  #313 ) ;
#1077 = EDGE_LOOP ( 'NONE', ( #721, #699, #1127, #862 ) ) ;
#1078 = CARTESIAN_POINT ( 'NONE',  ( 1.520000000000000906, -2.200000000000000622, 10.94999999999999929 ) ) ;
#1079 = EDGE_CURVE ( 'NONE', #195, #1158, #403, .T. ) ;
#1080 = COORDINATED_UNIVERSAL_TIME_OFFSET ( 8, 0, .AHEAD. ) ;
#1081 = AXIS2_PLACEMENT_3D ( 'NONE', #336, #236, #1272 ) ;
#1082 = CARTESIAN_POINT ( 'NONE',  ( 8.640000000000002345, -2.200000000000000622, 15.34999999999999964 ) ) ;
#1083 = FACE_OUTER_BOUND ( 'NONE', #627, .T. ) ;
#1084 = DIRECTION ( 'NONE',  ( 1.000000000000000000, 0.0000000000000000000, 0.0000000000000000000 ) ) ;
#1085 = LINE ( 'NONE', #254, #826 ) ;
#1086 = CARTESIAN_POINT ( 'NONE',  ( -6.099999999999999645, -1.950000000000001288, 15.34999999999999964 ) ) ;
#1087 = DIRECTION ( 'NONE',  ( -0.01396081962705680163, 0.01396081962705802461, 0.9998050765177587396 ) ) ;
#1088 = EDGE_CURVE ( 'NONE', #36, #663, #199, .T. ) ;
#1089 = EDGE_LOOP ( 'NONE', ( #238, #848, #1325, #787 ) ) ;
#1090 = VERTEX_POINT ( 'NONE', #26 ) ;
#1091 = CARTESIAN_POINT ( 'NONE',  ( -9.140000000000000568, -2.200000000000000622, 15.34999999999999964 ) ) ;
#1092 = ORIENTED_EDGE ( 'NONE', *, *, #450, .F. ) ;
#1093 = DIRECTION ( 'NONE',  ( 1.000000000000000000, 0.0000000000000000000, 0.0000000000000000000 ) ) ;
#1094 = EDGE_LOOP ( 'NONE', ( #61, #606, #478, #1307 ) ) ;
#1095 = FACE_OUTER_BOUND ( 'NONE', #180, .T. ) ;
#1096 = DIRECTION ( 'NONE',  ( 1.000000000000000000, 0.0000000000000000000, 0.0000000000000000000 ) ) ;
#1097 = CARTESIAN_POINT ( 'NONE',  ( 3.560000000000000497, -2.200000000000000622, 15.34999999999999964 ) ) ;
#1098 = EDGE_CURVE ( 'NONE', #307, #1184, #843, .T. ) ;
#1099 = FACE_OUTER_BOUND ( 'NONE', #173, .T. ) ;
#1100 = CC_DESIGN_PERSON_AND_ORGANIZATION_ASSIGNMENT ( #912, #1317, ( #714 ) ) ;
#1101 = VECTOR ( 'NONE', #106, 1000.000000000000000 ) ;
#1102 = DIRECTION ( 'NONE',  ( 0.0000000000000000000, -1.000000000000000000, 0.0000000000000000000 ) ) ;
#1103 = CARTESIAN_POINT ( 'NONE',  ( 0.0000000000000000000, 0.0000000000000000000, 15.34999999999999964 ) ) ;
#1104 = DIRECTION ( 'NONE',  ( -1.000000000000000000, -0.0000000000000000000, -0.0000000000000000000 ) ) ;
#1105 = CARTESIAN_POINT ( 'NONE',  ( -10.74151380455179705, -4.491513804551789057, -1.609273336547932606E-16 ) ) ;
#1106 = ORIENTED_EDGE ( 'NONE', *, *, #170, .F. ) ;
#1107 = VERTEX_POINT ( 'NONE', #544 ) ;
#1108 = CARTESIAN_POINT ( 'NONE',  ( 6.600000000000001421, -2.200000000000000622, 15.34999999999999964 ) ) ;
#1109 = VERTEX_POINT ( 'NONE', #237 ) ;
#1110 = FACE_OUTER_BOUND ( 'NONE', #1252, .T. ) ;
#1111 = LINE ( 'NONE', #985, #821 ) ;
#1112 = CARTESIAN_POINT ( 'NONE',  ( 6.600000000000001421, -2.200000000000000622, 10.94999999999999929 ) ) ;
#1113 = DIRECTION ( 'NONE',  ( -0.0000000000000000000, -0.0000000000000000000, -1.000000000000000000 ) ) ;
#1114 = CARTESIAN_POINT ( 'NONE',  ( -4.059999999999999609, -2.200000000000000622, 10.94999999999999929 ) ) ;
#1115 = VECTOR ( 'NONE', #937, 1000.000000000000000 ) ;
#1116 = EDGE_CURVE ( 'NONE', #769, #1171, #810, .T. ) ;
#1117 = VECTOR ( 'NONE', #363, 1000.000000000000000 ) ;
#1118 = DIRECTION ( 'NONE',  ( 0.0000000000000000000, 1.000000000000000000, 0.0000000000000000000 ) ) ;
#1119 = PLANE ( 'NONE',  #1183 ) ;
#1120 = VERTEX_POINT ( 'NONE', #561 ) ;
#1121 = ORIENTED_EDGE ( 'NONE', *, *, #312, .T. ) ;
#1122 = CARTESIAN_POINT ( 'NONE',  ( 8.640000000000002345, -2.200000000000000622, 15.34999999999999964 ) ) ;
#1123 = ORIENTED_EDGE ( 'NONE', *, *, #292, .T. ) ;
#1124 = AXIS2_PLACEMENT_3D ( 'NONE', #650, #128, #34 ) ;
#1125 = CARTESIAN_POINT ( 'NONE',  ( 6.100000000000001421, -1.950000000000001288, 15.34999999999999964 ) ) ;
#1126 = ORIENTED_EDGE ( 'NONE', *, *, #473, .F. ) ;
#1127 = ORIENTED_EDGE ( 'NONE', *, *, #1282, .F. ) ;
#1128 = CARTESIAN_POINT ( 'NONE',  ( 6.100000000000001421, -2.200000000000000622, 15.34999999999999964 ) ) ;
#1129 = CARTESIAN_POINT ( 'NONE',  ( -8.640000000000000568, -2.200000000000000622, 15.34999999999999964 ) ) ;
#1130 = VECTOR ( 'NONE', #777, 1000.000000000000000 ) ;
#1131 = VECTOR ( 'NONE', #971, 1000.000000000000000 ) ;
#1132 = CARTESIAN_POINT ( 'NONE',  ( 10.90000000000000036, -4.649999999999999467, 11.35000000000000320 ) ) ;
#1133 = DIRECTION ( 'NONE',  ( -1.000000000000000000, -0.0000000000000000000, -0.0000000000000000000 ) ) ;
#1134 = ORIENTED_EDGE ( 'NONE', *, *, #1212, .F. ) ;
#1135 = ORIENTED_EDGE ( 'NONE', *, *, #203, .T. ) ;
#1136 = APPLICATION_PROTOCOL_DEFINITION ( 'international standard', 'config_control_design', 1994, #903 ) ;
#1137 = ADVANCED_FACE ( 'NONE', ( #1271 ), #230, .F. ) ;
#1138 = ORIENTED_EDGE ( 'NONE', *, *, #6, .T. ) ;
#1139 = ORIENTED_EDGE ( 'NONE', *, *, #778, .F. ) ;
#1140 = CARTESIAN_POINT ( 'NONE',  ( -4.059999999999999609, -1.950000000000001288, 10.94999999999999929 ) ) ;
#1141 = CLOSED_SHELL ( 'NONE', ( #1230, #405, #709, #155, #518, #1025, #69, #1014, #805, #1051, #1035, #1137, #1248, #1335, #1360, #286, #485, #1242, #198, #949, #576, #713, #703, #945, #188, #56, #905, #1004, #59, #921, #583, #410, #1349, #836, #607, #1018, #618, #1324, #96, #1341, #521, #688, #176, #827, #1146 ) ) ;
#1142 = VECTOR ( 'NONE', #947, 1000.000000000000000 ) ;
#1143 = DIRECTION ( 'NONE',  ( 0.0000000000000000000, -1.000000000000000000, 0.0000000000000000000 ) ) ;
#1144 = CARTESIAN_POINT ( 'NONE',  ( 8.640000000000002345, -2.200000000000000622, 15.34999999999999964 ) ) ;
#1145 = APPROVAL_DATE_TIME ( #1257, #1261 ) ;
#1146 = ADVANCED_FACE ( 'NONE', ( #892 ), #1076, .F. ) ;
#1147 = DIRECTION ( 'NONE',  ( -0.0000000000000000000, -0.0000000000000000000, -1.000000000000000000 ) ) ;
#1148 = FACE_OUTER_BOUND ( 'NONE', #941, .T. ) ;
#1149 = VECTOR ( 'NONE', #369, 1000.000000000000114 ) ;
#1150 = EDGE_CURVE ( 'NONE', #306, #251, #547, .T. ) ;
#1151 = CARTESIAN_POINT ( 'NONE',  ( -8.640000000000000568, -2.200000000000000622, 15.34999999999999964 ) ) ;
#1152 = AXIS2_PLACEMENT_3D ( 'NONE', #647, #1084, #20 ) ;
#1153 = VECTOR ( 'NONE', #1036, 1000.000000000000000 ) ;
#1154 = DIRECTION ( 'NONE',  ( 1.000000000000000000, 0.0000000000000000000, 0.0000000000000000000 ) ) ;
#1155 = EDGE_LOOP ( 'NONE', ( #1219, #27, #341, #1266 ) ) ;
#1156 = CARTESIAN_POINT ( 'NONE',  ( 1.020000000000000462, -2.200000000000000622, 10.94999999999999929 ) ) ;
#1157 = ORIENTED_EDGE ( 'NONE', *, *, #213, .T. ) ;
#1158 = VERTEX_POINT ( 'NONE', #867 ) ;
#1159 = EDGE_CURVE ( 'NONE', #1291, #54, #515, .T. ) ;
#1160 = FACE_OUTER_BOUND ( 'NONE', #767, .T. ) ;
#1161 = CARTESIAN_POINT ( 'NONE',  ( -6.599999999999999645, -2.200000000000000622, 15.34999999999999964 ) ) ;
#1162 = VECTOR ( 'NONE', #23, 1000.000000000000000 ) ;
#1163 = CARTESIAN_POINT ( 'NONE',  ( -8.640000000000000568, -1.950000000000001288, 15.34999999999999964 ) ) ;
#1164 = CARTESIAN_POINT ( 'NONE',  ( 6.100000000000001421, -2.200000000000000622, 15.34999999999999964 ) ) ;
#1165 = LINE ( 'NONE', #1144, #731 ) ;
#1166 = DIRECTION ( 'NONE',  ( 1.000000000000000000, 0.0000000000000000000, 0.0000000000000000000 ) ) ;
#1167 = EDGE_CURVE ( 'NONE', #907, #109, #579, .T. ) ;
#1168 = PLANE ( 'NONE',  #486 ) ;
#1169 = ORIENTED_EDGE ( 'NONE', *, *, #494, .T. ) ;
#1170 = ORIENTED_EDGE ( 'NONE', *, *, #441, .T. ) ;
#1171 = VERTEX_POINT ( 'NONE', #861 ) ;
#1172 = DIRECTION ( 'NONE',  ( -0.9999025050061671749, -4.774687240594480245E-16, -0.01396354118380470528 ) ) ;
#1173 = VERTEX_POINT ( 'NONE', #135 ) ;
#1174 = PLANE ( 'NONE',  #1081 ) ;
#1175 = EDGE_CURVE ( 'NONE', #75, #838, #793, .T. ) ;
#1176 = VECTOR ( 'NONE', #1276, 1000.000000000000000 ) ;
#1177 = CARTESIAN_POINT ( 'NONE',  ( 10.90000000000000036, -4.491529253150700285, 0.001106352494397140097 ) ) ;
#1178 = LINE ( 'NONE', #1211, #1130 ) ;
#1179 = FACE_BOUND ( 'NONE', #1283, .T. ) ;
#1180 = VECTOR ( 'NONE', #917, 1000.000000000000000 ) ;
#1181 = PLANE ( 'NONE',  #1054 ) ;
#1182 = LINE ( 'NONE', #715, #1153 ) ;
#1183 = AXIS2_PLACEMENT_3D ( 'NONE', #376, #1223, #1021 ) ;
#1184 = VERTEX_POINT ( 'NONE', #878 ) ;
#1185 = CARTESIAN_POINT ( 'NONE',  ( 9.140000000000002345, -2.200000000000000622, 15.34999999999999964 ) ) ;
#1186 = ORIENTED_EDGE ( 'NONE', *, *, #1159, .T. ) ;
#1187 = ORIENTED_EDGE ( 'NONE', *, *, #101, .F. ) ;
#1188 = PLANE ( 'NONE',  #545 ) ;
#1189 = ORIENTED_EDGE ( 'NONE', *, *, #517, .F. ) ;
#1190 = ORIENTED_EDGE ( 'NONE', *, *, #450, .T. ) ;
#1191 = LINE ( 'NONE', #122, #181 ) ;
#1192 = CARTESIAN_POINT ( 'NONE',  ( -9.140000000000000568, -2.200000000000000622, 10.94999999999999929 ) ) ;
#1193 = PLANE ( 'NONE',  #1267 ) ;
#1194 = LINE ( 'NONE', #1229, #404 ) ;
#1195 = CARTESIAN_POINT ( 'NONE',  ( 10.40000000000000213, -4.650000000000000355, 11.35000000000000142 ) ) ;
#1196 = AXIS2_PLACEMENT_3D ( 'NONE', #1125, #490, #591 ) ;
#1197 = ORIENTED_EDGE ( 'NONE', *, *, #798, .F. ) ;
#1198 = EDGE_LOOP ( 'NONE', ( #1253, #1197, #108, #475 ) ) ;
#1199 = EDGE_LOOP ( 'NONE', ( #988, #958, #443, #524 ) ) ;
#1200 = PLANE ( 'NONE',  #295 ) ;
#1201 = ORIENTED_EDGE ( 'NONE', *, *, #406, .F. ) ;
#1202 = EDGE_LOOP ( 'NONE', ( #608, #620, #358, #1138 ) ) ;
#1203 = LINE ( 'NONE', #533, #1064 ) ;
#1204 = CARTESIAN_POINT ( 'NONE',  ( 1.520000000000000906, -2.200000000000000622, 15.34999999999999964 ) ) ;
#1205 = VECTOR ( 'NONE', #361, 1000.000000000000000 ) ;
#1206 = DIRECTION ( 'NONE',  ( -0.0000000000000000000, -0.0000000000000000000, -1.000000000000000000 ) ) ;
#1207 = VECTOR ( 'NONE', #1096, 1000.000000000000000 ) ;
#1208 = LINE ( 'NONE', #156, #747 ) ;
#1209 = DIRECTION ( 'NONE',  ( 0.0000000000000000000, 1.000000000000000000, 0.0000000000000000000 ) ) ;
#1210 = CARTESIAN_POINT ( 'NONE',  ( 1.020000000000000462, -1.950000000000001288, 15.34999999999999964 ) ) ;
#1211 = CARTESIAN_POINT ( 'NONE',  ( 1.020000000000000462, -1.950000000000001288, 10.94999999999999929 ) ) ;
#1212 = EDGE_CURVE ( 'NONE', #705, #1339, #484, .T. ) ;
#1213 = DIRECTION ( 'NONE',  ( -0.0000000000000000000, -0.0000000000000000000, -1.000000000000000000 ) ) ;
#1214 = VERTEX_POINT ( 'NONE', #1295 ) ;
#1215 = CARTESIAN_POINT ( 'NONE',  ( -6.599999999999999645, -2.200000000000000622, 15.34999999999999964 ) ) ;
#1216 = EDGE_LOOP ( 'NONE', ( #754, #622, #1075, #1157 ) ) ;
#1217 = DIRECTION ( 'NONE',  ( 0.0000000000000000000, -0.0000000000000000000, -1.000000000000000000 ) ) ;
#1218 = VERTEX_POINT ( 'NONE', #975 ) ;
#1219 = ORIENTED_EDGE ( 'NONE', *, *, #374, .T. ) ;
#1220 = DIRECTION ( 'NONE',  ( -1.000000000000000000, -5.091773371539360726E-17, -7.109918852332943588E-19 ) ) ;
#1221 = FACE_OUTER_BOUND ( 'NONE', #1077, .T. ) ;
#1222 = LINE ( 'NONE', #304, #909 ) ;
#1223 = DIRECTION ( 'NONE',  ( 1.000000000000000000, 0.0000000000000000000, 0.0000000000000000000 ) ) ;
#1224 = APPLICATION_CONTEXT ( 'configuration controlled 3d designs of mechanical parts and assemblies' ) ;
#1225 = FACE_OUTER_BOUND ( 'NONE', #289, .T. ) ;
#1226 = EDGE_CURVE ( 'NONE', #54, #974, #1015, .T. ) ;
#1227 = PLANE ( 'NONE',  #182 ) ;
#1228 = LINE ( 'NONE', #1326, #366 ) ;
#1229 = CARTESIAN_POINT ( 'NONE',  ( -3.559999999999999609, -1.950000000000001288, 15.34999999999999964 ) ) ;
#1230 = ADVANCED_FACE ( 'NONE', ( #501, #1300, #1179, #532, #611, #1068, #1031, #995 ), #460, .T. ) ;
#1231 = PLANE ( 'NONE',  #645 ) ;
#1232 = ORIENTED_EDGE ( 'NONE', *, *, #730, .F. ) ;
#1233 =( NAMED_UNIT ( * ) SI_UNIT ( $, .STERADIAN. ) SOLID_ANGLE_UNIT ( ) );
#1234 = EDGE_CURVE ( 'NONE', #109, #538, #382, .T. ) ;
#1235 = ORIENTED_EDGE ( 'NONE', *, *, #566, .T. ) ;
#1236 = CARTESIAN_POINT ( 'NONE',  ( 8.640000000000002345, -1.950000000000001288, 15.34999999999999964 ) ) ;
#1237 = ORIENTED_EDGE ( 'NONE', *, *, #457, .T. ) ;
#1238 = CARTESIAN_POINT ( 'NONE',  ( 0.0000000000000000000, 4.650000000000000355, 11.35000000000000142 ) ) ;
#1239 = EDGE_LOOP ( 'NONE', ( #756, #588, #1020, #701 ) ) ;
#1240 = LINE ( 'NONE', #636, #1297 ) ;
#1241 = CARTESIAN_POINT ( 'NONE',  ( -6.599999999999999645, -2.200000000000000622, 10.94999999999999929 ) ) ;
#1242 = ADVANCED_FACE ( 'NONE', ( #1225 ), #1181, .F. ) ;
#1243 = LINE ( 'NONE', #564, #964 ) ;
#1244 = PERSON_AND_ORGANIZATION_ROLE ( 'classification_officer' ) ;
#1245 = VECTOR ( 'NONE', #496, 1000.000000000000000 ) ;
#1246 = FACE_OUTER_BOUND ( 'NONE', #1198, .T. ) ;
#1247 = LINE ( 'NONE', #698, #470 ) ;
#1248 = ADVANCED_FACE ( 'NONE', ( #562 ), #1188, .F. ) ;
#1249 = DIRECTION ( 'NONE',  ( 0.0000000000000000000, 1.000000000000000000, 0.0000000000000000000 ) ) ;
#1250 = DIRECTION ( 'NONE',  ( 1.000000000000000000, -0.0000000000000000000, 0.0000000000000000000 ) ) ;
#1251 = ORIENTED_EDGE ( 'NONE', *, *, #482, .F. ) ;
#1252 = EDGE_LOOP ( 'NONE', ( #323, #287, #1277, #736 ) ) ;
#1253 = ORIENTED_EDGE ( 'NONE', *, *, #644, .T. ) ;
#1254 = PLANE ( 'NONE',  #671 ) ;
#1255 = VERTEX_POINT ( 'NONE', #887 ) ;
#1256 = DIRECTION ( 'NONE',  ( -0.0000000000000000000, -1.000000000000000000, -0.0000000000000000000 ) ) ;
#1257 = DATE_AND_TIME ( #499, #436 ) ;
#1258 = LINE ( 'NONE', #605, #951 ) ;
#1259 = LINE ( 'NONE', #1128, #385 ) ;
#1260 = CARTESIAN_POINT ( 'NONE',  ( -10.40000000000000213, 4.650000000000000355, 11.35000000000000142 ) ) ;
#1261 = APPROVAL ( #179, 'UNSPECIFIED' ) ;
#1262 = ORIENTED_EDGE ( 'NONE', *, *, #150, .F. ) ;
#1263 = CARTESIAN_POINT ( 'NONE',  ( -10.40000000000000213, 4.649999999999999467, 11.35000000000000142 ) ) ;
#1264 = VERTEX_POINT ( 'NONE', #469 ) ;
#1265 = EDGE_LOOP ( 'NONE', ( #723, #764, #1134, #922 ) ) ;
#1266 = ORIENTED_EDGE ( 'NONE', *, *, #1359, .T. ) ;
#1267 = AXIS2_PLACEMENT_3D ( 'NONE', #895, #788, #662 ) ;
#1268 = VECTOR ( 'NONE', #553, 1000.000000000000000 ) ;
#1269 = COORDINATED_UNIVERSAL_TIME_OFFSET ( 8, 0, .AHEAD. ) ;
#1270 = CARTESIAN_POINT ( 'NONE',  ( 0.0000000000000000000, -6.154744128037440034E-16, 11.35000000000000142 ) ) ;
#1271 = FACE_OUTER_BOUND ( 'NONE', #39, .T. ) ;
#1272 = DIRECTION ( 'NONE',  ( 0.0000000000000000000, -0.0000000000000000000, 1.000000000000000000 ) ) ;
#1273 = LINE ( 'NONE', #811, #761 ) ;
#1274 = EDGE_CURVE ( 'NONE', #665, #342, #1178, .T. ) ;
#1275 = DIRECTION ( 'NONE',  ( 0.0000000000000000000, 0.01396218033914530324, -0.9999025240093042388 ) ) ;
#1276 = DIRECTION ( 'NONE',  ( 0.0000000000000000000, 1.000000000000000000, 0.0000000000000000000 ) ) ;
#1277 = ORIENTED_EDGE ( 'NONE', *, *, #593, .F. ) ;
#1278 = ORIENTED_EDGE ( 'NONE', *, *, #753, .F. ) ;
#1279 = DIRECTION ( 'NONE',  ( 0.0000000000000000000, -0.0000000000000000000, 1.000000000000000000 ) ) ;
#1280 = ORIENTED_EDGE ( 'NONE', *, *, #1282, .T. ) ;
#1281 = DIRECTION ( 'NONE',  ( -0.01396218033914530324, 0.0000000000000000000, -0.9999025240093042388 ) ) ;
#1282 = EDGE_CURVE ( 'NONE', #306, #785, #315, .T. ) ;
#1283 = EDGE_LOOP ( 'NONE', ( #1305, #377, #1262, #987 ) ) ;
#1284 = DIRECTION ( 'NONE',  ( 0.01396218033914430924, 0.01396081936177956395, 0.9998050575201772316 ) ) ;
#1285 = LOCAL_TIME ( 9, 29, 50.00000000000000000, #1080 ) ;
#1286 = LINE ( 'NONE', #962, #1350 ) ;
#1287 = LINE ( 'NONE', #489, #1016 ) ;
#1288 = CARTESIAN_POINT ( 'NONE',  ( 3.560000000000000497, -2.200000000000000622, 15.34999999999999964 ) ) ;
#1289 = EDGE_CURVE ( 'NONE', #1058, #737, #347, .T. ) ;
#1290 = DIRECTION ( 'NONE',  ( -0.0000000000000000000, -0.0000000000000000000, -1.000000000000000000 ) ) ;
#1291 = VERTEX_POINT ( 'NONE', #252 ) ;
#1292 = DIRECTION ( 'NONE',  ( -1.000000000000000000, -5.091773371539360726E-17, -7.109918852332943588E-19 ) ) ;
#1293 = ORIENTED_EDGE ( 'NONE', *, *, #43, .T. ) ;
#1294 = ORIENTED_EDGE ( 'NONE', *, *, #585, .T. ) ;
#1295 = CARTESIAN_POINT ( 'NONE',  ( -9.140000000000000568, -1.950000000000001288, 15.34999999999999964 ) ) ;
#1296 = ORIENTED_EDGE ( 'NONE', *, *, #374, .F. ) ;
#1297 = VECTOR ( 'NONE', #860, 1000.000000000000114 ) ;
#1298 = AXIS2_PLACEMENT_3D ( 'NONE', #780, #893, #154 ) ;
#1299 = PLANE ( 'NONE',  #530 ) ;
#1300 = FACE_BOUND ( 'NONE', #446, .T. ) ;
#1301 = CARTESIAN_POINT ( 'NONE',  ( -6.099999999999999645, -2.200000000000000622, 15.34999999999999964 ) ) ;
#1302 = CARTESIAN_POINT ( 'NONE',  ( -10.90000000000000036, 4.649999999999999467, 11.35000000000000320 ) ) ;
#1303 = ORIENTED_EDGE ( 'NONE', *, *, #575, .T. ) ;
#1304 = PLANE ( 'NONE',  #73 ) ;
#1305 = ORIENTED_EDGE ( 'NONE', *, *, #525, .F. ) ;
#1306 = DIRECTION ( 'NONE',  ( -0.0000000000000000000, -1.000000000000000000, -0.0000000000000000000 ) ) ;
#1307 = ORIENTED_EDGE ( 'NONE', *, *, #798, .T. ) ;
#1308 = ORIENTED_EDGE ( 'NONE', *, *, #906, .F. ) ;
#1309 = VECTOR ( 'NONE', #873, 1000.000000000000000 ) ;
#1310 = CARTESIAN_POINT ( 'NONE',  ( -9.140000000000000568, -1.950000000000001288, 15.34999999999999964 ) ) ;
#1311 = EDGE_CURVE ( 'NONE', #1109, #195, #1029, .T. ) ;
#1312 = DATE_AND_TIME ( #758, #481 ) ;
#1313 = LINE ( 'NONE', #420, #232 ) ;
#1314 = LINE ( 'NONE', #1112, #695 ) ;
#1315 = CARTESIAN_POINT ( 'NONE',  ( -3.559999999999999609, -1.950000000000001288, 15.34999999999999964 ) ) ;
#1316 = DIRECTION ( 'NONE',  ( 0.0000000000000000000, -0.0000000000000000000, -1.000000000000000000 ) ) ;
#1317 = PERSON_AND_ORGANIZATION_ROLE ( 'design_supplier' ) ;
#1318 = EDGE_CURVE ( 'NONE', #1171, #880, #1243, .T. ) ;
#1319 = DIRECTION ( 'NONE',  ( -1.000000000000000000, 0.0000000000000000000, 0.0000000000000000000 ) ) ;
#1320 = VECTOR ( 'NONE', #1009, 1000.000000000000000 ) ;
#1321 = CC_DESIGN_SECURITY_CLASSIFICATION ( #757, ( #714 ) ) ;
#1322 = EDGE_LOOP ( 'NONE', ( #1126, #356, #1169, #1135 ) ) ;
#1323 = ORIENTED_EDGE ( 'NONE', *, *, #1234, .T. ) ;
#1324 = ADVANCED_FACE ( 'NONE', ( #102 ), #1299, .F. ) ;
#1325 = ORIENTED_EDGE ( 'NONE', *, *, #120, .F. ) ;
#1326 = CARTESIAN_POINT ( 'NONE',  ( 3.560000000000000497, -2.200000000000000622, 15.34999999999999964 ) ) ;
#1327 = LINE ( 'NONE', #1163, #258 ) ;
#1328 = CARTESIAN_POINT ( 'NONE',  ( 4.060000000000001386, -2.200000000000000622, 15.34999999999999964 ) ) ;
#1329 = VECTOR ( 'NONE', #480, 1000.000000000000000 ) ;
#1330 = DIRECTION ( 'NONE',  ( -0.0000000000000000000, -0.0000000000000000000, -1.000000000000000000 ) ) ;
#1331 = LINE ( 'NONE', #685, #1205 ) ;
#1332 = DIRECTION ( 'NONE',  ( 0.0000000000000000000, 0.0000000000000000000, 1.000000000000000000 ) ) ;
#1333 = VECTOR ( 'NONE', #763, 1000.000000000000000 ) ;
#1334 =( NAMED_UNIT ( * ) PLANE_ANGLE_UNIT ( ) SI_UNIT ( $, .RADIAN. ) );
#1335 = ADVANCED_FACE ( 'NONE', ( #889 ), #55, .F. ) ;
#1336 = CARTESIAN_POINT ( 'NONE',  ( 8.640000000000002345, -1.950000000000001288, 15.34999999999999964 ) ) ;
#1337 = DIRECTION ( 'NONE',  ( 0.0000000000000000000, 0.0000000000000000000, -1.000000000000000000 ) ) ;
#1338 = EDGE_CURVE ( 'NONE', #1339, #1074, #1331, .T. ) ;
#1339 = VERTEX_POINT ( 'NONE', #357 ) ;
#1340 = PLANE ( 'NONE',  #918 ) ;
#1341 = ADVANCED_FACE ( 'NONE', ( #32 ), #1304, .F. ) ;
#1342 = ORIENTED_EDGE ( 'NONE', *, *, #1167, .T. ) ;
#1343 = PRODUCT_RELATED_PRODUCT_CATEGORY ( 'detail', '', ( #852 ) ) ;
#1344 = VERTEX_POINT ( 'NONE', #582 ) ;
#1345 = LINE ( 'NONE', #1354, #329 ) ;
#1346 = CARTESIAN_POINT ( 'NONE',  ( 0.0000000000000000000, 0.0000000000000000000, 15.34999999999999964 ) ) ;
#1347 = CALENDAR_DATE ( 2020, 7, 4 ) ;
#1348 = EDGE_CURVE ( 'NONE', #144, #1361, #184, .T. ) ;
#1349 = ADVANCED_FACE ( 'NONE', ( #280 ), #1012, .F. ) ;
#1350 = VECTOR ( 'NONE', #219, 1000.000000000000114 ) ;
#1351 = DIRECTION ( 'NONE',  ( 0.0000000000000000000, -0.0000000000000000000, -1.000000000000000000 ) ) ;
#1352 = AXIS2_PLACEMENT_3D ( 'NONE', #1164, #528, #210 ) ;
#1353 = FACE_OUTER_BOUND ( 'NONE', #1155, .T. ) ;
#1354 = CARTESIAN_POINT ( 'NONE',  ( 8.640000000000002345, -2.200000000000000622, 10.94999999999999929 ) ) ;
#1355 = DIRECTION ( 'NONE',  ( -1.000000000000000000, 0.0000000000000000000, -0.0000000000000000000 ) ) ;
#1356 = DIRECTION ( 'NONE',  ( -0.0000000000000000000, -1.000000000000000000, -0.0000000000000000000 ) ) ;
#1357 = VERTEX_POINT ( 'NONE', #898 ) ;
#1358 = ORIENTED_EDGE ( 'NONE', *, *, #896, .T. ) ;
#1359 = EDGE_CURVE ( 'NONE', #769, #885, #466, .T. ) ;
#1360 = ADVANCED_FACE ( 'NONE', ( #1099 ), #672, .F. ) ;
#1361 = VERTEX_POINT ( 'NONE', #371 ) ;
#1362 = CARTESIAN_POINT ( 'NONE',  ( 1.020000000000000462, -2.200000000000000622, 15.34999999999999964 ) ) ;
#1363 = ORIENTED_EDGE ( 'NONE', *, *, #710, .T. ) ;
ENDSEC;
END-ISO-10303-21;
